<?xml version="1.0" encoding="utf-8"?>
<!-- Generator: Adobe Illustrator 22.0.0, SVG Export Plug-In . SVG Version: 6.00 Build 0)  -->
<svg version="1.1" id="Layer_1" xmlns="http://www.w3.org/2000/svg" xmlns:xlink="http://www.w3.org/1999/xlink" x="0px" y="0px"
	 viewBox="0 0 474.5 158.3" style="enable-background:new 0 0 474.5 158.3;" xml:space="preserve">
<style type="text/css">
	.st0{fill:#457CAD;}
	.st1{opacity:0.2;fill:#1D7FB3;}
</style>
<g>
	<g>
		<path class="st0" d="M44.6,35c-1.5,0.1-3.9,0.1-7.3,0.3L32,35.4c-0.4,0-0.8,0-1.1,0.1c-0.2,0.1-0.4,0.1-0.7,0.3
			c-0.5,0.2-0.9,0.3-1.3,0.3c-0.6-0.1-1.7-0.5-3.1-1.3c-0.6-0.3-0.9-0.6-0.8-0.8c0-0.2,0.4-0.2,1.1-0.1c1.5,0.2,4,0.3,7.4,0.3
			c2.1,0,5.5-0.1,10.4-0.3l3.9-0.1c0.2,0,0.4-0.1,0.5-0.1c0.1,0,0.2-0.1,0.4-0.2c0.2-0.1,0.4-0.2,0.6-0.2c0.3-0.1,0.7-0.1,1.2,0
			c1,0.1,1.6,0.2,1.8,0.4c0.1,0.1,0.1,0.4,0,0.8c-0.1,0.2-0.1,0.3-0.2,0.4c0,0.2,0,0.3,0,0.5V43c0,2.7,0,4.7-0.1,5.8
			c-0.1,1.5-0.3,2.9-0.5,4.1c-0.3,1.1-0.7,1.7-1.2,1.8c-0.5,0.2-0.8-0.3-0.8-1.5V34.8C48.8,34.8,47.1,34.9,44.6,35z"/>
		<path class="st0" d="M92.7,36c-0.2,0-0.4,0-0.6,0.1c-0.1,0-0.2,0.1-0.3,0.2c-0.3,0.1-0.6,0.2-0.8,0.1c-0.4-0.1-1.1-0.4-2.1-1
			c-0.6-0.3-0.9-0.6-0.8-0.8c0.1-0.2,0.6-0.2,1.4,0c0.7,0.1,2,0.2,3.9,0.1c2.1,0,4.2-0.1,6.2-0.3c0.1,0,0.2-0.1,0.3-0.1
			c0.1,0,0.1-0.1,0.2-0.1c0.1-0.1,0.2-0.1,0.4-0.1c0.2,0,0.6,0,1.1,0.1c0.8,0.1,1.2,0.2,1.3,0.5c0.1,0.1,0,0.4-0.1,0.7
			c-0.1,0.1-0.1,0.3-0.2,0.3c0,0.1,0,0.3,0,0.4c0,5.9,0,9.9-0.1,11.9c-0.1,2-0.2,3.4-0.4,4.1c-0.4,1.5-0.9,2.2-1.3,2.4
			c-0.5,0.1-0.7-0.7-0.7-2.3V35.4L92.7,36z M115.1,35.4c-0.4,0-1,0.1-1.9,0.1l-3.3,0.3c-0.2,0-0.4,0-0.5,0.1c-0.1,0-0.2,0.1-0.4,0.1
			c-0.3,0.1-0.6,0.2-0.9,0.2c-0.4-0.1-1-0.3-1.7-0.6c-0.8-0.4-1.2-0.7-1.1-0.9c0.1-0.2,0.5-0.2,1.4-0.1c0.7,0.1,2.2,0.1,4.6,0
			c2.3-0.1,4-0.2,5.1-0.3c0.1,0,0.1-0.1,0.2-0.1c0,0,0.1,0,0.1-0.1c0.1-0.1,0.2-0.1,0.4-0.2c0.3,0,0.7,0,1.3,0.1
			c0.8,0.1,1.2,0.2,1.3,0.4c0.1,0.1,0.1,0.3-0.1,0.5c-0.1,0.1-0.1,0.2-0.1,0.3c-0.1,0.1-0.1,0.2-0.1,0.3c0,5.9,0,9.6-0.1,11.3
			c0,2.3-0.1,4.1-0.3,5.4c-0.3,1.6-0.7,2.4-1.3,2.6c-0.6,0.1-0.9-0.5-0.9-2V35.2C116.3,35.3,115.7,35.3,115.1,35.4z"/>
	</g>
</g>
<g>
	<g>
		<path class="st0" d="M187.4,36.4c-0.6-0.3-1.2-0.6-2-0.8c-0.6-0.1-0.9-0.3-0.9-0.5c-0.1-0.3,0.4-0.5,1.5-0.6
			c0.9,0,1.9,0.1,2.9,0.2c0.9,0.1,1.6,0.2,2.3,0.4c2.5,0,4.8,0,6.8,0c2.1,0,5.1,0,8.9,0c0.3,0,0.6-0.1,0.9-0.2
			c0.1,0,0.3-0.1,0.6-0.3c0.4-0.2,0.9-0.4,1.3-0.5c0.7-0.2,1.7-0.2,2.9-0.2c0.6,0,1,0.1,1.4,0.3c0.3,0.2,0.5,0.4,0.6,0.7
			c0.1,0.3,0,0.5-0.2,0.7c-0.3,0.2-0.6,0.3-1,0.3l-12.2,0l-9.3,0l-0.3,0.1c-0.1,0-0.2,0.1-0.3,0.1c-0.1,0.1-0.1,0.2-0.1,0.4v12.7
			c0,0.5,0.1,0.9,0.4,1.2c0.3,0.3,0.8,0.4,1.5,0.5c3.3,0,5.9,0,7.8,0c1.8,0,3.9,0,6.4-0.1c0.5-0.1,0.9-0.1,1.2-0.3
			c0.2-0.1,0.5-0.2,0.7-0.3c0.4-0.2,0.8-0.4,1.1-0.4c0.6-0.1,1.5-0.1,2.7-0.1c0.7,0,1.3,0.1,1.8,0.3c0.4,0.2,0.6,0.5,0.6,0.8
			c0,0.3-0.1,0.5-0.3,0.8c-0.3,0.3-0.6,0.4-1.1,0.4h-21.5c-1.4,0-2.4-0.3-3.1-0.9c-0.6-0.5-0.9-1.1-0.9-2v-12
			C188.4,37,188,36.7,187.4,36.4z"/>
		<path class="st0" d="M250,35.8c-0.3-0.2-0.9-0.4-1.7-0.7h0c-0.4-0.2-0.6-0.3-0.7-0.5c0-0.2,0.3-0.4,1-0.5c1,0,1.9,0.1,2.6,0.2
			c0.7,0.1,1.1,0.3,1.4,0.4l4.2,0c0.4-0.1,0.8-0.1,1.1-0.3c0.2-0.1,0.4-0.2,0.6-0.3c0.3-0.2,0.5-0.3,0.8-0.3
			c0.4-0.1,0.9-0.2,1.7-0.1c0.6,0,1.1,0.1,1.4,0.3c0.3,0.2,0.5,0.4,0.5,0.7c0,0.3-0.1,0.5-0.3,0.7c-0.3,0.2-0.7,0.3-1.1,0.4
			l-7.5,0.3l-0.3,0.2c-0.1,0.1-0.2,0.1-0.2,0.2c-0.1,0.1-0.1,0.3-0.1,0.5V50c0,0.4,0.1,0.7,0.2,0.8c0.2,0.1,0.6,0.1,1.3,0
			c0.9-0.2,2.5-0.8,4.7-1.6c2.3-0.9,3.9-1.5,4.7-2c0.6-0.3,1-0.3,1-0.1c0.1,0.2-0.2,0.5-0.7,0.8c-1.4,0.9-3.4,2-6.1,3.3
			c-2.8,1.3-4.8,2.1-6,2.3c-0.4,0.1-0.9-0.3-1.3-0.9c-0.3-0.6-0.5-1.1-0.5-1.7l0-13.8C250.8,36.6,250.5,36.1,250,35.8z M266,35.1
			c-0.4-0.3-0.9-0.5-1.3-0.7c-0.5-0.2-0.7-0.4-0.6-0.6c0.1-0.3,0.6-0.4,1.5-0.4c0.8,0.1,1.6,0.3,2.3,0.5c0.7,0.2,1.2,0.4,1.7,0.6
			l4-0.1c0.5-0.1,0.8-0.2,1.1-0.3c0.2-0.1,0.3-0.2,0.5-0.4c0.3-0.2,0.5-0.4,0.8-0.5c0.5-0.1,1.2-0.2,2.3-0.2c0.6,0,1,0.1,1.4,0.3
			c0.3,0.2,0.5,0.4,0.5,0.8c0,0.3-0.1,0.5-0.4,0.7c-0.3,0.3-0.8,0.4-1.4,0.4c-1.1,0.1-2.3,0.2-3.7,0.3c-1.6,0.1-3.1,0.1-4.4,0.2
			l-0.4,0.1c-0.2,0-0.3,0.1-0.4,0.1c-0.1,0.1-0.1,0.3-0.1,0.6v13.1c0,0.5,0.1,0.9,0.2,1c0.2,0.3,0.6,0.4,1.2,0.5h4.7
			c0.6-0.1,1-0.1,1.4-0.3c0.2-0.1,0.4-0.2,0.6-0.3c0.3-0.2,0.6-0.3,0.8-0.4c0.5-0.1,1.3-0.2,2.3-0.1c0.6,0,1,0.1,1.3,0.3
			c0.3,0.2,0.5,0.4,0.5,0.8c0,0.3-0.1,0.5-0.4,0.7c-0.3,0.2-0.7,0.3-1.3,0.4h-11.1c-0.8,0-1.4-0.3-2-0.8c-0.6-0.6-0.9-1.3-0.9-2.3
			l0-13C266.7,35.8,266.5,35.4,266,35.1z"/>
	</g>
</g>
<g>
	<g>
		<path class="st0" d="M115.9,106.6c-0.3-0.2-0.9-0.6-1.8-1.2l-0.5-0.3c-0.4-0.3-0.7-0.5-0.6-0.7c0.1-0.2,0.6-0.3,1.5-0.3
			c0.8,0.2,1.6,0.5,2.3,0.8c0.6,0.3,1.4,0.8,2.6,1.5c0.3,0.3,0.4,0.5,0.4,0.8c0,0.2-0.1,0.4-0.3,0.8l-0.1,0.3
			c-0.3,0.6-0.6,1.1-1,1.7c-0.2,0.4-0.5,0.8-0.8,1.2l4.6,4l1.5,1.3c0.4,0.4,0.9,0.7,1.4,0.9c0.3,0.2,0.7,0.3,1.3,0.5
			c0.9,0.3,1.5,0.7,2,1c0.9,0.6,1.8,1.5,2.8,2.7c0.4,0.5,0.7,1.1,1,1.7c0.2,0.5,0.2,0.9,0.2,1.3c-0.1,0.3-0.2,0.5-0.5,0.5
			c-0.3,0-0.7-0.2-1.2-0.6l-6.3-5.9c-1.7-1.6-2.9-2.7-3.7-3.5c-1.4-1.3-2.5-2.3-3.4-3.1c-2.3,3.5-4.8,6.6-7.7,9.1
			c-2.5,2.3-5.1,4-7.7,5.3c-0.8,0.3-1.2,0.4-1.3,0.3c-0.1-0.2,0.2-0.5,1-1c3.2-1.9,6.2-4.7,9.2-8.3c2.6-3.3,4.6-6.5,5.9-9.8
			C116.6,107.4,116.4,107,115.9,106.6z"/>
		<path class="st0" d="M174.4,106.9c-0.4-0.4-0.9-0.8-1.5-1.1c-0.3-0.1-0.5-0.3-0.4-0.5c0.1-0.2,0.5-0.2,1.2-0.2
			c0.4,0,0.9,0.2,1.7,0.5c0.6,0.3,1.3,0.7,2.1,1.2c0.4,0.2,0.5,0.5,0.3,1c-0.1,0.3-0.5,1.2-1.3,2.5l-1.2,2.1
			c0.6,0.7,1.1,1.3,1.7,1.7c0.3,0.3,0.8,0.5,1.3,0.8c0.6,0.3,1.1,0.6,1.4,0.8c0.5,0.5,0.9,1.3,1.3,2.3c0.3,0.7,0.2,1.3-0.3,1.6
			c-0.4,0.4-0.9,0.2-1.5-0.5l-4.5-5.7c-1.7,2.5-3.2,4.4-4.3,5.7c-1.4,1.6-3.1,2.9-4.9,3.9c-0.7,0.3-1.1,0.4-1.3,0.3
			c-0.2-0.1,0-0.4,0.6-0.8c2.1-1.7,4-3.7,5.6-6.1c1.6-2.3,3-5,4.3-8C174.9,107.9,174.8,107.4,174.4,106.9z M188.4,106.4
			c-0.3-0.4-0.8-0.9-1.5-1.3c-0.4-0.2-0.5-0.4-0.5-0.6c0.1-0.2,0.5-0.2,1.2-0.2c0.3,0,0.8,0.2,1.3,0.4c0.3,0.1,0.7,0.4,1.3,0.7
			l0.5,0.3c0.7,0.3,1.1,0.6,1.2,0.8c0.1,0.1,0,0.4-0.2,0.8l-0.2,0.4l-3,5.7l3.8,4.2c0.3,0.3,0.6,0.6,0.8,0.8
			c0.2,0.1,0.4,0.3,0.8,0.4c0.5,0.3,0.9,0.5,1.2,0.8c0.5,0.5,1,1.3,1.6,2.5c0.3,0.7,0.5,1.3,0.5,1.8c0,0.5-0.1,0.8-0.3,1
			c-0.2,0.2-0.5,0.3-0.8,0.1c-0.4-0.1-0.7-0.5-1-1c-0.7-1-1.7-2.5-3.1-4.3c-0.8-1-1.8-2.4-3.2-4.3l-0.8-1c-1.4,2.2-3,4.4-5,6.6
			c-2.2,2.4-4.2,4.1-6,5.1c-0.6,0.3-1,0.4-1,0.2c0-0.2,0.2-0.5,0.8-0.9c2-1.6,4-3.8,6.1-6.8c2.5-3.5,4.4-7.2,5.8-11
			C188.8,107.3,188.7,106.9,188.4,106.4z"/>
	</g>
</g>
<g>
	<g>
		<path class="st0" d="M274.9,105.8c0.3-0.1,0.6-0.2,1-0.3c0.4-0.2,0.8-0.3,1.2-0.3c0.6-0.1,1.4-0.1,2.4,0c0.7,0.1,1.3,0.2,1.7,0.4
			c0.4,0.2,0.6,0.4,0.7,0.6c0.1,0.3,0,0.5-0.2,0.6c-0.2,0.2-0.5,0.3-0.9,0.3l-11,0c1,0.9,1.5,1.6,1.5,2.2c0,0.4-0.4,1.2-1.2,2.3
			l-0.2,0.4l1.5,1.4c0.9,0.9,1.5,1.5,2,1.9c0.7,0.6,1.4,1.2,2,1.6c0.3,0.2,0.7,0.4,1.1,0.6c0.3,0.1,0.6,0.3,1,0.5
			c0.9,0.4,1.6,0.8,2.1,1.1c0.8,0.6,1.7,1.5,2.6,2.6c0.6,0.8,1,1.4,1.2,1.9c0.1,0.4,0.1,0.7-0.1,1c-0.2,0.2-0.4,0.2-0.8,0.2
			c-0.3-0.1-0.6-0.2-0.8-0.4c-0.8-0.7-1.7-1.5-2.8-2.6c-0.7-0.6-1.7-1.6-3.1-2.9c-1.5-1.4-2.6-2.5-3.3-3.1c-1.2-1.1-2.3-2.1-3.1-2.8
			c-2.2,2.9-4.6,5.4-7.2,7.6c-2.7,2.2-5.2,3.8-7.7,4.8c-0.9,0.3-1.4,0.4-1.4,0.2c-0.1-0.2,0.4-0.5,1.3-1c2.5-1.4,4.9-3.4,7.4-6
			c2.9-3,5-6,6.4-9.1c0.2-0.6,0.2-1.2,0-1.6c-0.2-0.4-0.4-0.7-0.8-0.7l-5,0.2c-0.4,0-0.7,0-1,0.1c-0.2,0.1-0.4,0.1-0.7,0.3
			c-0.4,0.2-0.8,0.3-1.1,0.3c-0.5-0.1-1.3-0.3-2.4-0.9c-0.9-0.4-1.4-0.8-1.4-1c0-0.3,0.5-0.3,1.7-0.2c1.9,0.2,4.3,0.2,7.1,0.2
			c2.5,0,5.5-0.1,8.8-0.3C274,106,274.5,105.9,274.9,105.8z"/>
		<path class="st0" d="M328.8,105.9c0.2-0.1,0.4-0.2,0.6-0.3c0.3-0.2,0.7-0.3,1-0.4c0.5-0.1,1.4-0.1,2.6-0.1c0.5,0,0.9,0.2,1.2,0.4
			c0.3,0.2,0.4,0.4,0.5,0.7c0,0.3-0.1,0.5-0.3,0.6c-0.2,0.2-0.5,0.3-1,0.3c-1.3,0-2.5,0-3.5,0.1c-1.4,0.1-2.6,0.1-3.6,0.2
			c0.4,0.3,0.9,0.6,1.3,1c0.3,0.3,0.7,0.6,1.1,1c0.3,0.3,0.4,0.7,0.2,1.1c-0.2,0.3-0.8,1.2-1.8,2.5l0,0.1l0.6,0.8
			c0.3,0.4,0.5,0.7,0.7,0.9c0.3,0.3,0.5,0.6,0.8,0.9c0.1,0.1,0.3,0.3,0.5,0.5c0.1,0.1,0.3,0.3,0.6,0.5c0.7,0.5,1.2,0.9,1.5,1.3
			c0.6,0.6,1,1.5,1.3,2.5c0.3,1,0.2,1.6-0.3,1.9s-1.1-0.1-1.8-1.2l-0.6-0.9c-0.8-1.3-1.4-2.3-1.9-3.1c-0.8-1.3-1.5-2.3-2.1-3.1
			c-1,1.4-2.2,2.8-3.7,4.2c-2,2-4.2,3.6-6.4,4.8c-0.7,0.3-1.1,0.4-1.2,0.3c-0.2-0.1,0.1-0.5,0.8-1c2.3-1.7,4.3-3.7,6.2-5.9
			c1.9-2.3,3.3-4.4,4.2-6.4c0.1-0.3,0-0.6-0.1-1c-0.2-0.4-0.4-0.9-0.8-1.3c-0.6,0-1,0-1.3,0c-0.4,0.1-0.9,0.1-1.3,0.2
			c-0.2,0-0.3,0-0.5,0.1c-0.1,0-0.2,0.1-0.3,0.2c-0.3,0.1-0.6,0.2-0.9,0.1c-0.4-0.1-1.2-0.5-2.3-1.1c-0.5-0.4-0.8-0.6-0.7-0.8
			c0.1-0.2,0.4-0.2,1.2,0c1,0.2,2.3,0.3,3.8,0.3c1.5,0,3.1,0,4.6-0.2l0.4-0.1C328.1,106.1,328.5,106,328.8,105.9z M344.7,105.8
			c0.2-0.1,0.4-0.2,0.6-0.3c0.3-0.2,0.6-0.3,1-0.4c0.6-0.1,1.4-0.1,2.5-0.1c0.5,0,0.9,0.2,1.2,0.4c0.3,0.2,0.4,0.4,0.5,0.7
			c0,0.3-0.1,0.5-0.3,0.6c-0.2,0.2-0.5,0.3-1,0.3c-1.1,0-2.3,0-3.6,0c-1.4,0.1-2.9,0.1-4.3,0.2l1.1,0.8c0.3,0.3,0.6,0.4,0.8,0.5
			c0.2,0.2,0.4,0.4,0.7,0.6c0.2,0.2,0.3,0.5,0.2,0.8c-0.1,0.2-0.3,0.7-0.8,1.5l-1.1,2.2c0.6,0.7,1.3,1.5,2.1,2.5
			c0.5,0.6,1.1,1.3,1.8,2.2c0.1,0.2,0.3,0.3,0.5,0.5c0.1,0.1,0.3,0.3,0.6,0.5c0.8,0.6,1.3,1.1,1.7,1.5c0.6,0.8,1.1,1.8,1.5,3
			c0.3,1,0.3,1.7-0.1,2c-0.4,0.3-0.9,0-1.6-1l-1.3-2c-1-1.5-1.8-2.8-2.4-3.7c-1.1-1.6-2.1-3.2-3.1-4.6c-1.3,2.3-2.8,4.5-4.8,6.6
			c-2,2.1-4.3,4.1-6.8,5.8c-0.6,0.4-1,0.5-1.1,0.4c-0.1-0.2,0.1-0.5,0.7-1c2.6-2.3,4.7-4.6,6.5-7c2-2.8,3.7-5.8,5-9.1
			c0.1-0.3,0.1-0.7,0-1.2c-0.2-0.6-0.5-1.2-0.9-1.7c-0.2,0-0.4,0-0.6,0.1c-0.1,0.1-0.2,0.1-0.4,0.2c-0.4,0.2-0.8,0.3-1.1,0.3
			c-0.6-0.1-1.3-0.4-2.3-1c-0.5-0.3-0.8-0.6-0.7-0.8c0.1-0.2,0.4-0.2,1.2,0c0.9,0.2,2,0.3,3.1,0.3c0.9,0,2.3-0.1,4.3-0.3
			C344,106,344.4,105.9,344.7,105.8z"/>
	</g>
</g>
<g>
	<g>
		<path class="st0" d="M351.4,34.6c-0.5-0.2-1.1-0.4-1.9-0.6c-0.6-0.1-0.9-0.3-0.8-0.5c0.1-0.3,0.5-0.4,1.3-0.6
			c0.8,0,1.6,0.1,2.4,0.2c0.7,0.1,1.5,0.2,2.3,0.4c0.4,0.1,0.7,0.3,0.8,0.5c0.1,0.1,0,0.4,0,0.8l-0.1,0.8v4.3l15.8-0.4V34
			c-0.1-0.4-0.3-0.8-0.9-1.1c-0.5-0.3-1.2-0.7-2.1-1c-0.6-0.2-0.8-0.4-0.6-0.6c0.1-0.2,0.6-0.3,1.4-0.3c0.6,0.1,1.3,0.2,2.1,0.3
			c0.8,0.1,1.5,0.3,2.3,0.6c0.4,0.1,0.6,0.3,0.7,0.5c0,0.2,0,0.4,0,0.8l-0.1,0.6l-0.1,13.8l0,0c-0.1,1.4-0.1,2.3-0.3,2.9
			c-0.1,0.9-0.4,1.6-0.8,2.2c-0.4,0.4-0.7,0.5-1,0.4c-0.3-0.1-0.5-0.6-0.6-1.5l-16,0.5c-0.3,0.7-0.5,1.3-0.8,1.7
			c-0.2,0.3-0.4,0.6-0.7,0.7c-0.4,0.1-0.6-0.1-0.8-0.4c-0.1-0.3-0.1-0.9-0.1-1.7l-0.2-16.7C352.5,35.3,352.1,34.9,351.4,34.6z
			 M355.5,50.9l15.8-0.4v-9.7L355.5,41V50.9z"/>
		<path class="st0" d="M412.7,35.5c-0.3-0.2-0.9-0.4-1.6-0.8c-0.6-0.2-0.8-0.4-0.6-0.6c0.1-0.2,0.5-0.3,1.3-0.4
			c1.9,0.2,3.1,0.5,3.6,0.7c0.3,0.2,0.5,0.4,0.5,0.8v0.3v4.9l7.4-0.2V35c0-0.3-0.2-0.5-0.5-0.7c-0.3-0.2-0.7-0.5-1.3-0.8
			c-0.4-0.2-0.6-0.4-0.6-0.5c0.1-0.2,0.5-0.3,1.3-0.3c1.7,0.3,2.8,0.6,3.2,0.8c0.3,0.2,0.4,0.5,0.3,0.9l0,0.4v12.1
			c0,1.9-0.1,3.3-0.2,4.2c-0.1,1-0.3,1.8-0.6,2.3c-0.3,0.5-0.6,0.6-0.9,0.4c-0.4-0.3-0.6-0.9-0.6-2l-7.5,0.3c-0.1,0.5-0.3,1-0.5,1.3
			c-0.1,0.3-0.3,0.6-0.5,0.9c-0.4,0.3-0.6,0.2-0.8,0c-0.3-0.4-0.4-1.3-0.4-2.7l-0.1-15.1C413.4,36.1,413.1,35.8,412.7,35.5z
			 M415.8,50.8l7.4-0.2v-9.1l-7.4,0.2V50.8z M430.6,33.8c-0.2-0.2-0.7-0.5-1.3-0.8c-0.6-0.3-0.9-0.5-0.8-0.7
			c0.1-0.2,0.5-0.3,1.1-0.3c1.8,0.2,3,0.5,3.4,0.7c0.3,0.2,0.5,0.5,0.4,0.9v0.3v5.9l7.6-0.2v-5.5c-0.1-0.4-0.2-0.8-0.5-1.1
			c-0.3-0.3-0.7-0.5-1.3-0.8c-0.6-0.3-0.8-0.5-0.8-0.7c0-0.3,0.5-0.3,1.4-0.3c1.8,0.3,2.9,0.7,3.4,1c0.3,0.2,0.4,0.5,0.3,1l0,0.3
			v10.9c0,2.5-0.1,4.3-0.3,5.4c-0.1,0.9-0.3,1.7-0.6,2.4c-0.4,0.6-0.8,0.8-1,0.6c-0.3-0.2-0.5-0.7-0.5-1.6l-7.7,0.2
			c-0.1,0.3-0.3,0.6-0.4,0.8c-0.2,0.3-0.4,0.5-0.6,0.8c-0.4,0.4-0.8,0.4-1,0.2c-0.2-0.3-0.3-1.2-0.3-2.6l-0.2-16
			C430.9,34.3,430.8,34,430.6,33.8z M433.4,50.3L441,50v-9.2l-7.6,0.2V50.3z"/>
	</g>
</g>
<polygon class="st1" points="67.7,38.2 72.6,43.1 67.7,48 "/>
<polygon class="st1" points="230.7,38.2 235.6,43.1 230.7,48 "/>
<polygon class="st1" points="146.7,109.2 151.6,114.1 146.7,119 "/>
<polygon class="st1" points="298.7,109.2 303.6,114.1 298.7,119 "/>
<polygon class="st1" points="392.7,38.2 397.6,43.1 392.7,48 "/>
</svg>
