<?xml version="1.0" encoding="utf-8"?>
<!-- Generator: Adobe Illustrator 22.0.0, SVG Export Plug-In . SVG Version: 6.00 Build 0)  -->
<svg version="1.1" id="Layer_1" xmlns="http://www.w3.org/2000/svg" xmlns:xlink="http://www.w3.org/1999/xlink" x="0px" y="0px"
	 viewBox="0 0 499.6 141" style="enable-background:new 0 0 499.6 141;" xml:space="preserve">
<style type="text/css">
	.st0{opacity:0.35;fill:#3AB530;enable-background:new    ;}
	.st1{opacity:0.65;fill:#3AB530;enable-background:new    ;}
	.st2{opacity:0.35;fill:#1D7FB3;enable-background:new    ;}
	.st3{opacity:0.65;fill:#1D7FB3;enable-background:new    ;}
	.st4{fill:#FFFFFF;}
	.st5{enable-background:new    ;}
	.st6{fill:#3AB530;}
	.st7{fill:#1D7FB3;}
</style>
<circle class="st0" cx="85.7" cy="52.7" r="35.7"/>
<circle class="st1" cx="195.2" cy="52.7" r="35.7"/>
<circle class="st2" cx="304.8" cy="52.7" r="35.7"/>
<circle class="st3" cx="414.3" cy="52.7" r="35.7"/>
<g>
	<path class="st4" d="M74.4,65.8h-3.3V44.4L66,44.5V42l8.4-0.9V65.8z"/>
	<path class="st4" d="M100.1,56.4c0,3.2-0.7,5.6-2.1,7.2s-3.3,2.5-5.7,2.5c-2.4,0-4.4-0.8-5.8-2.5s-2.1-4.1-2.1-7.2v-5.8
		c0-3.1,0.7-5.6,2.1-7.2c1.4-1.7,3.3-2.5,5.7-2.5c2.4,0,4.3,0.8,5.8,2.5c1.4,1.7,2.1,4.1,2.1,7.2V56.4z M96.7,49.8
		c0-2.1-0.4-3.7-1.2-4.8s-1.9-1.6-3.4-1.6s-2.6,0.5-3.4,1.6s-1.2,2.7-1.2,4.8V57c0,2.1,0.4,3.7,1.2,4.8c0.8,1.1,1.9,1.6,3.4,1.6
		s2.6-0.5,3.3-1.6c0.8-1.1,1.1-2.7,1.1-4.8v-7.2H96.7z"/>
</g>
<g>
	<path class="st4" d="M187.4,65.8h-3.3V44.4l-5.1,0.1V42l8.4-0.9L187.4,65.8L187.4,65.8z"/>
	<path class="st4" d="M207,65.8h-3.3V44.4l-5.1,0.1V42l8.4-0.9L207,65.8L207,65.8z"/>
</g>
<g>
	<path class="st4" d="M292.4,65.8h-3.3V44.4l-5.1,0.1V42l8.4-0.9V65.8z"/>
	<path class="st4" d="M315.8,57.5h3.4v2.6h-3.4v5.7h-3.3v-5.7h-11.1v-1.9l10.9-17.1h3.5V57.5z M304.9,57.5h7.5V45.9h-0.1l-0.3,0.8
		L304.9,57.5z"/>
</g>
<g>
	<path class="st4" d="M406.9,54.6l1.4-13.5h12.4v3h-9.5l-0.8,6.9c0.5-0.4,1.1-0.7,1.7-1s1.4-0.4,2.2-0.4c2.3,0,4.1,0.7,5.4,2.2
		s2,3.5,2,6.1c0,2.5-0.7,4.5-2,6c-1.3,1.5-3.3,2.3-5.8,2.3c-2.1,0-3.8-0.6-5.2-1.7c-1.4-1.1-2.1-2.8-2-5v-0.1h3
		c0,1.3,0.4,2.4,1.2,3.1s1.8,1.1,3,1.1c1.4,0,2.5-0.5,3.3-1.5s1.2-2.4,1.2-4.1c0-1.6-0.4-2.9-1.2-3.9s-1.9-1.5-3.3-1.5
		c-1.3,0-2.3,0.2-2.8,0.6c-0.6,0.4-1,1-1.3,1.8L406.9,54.6z"/>
</g>
<g class="st5">
	<path class="st6" d="M72.5,108.6c0-0.3-0.1-0.5-0.3-0.6s-0.6-0.3-1.1-0.4c-0.8-0.2-1.3-0.4-1.7-0.7c-0.4-0.3-0.6-0.7-0.6-1.2
		c0-0.5,0.2-1,0.7-1.3c0.4-0.4,1-0.5,1.7-0.5c0.7,0,1.3,0.2,1.8,0.6s0.6,0.8,0.6,1.4l0,0h-1.1c0-0.3-0.1-0.5-0.3-0.7
		s-0.5-0.3-0.9-0.3c-0.4,0-0.7,0.1-0.9,0.3s-0.3,0.4-0.3,0.7c0,0.3,0.1,0.4,0.3,0.6s0.5,0.3,1.1,0.4c0.8,0.2,1.4,0.4,1.8,0.7
		s0.6,0.7,0.6,1.2c0,0.6-0.2,1-0.7,1.4s-1,0.5-1.8,0.5c-0.8,0-1.4-0.2-1.9-0.6s-0.7-0.9-0.7-1.4l0,0h1.1c0,0.4,0.2,0.7,0.5,0.9
		c0.3,0.2,0.6,0.3,1,0.3c0.4,0,0.7-0.1,1-0.2S72.5,108.9,72.5,108.6z"/>
	<path class="st6" d="M76.4,102.3h-1.2v-1.2h1.2V102.3z M76.4,110.3h-1.2V104h1.2V110.3z"/>
	<path class="st6" d="M79.2,104l0.1,0.8c0.2-0.3,0.5-0.5,0.8-0.7s0.7-0.2,1.1-0.2s0.8,0.1,1.1,0.3s0.5,0.5,0.7,0.9
		c0.2-0.4,0.5-0.6,0.8-0.9s0.7-0.3,1.1-0.3c0.6,0,1.2,0.2,1.5,0.7s0.6,1.1,0.6,2v3.8h-1.2v-3.8c0-0.6-0.1-1.1-0.3-1.3
		s-0.5-0.4-1-0.4c-0.4,0-0.7,0.1-1,0.4s-0.4,0.6-0.4,1v0v4H82v-3.8c0-0.6-0.1-1-0.3-1.3s-0.5-0.4-1-0.4c-0.4,0-0.6,0.1-0.9,0.2
		s-0.4,0.3-0.5,0.6v4.7h-1.2V104H79.2z"/>
	<path class="st6" d="M94,107.4c0,0.9-0.2,1.7-0.7,2.2s-1,0.8-1.8,0.8c-0.4,0-0.7-0.1-1-0.2s-0.5-0.3-0.8-0.6v3.1h-1.2V104h0.9
		l0.2,0.8c0.2-0.3,0.5-0.5,0.8-0.7s0.7-0.2,1.1-0.2c0.8,0,1.4,0.3,1.8,0.9s0.7,1.4,0.7,2.5V107.4z M92.9,107.2
		c0-0.7-0.1-1.3-0.4-1.8c-0.3-0.5-0.7-0.7-1.3-0.7c-0.3,0-0.6,0.1-0.8,0.2s-0.4,0.4-0.6,0.6v3.1c0.1,0.3,0.3,0.5,0.6,0.6
		s0.5,0.2,0.9,0.2c0.5,0,1-0.2,1.2-0.6c0.3-0.4,0.4-0.9,0.4-1.5V107.2z"/>
	<path class="st6" d="M96.7,110.3h-1.2v-9.1h1.2V110.3z"/>
	<path class="st6" d="M101.1,110.4c-0.9,0-1.6-0.3-2.1-0.9s-0.8-1.4-0.8-2.3V107c0-0.9,0.3-1.7,0.8-2.3s1.2-0.9,1.9-0.9
		c0.9,0,1.5,0.3,1.9,0.8s0.7,1.2,0.7,2.1v0.7h-4.1l0,0c0,0.6,0.2,1.1,0.5,1.5s0.7,0.6,1.2,0.6c0.4,0,0.7-0.1,1-0.2s0.5-0.3,0.8-0.5
		l0.5,0.8c-0.2,0.2-0.5,0.4-0.9,0.6C102.1,110.3,101.6,110.4,101.1,110.4z M100.9,104.8c-0.4,0-0.7,0.2-1,0.5s-0.4,0.7-0.5,1.2l0,0
		h2.9v-0.2c0-0.5-0.1-0.8-0.4-1.1C101.8,104.9,101.4,104.8,100.9,104.8z"/>
</g>
<g class="st5">
	<path class="st6" d="M71,122.8l0.1,0.4h0l0.1-0.4l1.5-4.5h1.2l-2.3,6.3h-0.9l-2.4-6.3h1.2L71,122.8z"/>
	<path class="st6" d="M74.5,121.5c0-0.9,0.3-1.7,0.8-2.3s1.2-0.9,2.1-0.9c0.9,0,1.6,0.3,2.1,0.9s0.8,1.4,0.8,2.3v0.1
		c0,0.9-0.3,1.7-0.8,2.3s-1.2,0.9-2.1,0.9s-1.6-0.3-2.1-0.9s-0.8-1.4-0.8-2.3V121.5z M75.7,121.6c0,0.7,0.1,1.2,0.4,1.7
		c0.3,0.4,0.7,0.7,1.3,0.7c0.6,0,1-0.2,1.3-0.7c0.3-0.4,0.4-1,0.4-1.7v-0.1c0-0.7-0.1-1.2-0.4-1.7c-0.3-0.4-0.7-0.7-1.3-0.7
		c-0.6,0-1,0.2-1.3,0.7c-0.3,0.4-0.4,1-0.4,1.7V121.6z"/>
	<path class="st6" d="M83.2,122.4l0.1,0.8h0l0.2-0.8l1.3-4h0.9l1.3,4l0.2,0.9h0l0.2-0.9l1-4h1.1l-1.8,6.3h-0.9l-1.2-3.9l-0.3-1.1
		l0,0l-0.3,1.1l-1.2,3.9h-0.9l-1.8-6.3h1.1L83.2,122.4z"/>
	<path class="st6" d="M93.3,124.8c-0.9,0-1.6-0.3-2.1-0.9s-0.8-1.4-0.8-2.3v-0.3c0-0.9,0.3-1.7,0.8-2.3s1.2-0.9,1.9-0.9
		c0.9,0,1.5,0.3,1.9,0.8s0.7,1.2,0.7,2.1v0.7h-4.1l0,0c0,0.6,0.2,1.1,0.5,1.5s0.7,0.6,1.2,0.6c0.4,0,0.7-0.1,1-0.2s0.5-0.3,0.8-0.5
		l0.5,0.8c-0.2,0.2-0.5,0.4-0.9,0.6C94.3,124.7,93.8,124.8,93.3,124.8z M93.1,119.2c-0.4,0-0.7,0.2-1,0.5s-0.4,0.7-0.5,1.2l0,0h2.9
		v-0.2c0-0.5-0.1-0.8-0.4-1.1C94,119.3,93.6,119.2,93.1,119.2z"/>
	<path class="st6" d="M98.3,124.7h-1.2v-9.1h1.2V124.7z"/>
	<path class="st6" d="M103.7,123c0-0.3-0.1-0.5-0.3-0.6s-0.6-0.3-1.1-0.4c-0.8-0.2-1.3-0.4-1.7-0.7c-0.4-0.3-0.6-0.7-0.6-1.2
		c0-0.5,0.2-1,0.7-1.3c0.4-0.4,1-0.5,1.7-0.5c0.7,0,1.3,0.2,1.8,0.6s0.6,0.8,0.6,1.4l0,0h-1.1c0-0.3-0.1-0.5-0.3-0.7
		s-0.5-0.3-0.9-0.3c-0.4,0-0.7,0.1-0.9,0.3s-0.3,0.4-0.3,0.7c0,0.3,0.1,0.4,0.3,0.6s0.5,0.3,1.1,0.4c0.8,0.2,1.4,0.4,1.8,0.7
		s0.6,0.7,0.6,1.2c0,0.6-0.2,1-0.7,1.4s-1,0.5-1.8,0.5c-0.8,0-1.4-0.2-1.9-0.6s-0.7-0.9-0.7-1.4l0,0h1.1c0,0.4,0.2,0.7,0.5,0.9
		c0.3,0.2,0.6,0.3,1,0.3c0.4,0,0.7-0.1,1-0.2S103.7,123.3,103.7,123z"/>
</g>
<g class="st5">
	<path class="st6" d="M165.2,107.2c0-1,0.2-1.8,0.7-2.5s1-0.9,1.8-0.9c0.4,0,0.7,0.1,1,0.2s0.5,0.3,0.7,0.6v-3.5h1.2v9.1h-0.9
		l-0.1-0.8c-0.2,0.3-0.5,0.5-0.8,0.7s-0.7,0.2-1,0.2c-0.8,0-1.4-0.3-1.8-0.8s-0.7-1.3-0.7-2.2V107.2z M166.3,107.4
		c0,0.6,0.1,1.2,0.4,1.5s0.7,0.6,1.2,0.6c0.3,0,0.6-0.1,0.9-0.2s0.4-0.4,0.6-0.7v-3c-0.1-0.3-0.3-0.5-0.6-0.6s-0.5-0.2-0.9-0.2
		c-0.6,0-1,0.2-1.2,0.7s-0.4,1.1-0.4,1.8V107.4z"/>
	<path class="st6" d="M173.5,102.3h-1.2v-1.2h1.2V102.3z M173.5,110.3h-1.2V104h1.2V110.3z"/>
	<path class="st6" d="M180.7,107.4c0,0.9-0.2,1.7-0.7,2.2s-1,0.8-1.8,0.8c-0.4,0-0.7-0.1-1-0.2s-0.5-0.3-0.8-0.6v3.1h-1.2V104h0.9
		l0.2,0.8c0.2-0.3,0.5-0.5,0.8-0.7s0.7-0.2,1.1-0.2c0.8,0,1.4,0.3,1.8,0.9s0.7,1.4,0.7,2.5V107.4z M179.5,107.2
		c0-0.7-0.1-1.3-0.4-1.8c-0.3-0.5-0.7-0.7-1.3-0.7c-0.3,0-0.6,0.1-0.8,0.2s-0.4,0.4-0.6,0.6v3.1c0.1,0.3,0.3,0.5,0.6,0.6
		s0.5,0.2,0.9,0.2c0.5,0,1-0.2,1.2-0.6c0.3-0.4,0.4-0.9,0.4-1.5V107.2z"/>
	<path class="st6" d="M183.3,104.8c0.2-0.3,0.5-0.5,0.8-0.7s0.7-0.3,1.1-0.3c0.7,0,1.2,0.2,1.6,0.6s0.6,1,0.6,1.9v4h-1.2v-4
		c0-0.5-0.1-0.9-0.3-1.2s-0.6-0.4-1-0.4c-0.3,0-0.6,0.1-0.9,0.2s-0.5,0.4-0.6,0.6v4.7h-1.2v-9.1h1.2V104.8z"/>
	<path class="st6" d="M190.5,102.4v1.5h1.2v0.9h-1.2v3.8c0,0.3,0.1,0.5,0.2,0.6s0.3,0.2,0.5,0.2c0.1,0,0.1,0,0.2,0s0.2,0,0.2-0.1
		l0.2,0.8c-0.1,0.1-0.2,0.1-0.4,0.2s-0.3,0.1-0.5,0.1c-0.5,0-0.8-0.1-1.1-0.4s-0.4-0.7-0.4-1.3v-3.8h-1V104h1v-1.5H190.5z"/>
	<path class="st6" d="M194.2,104.8c0.2-0.3,0.5-0.5,0.8-0.7s0.7-0.3,1.1-0.3c0.7,0,1.2,0.2,1.6,0.6s0.6,1,0.6,1.9v4h-1.2v-4
		c0-0.5-0.1-0.9-0.3-1.2s-0.6-0.4-1-0.4c-0.3,0-0.6,0.1-0.9,0.2s-0.5,0.4-0.6,0.6v4.7h-1.2v-9.1h1.2V104.8z"/>
	<path class="st6" d="M199.6,107.1c0-0.9,0.3-1.7,0.8-2.3s1.2-0.9,2.1-0.9c0.9,0,1.6,0.3,2.1,0.9s0.8,1.4,0.8,2.3v0.1
		c0,0.9-0.3,1.7-0.8,2.3s-1.2,0.9-2.1,0.9s-1.6-0.3-2.1-0.9s-0.8-1.4-0.8-2.3V107.1z M200.8,107.2c0,0.7,0.1,1.2,0.4,1.7
		c0.3,0.4,0.7,0.7,1.3,0.7c0.6,0,1-0.2,1.3-0.7c0.3-0.4,0.4-1,0.4-1.7v-0.1c0-0.7-0.1-1.2-0.4-1.7c-0.3-0.4-0.7-0.7-1.3-0.7
		c-0.6,0-1,0.2-1.3,0.7c-0.3,0.4-0.4,1-0.4,1.7V107.2z"/>
	<path class="st6" d="M207.7,104l0.1,0.9c0.2-0.3,0.5-0.6,0.8-0.8s0.7-0.3,1.1-0.3c0.7,0,1.2,0.2,1.6,0.6s0.6,1,0.6,1.9v4h-1.2v-4
		c0-0.6-0.1-1-0.3-1.2s-0.6-0.4-1-0.4c-0.3,0-0.6,0.1-0.9,0.2s-0.5,0.4-0.6,0.7v4.6h-1.2V104H207.7z"/>
	<path class="st6" d="M213.3,107.2c0-1,0.2-1.8,0.7-2.5s1.1-0.9,1.8-0.9c0.4,0,0.8,0.1,1.1,0.2s0.6,0.4,0.8,0.7l0.1-0.8h0.9v6.4
		c0,0.8-0.2,1.4-0.7,1.9s-1.2,0.7-2,0.7c-0.3,0-0.6,0-1-0.1s-0.7-0.2-0.9-0.3l0.3-0.9c0.2,0.1,0.5,0.2,0.8,0.3s0.6,0.1,0.9,0.1
		c0.6,0,1-0.1,1.2-0.4s0.4-0.6,0.4-1.2v-0.7c-0.2,0.3-0.5,0.5-0.7,0.6s-0.6,0.2-1,0.2c-0.8,0-1.4-0.3-1.8-0.8s-0.7-1.3-0.7-2.2
		V107.2z M214.4,107.4c0,0.6,0.1,1.1,0.4,1.5s0.7,0.6,1.2,0.6c0.3,0,0.6-0.1,0.9-0.2s0.4-0.4,0.6-0.7v-2.9c-0.1-0.3-0.3-0.5-0.6-0.6
		s-0.5-0.2-0.9-0.2c-0.6,0-1,0.2-1.2,0.7s-0.4,1.1-0.4,1.8V107.4z"/>
	<path class="st6" d="M224,108.6c0-0.3-0.1-0.5-0.3-0.6s-0.6-0.3-1.1-0.4c-0.8-0.2-1.3-0.4-1.7-0.7c-0.4-0.3-0.6-0.7-0.6-1.2
		c0-0.5,0.2-1,0.7-1.3c0.4-0.4,1-0.5,1.7-0.5c0.7,0,1.3,0.2,1.8,0.6s0.6,0.8,0.6,1.4l0,0H224c0-0.3-0.1-0.5-0.3-0.7
		s-0.5-0.3-0.9-0.3c-0.4,0-0.7,0.1-0.9,0.3s-0.3,0.4-0.3,0.7c0,0.3,0.1,0.4,0.3,0.6s0.5,0.3,1.1,0.4c0.8,0.2,1.4,0.4,1.8,0.7
		s0.6,0.7,0.6,1.2c0,0.6-0.2,1-0.7,1.4s-1,0.5-1.8,0.5c-0.8,0-1.4-0.2-1.9-0.6s-0.7-0.9-0.7-1.4l0,0h1.1c0,0.4,0.2,0.7,0.5,0.9
		c0.3,0.2,0.6,0.3,1,0.3c0.4,0,0.7-0.1,1-0.2S224,108.9,224,108.6z"/>
</g>
<g class="st5">
	<path class="st6" d="M145,121.2c0-1.5,0.3-2.9,0.9-3.9s1.3-1.8,2-2.2l0,0l0.2,0.7c-0.5,0.4-1,1.1-1.4,2s-0.6,2.1-0.6,3.4v0.1
		c0,1.4,0.2,2.5,0.6,3.4s0.9,1.6,1.4,2.1l-0.2,0.6h0c-0.7-0.4-1.3-1.1-2-2.2S145,122.8,145,121.2L145,121.2z"/>
	<path class="st6" d="M151.6,123.9c0.4,0,0.7-0.1,1-0.4s0.4-0.5,0.4-0.9h1l0,0c0,0.5-0.2,1-0.7,1.5s-1.1,0.6-1.8,0.6
		c-0.9,0-1.6-0.3-2.1-0.9s-0.7-1.4-0.7-2.3v-0.2c0-0.9,0.2-1.7,0.7-2.3s1.2-0.9,2.1-0.9c0.7,0,1.3,0.2,1.8,0.7s0.7,1,0.7,1.6l0,0h-1
		c0-0.4-0.1-0.7-0.4-1s-0.6-0.4-1-0.4c-0.6,0-1,0.2-1.3,0.7c-0.3,0.4-0.4,1-0.4,1.6v0.2c0,0.6,0.1,1.2,0.4,1.6
		C150.6,123.7,151,123.9,151.6,123.9z"/>
	<path class="st6" d="M155.1,121.5c0-0.9,0.3-1.7,0.8-2.3s1.2-0.9,2.1-0.9c0.9,0,1.6,0.3,2.1,0.9s0.8,1.4,0.8,2.3v0.1
		c0,0.9-0.3,1.7-0.8,2.3s-1.2,0.9-2.1,0.9s-1.6-0.3-2.1-0.9s-0.8-1.4-0.8-2.3V121.5z M156.3,121.6c0,0.7,0.1,1.2,0.4,1.7
		c0.3,0.4,0.7,0.7,1.3,0.7c0.6,0,1-0.2,1.3-0.7c0.3-0.4,0.4-1,0.4-1.7v-0.1c0-0.7-0.1-1.2-0.4-1.7c-0.3-0.4-0.7-0.7-1.3-0.7
		c-0.6,0-1,0.2-1.3,0.7c-0.3,0.4-0.4,1-0.4,1.7V121.6z"/>
	<path class="st6" d="M163.2,118.4l0.1,0.8c0.2-0.3,0.5-0.5,0.8-0.7s0.7-0.2,1.1-0.2s0.8,0.1,1.1,0.3s0.5,0.5,0.7,0.9
		c0.2-0.4,0.5-0.6,0.8-0.9s0.7-0.3,1.1-0.3c0.6,0,1.2,0.2,1.5,0.7s0.6,1.1,0.6,2v3.8h-1.2v-3.8c0-0.6-0.1-1.1-0.3-1.3
		s-0.5-0.4-1-0.4c-0.4,0-0.7,0.1-1,0.4s-0.4,0.6-0.4,1v0v4H166v-3.8c0-0.6-0.1-1-0.3-1.3s-0.5-0.4-1-0.4c-0.4,0-0.6,0.1-0.9,0.2
		s-0.4,0.3-0.5,0.6v4.7h-1.2v-6.3H163.2z"/>
	<path class="st6" d="M178.1,121.8c0,0.9-0.2,1.7-0.7,2.2s-1,0.8-1.8,0.8c-0.4,0-0.8-0.1-1.1-0.2s-0.6-0.4-0.8-0.7l-0.1,0.8h-0.9
		v-9.1h1.2v3.6c0.2-0.3,0.4-0.5,0.7-0.6s0.6-0.2,1-0.2c0.8,0,1.4,0.3,1.8,0.9s0.7,1.4,0.7,2.5V121.8z M177,121.6
		c0-0.7-0.1-1.3-0.4-1.8s-0.7-0.7-1.2-0.7c-0.4,0-0.7,0.1-0.9,0.3s-0.4,0.4-0.6,0.7v2.7c0.1,0.3,0.3,0.6,0.6,0.7s0.5,0.3,0.9,0.3
		c0.5,0,0.9-0.2,1.2-0.6s0.4-0.9,0.4-1.5V121.6z"/>
	<path class="st6" d="M180.8,116.7h-1.2v-1.2h1.2V116.7z M180.8,124.7h-1.2v-6.3h1.2V124.7z"/>
	<path class="st6" d="M183.6,118.4l0.1,0.9c0.2-0.3,0.5-0.6,0.8-0.8s0.7-0.3,1.1-0.3c0.7,0,1.2,0.2,1.6,0.6s0.6,1,0.6,1.9v4h-1.2v-4
		c0-0.6-0.1-1-0.3-1.2s-0.6-0.4-1-0.4c-0.3,0-0.6,0.1-0.9,0.2s-0.5,0.4-0.6,0.7v4.6h-1.2v-6.3H183.6z"/>
	<path class="st6" d="M192,124.8c-0.9,0-1.6-0.3-2.1-0.9s-0.8-1.4-0.8-2.3v-0.3c0-0.9,0.3-1.7,0.8-2.3s1.2-0.9,1.9-0.9
		c0.9,0,1.5,0.3,1.9,0.8s0.7,1.2,0.7,2.1v0.7h-4.1l0,0c0,0.6,0.2,1.1,0.5,1.5s0.7,0.6,1.2,0.6c0.4,0,0.7-0.1,1-0.2s0.5-0.3,0.8-0.5
		l0.5,0.8c-0.2,0.2-0.5,0.4-0.9,0.6C193,124.7,192.5,124.8,192,124.8z M191.8,119.2c-0.4,0-0.7,0.2-1,0.5s-0.4,0.7-0.5,1.2l0,0h2.9
		v-0.2c0-0.5-0.1-0.8-0.4-1.1C192.7,119.3,192.3,119.2,191.8,119.2z"/>
	<path class="st6" d="M195.4,121.6c0-1,0.2-1.8,0.7-2.5s1-0.9,1.8-0.9c0.4,0,0.7,0.1,1,0.2s0.5,0.3,0.7,0.6v-3.5h1.2v9.1h-0.9
		l-0.1-0.8c-0.2,0.3-0.5,0.5-0.8,0.7s-0.7,0.2-1,0.2c-0.8,0-1.4-0.3-1.8-0.8s-0.7-1.3-0.7-2.2V121.6z M196.6,121.8
		c0,0.6,0.1,1.2,0.4,1.5s0.7,0.6,1.2,0.6c0.3,0,0.6-0.1,0.9-0.2s0.4-0.4,0.6-0.7v-3c-0.1-0.3-0.3-0.5-0.6-0.6s-0.5-0.2-0.9-0.2
		c-0.6,0-1,0.2-1.2,0.7s-0.4,1.1-0.4,1.8V121.8z"/>
	<path class="st6" d="M207.6,122.8l0.1,0.4h0l0.1-0.4l1.5-4.5h1.2l-2.3,6.3h-0.9l-2.4-6.3h1.2L207.6,122.8z"/>
	<path class="st6" d="M211.2,121.5c0-0.9,0.3-1.7,0.8-2.3s1.2-0.9,2.1-0.9c0.9,0,1.6,0.3,2.1,0.9s0.8,1.4,0.8,2.3v0.1
		c0,0.9-0.3,1.7-0.8,2.3s-1.2,0.9-2.1,0.9s-1.6-0.3-2.1-0.9s-0.8-1.4-0.8-2.3V121.5z M212.3,121.6c0,0.7,0.1,1.2,0.4,1.7
		c0.3,0.4,0.7,0.7,1.3,0.7c0.6,0,1-0.2,1.3-0.7c0.3-0.4,0.4-1,0.4-1.7v-0.1c0-0.7-0.1-1.2-0.4-1.7c-0.3-0.4-0.7-0.7-1.3-0.7
		c-0.6,0-1,0.2-1.3,0.7c-0.3,0.4-0.4,1-0.4,1.7V121.6z"/>
	<path class="st6" d="M219.9,122.4l0.1,0.8h0l0.2-0.8l1.3-4h0.9l1.3,4l0.2,0.9h0l0.2-0.9l1-4h1.1l-1.8,6.3h-0.9l-1.2-3.9l-0.3-1.1
		l0,0l-0.3,1.1l-1.2,3.9h-0.9l-1.8-6.3h1.1L219.9,122.4z"/>
	<path class="st6" d="M230,124.8c-0.9,0-1.6-0.3-2.1-0.9s-0.8-1.4-0.8-2.3v-0.3c0-0.9,0.3-1.7,0.8-2.3s1.2-0.9,1.9-0.9
		c0.9,0,1.5,0.3,1.9,0.8s0.7,1.2,0.7,2.1v0.7h-4.1l0,0c0,0.6,0.2,1.1,0.5,1.5s0.7,0.6,1.2,0.6c0.4,0,0.7-0.1,1-0.2s0.5-0.3,0.8-0.5
		l0.5,0.8c-0.2,0.2-0.5,0.4-0.9,0.6C231,124.7,230.5,124.8,230,124.8z M229.8,119.2c-0.4,0-0.7,0.2-1,0.5s-0.4,0.7-0.5,1.2l0,0h2.9
		v-0.2c0-0.5-0.1-0.8-0.4-1.1C230.7,119.3,230.3,119.2,229.8,119.2z"/>
	<path class="st6" d="M235,124.7h-1.2v-9.1h1.2V124.7z"/>
	<path class="st6" d="M240.4,123c0-0.3-0.1-0.5-0.3-0.6s-0.6-0.3-1.1-0.4c-0.8-0.2-1.3-0.4-1.7-0.7c-0.4-0.3-0.6-0.7-0.6-1.2
		c0-0.5,0.2-1,0.7-1.3c0.4-0.4,1-0.5,1.7-0.5c0.7,0,1.3,0.2,1.8,0.6s0.6,0.8,0.6,1.4l0,0h-1.1c0-0.3-0.1-0.5-0.3-0.7
		s-0.5-0.3-0.9-0.3c-0.4,0-0.7,0.1-0.9,0.3s-0.3,0.4-0.3,0.7c0,0.3,0.1,0.4,0.3,0.6s0.5,0.3,1.1,0.4c0.8,0.2,1.4,0.4,1.8,0.7
		s0.6,0.7,0.6,1.2c0,0.6-0.2,1-0.7,1.4s-1,0.5-1.8,0.5c-0.8,0-1.4-0.2-1.9-0.6s-0.7-0.9-0.7-1.4l0,0h1.1c0,0.4,0.2,0.7,0.5,0.9
		c0.3,0.2,0.6,0.3,1,0.3c0.4,0,0.7-0.1,1-0.2S240.4,123.3,240.4,123z"/>
	<path class="st6" d="M245.3,121.3c0,1.5-0.3,2.9-0.9,3.9s-1.3,1.8-2,2.2h0l-0.2-0.6c0.5-0.4,1-1.1,1.4-2s0.6-2.1,0.6-3.5v-0.1
		c0-1.3-0.2-2.5-0.6-3.4s-0.9-1.6-1.4-2.1l0.2-0.6h0c0.7,0.4,1.3,1.1,2,2.2S245.3,119.7,245.3,121.3L245.3,121.3z"/>
</g>
<g class="st5">
	<path class="st7" d="M292.2,108.6c0-0.3-0.1-0.5-0.3-0.6s-0.6-0.3-1.1-0.4c-0.8-0.2-1.3-0.4-1.7-0.7c-0.4-0.3-0.6-0.7-0.6-1.2
		c0-0.5,0.2-1,0.7-1.3c0.4-0.4,1-0.5,1.7-0.5c0.7,0,1.3,0.2,1.8,0.6s0.6,0.8,0.6,1.4l0,0h-1.1c0-0.3-0.1-0.5-0.3-0.7
		s-0.5-0.3-0.9-0.3c-0.4,0-0.7,0.1-0.9,0.3s-0.3,0.4-0.3,0.7c0,0.3,0.1,0.4,0.3,0.6s0.5,0.3,1.1,0.4c0.8,0.2,1.4,0.4,1.8,0.7
		s0.6,0.7,0.6,1.2c0,0.6-0.2,1-0.7,1.4s-1,0.5-1.8,0.5c-0.8,0-1.4-0.2-1.9-0.6s-0.7-0.9-0.7-1.4l0,0h1.1c0,0.4,0.2,0.7,0.5,0.9
		c0.3,0.2,0.6,0.3,1,0.3c0.4,0,0.7-0.1,1-0.2S292.2,108.9,292.2,108.6z"/>
	<path class="st7" d="M296.1,102.3h-1.2v-1.2h1.2V102.3z M296.1,110.3h-1.2V104h1.2V110.3z"/>
	<path class="st7" d="M298.9,104l0.1,0.8c0.2-0.3,0.5-0.5,0.8-0.7s0.7-0.2,1.1-0.2s0.8,0.1,1.1,0.3s0.5,0.5,0.7,0.9
		c0.2-0.4,0.5-0.6,0.8-0.9s0.7-0.3,1.1-0.3c0.6,0,1.2,0.2,1.5,0.7s0.6,1.1,0.6,2v3.8h-1.2v-3.8c0-0.6-0.1-1.1-0.3-1.3
		s-0.5-0.4-1-0.4c-0.4,0-0.7,0.1-1,0.4s-0.4,0.6-0.4,1v0v4h-1.2v-3.8c0-0.6-0.1-1-0.3-1.3s-0.5-0.4-1-0.4c-0.4,0-0.6,0.1-0.9,0.2
		s-0.4,0.3-0.5,0.6v4.7h-1.2V104H298.9z"/>
	<path class="st7" d="M313.7,107.4c0,0.9-0.2,1.7-0.7,2.2s-1,0.8-1.8,0.8c-0.4,0-0.7-0.1-1-0.2s-0.5-0.3-0.8-0.6v3.1h-1.2V104h0.9
		l0.2,0.8c0.2-0.3,0.5-0.5,0.8-0.7s0.7-0.2,1.1-0.2c0.8,0,1.4,0.3,1.8,0.9s0.7,1.4,0.7,2.5V107.4z M312.6,107.2
		c0-0.7-0.1-1.3-0.4-1.8c-0.3-0.5-0.7-0.7-1.3-0.7c-0.3,0-0.6,0.1-0.8,0.2s-0.4,0.4-0.6,0.6v3.1c0.1,0.3,0.3,0.5,0.6,0.6
		s0.5,0.2,0.9,0.2c0.5,0,1-0.2,1.2-0.6c0.3-0.4,0.4-0.9,0.4-1.5V107.2z"/>
	<path class="st7" d="M316.4,110.3h-1.2v-9.1h1.2V110.3z"/>
	<path class="st7" d="M320.8,110.4c-0.9,0-1.6-0.3-2.1-0.9s-0.8-1.4-0.8-2.3V107c0-0.9,0.3-1.7,0.8-2.3s1.2-0.9,1.9-0.9
		c0.9,0,1.5,0.3,1.9,0.8s0.7,1.2,0.7,2.1v0.7h-4.1l0,0c0,0.6,0.2,1.1,0.5,1.5s0.7,0.6,1.2,0.6c0.4,0,0.7-0.1,1-0.2s0.5-0.3,0.8-0.5
		l0.5,0.8c-0.2,0.2-0.5,0.4-0.9,0.6C321.8,110.3,321.3,110.4,320.8,110.4z M320.6,104.8c-0.4,0-0.7,0.2-1,0.5s-0.4,0.7-0.5,1.2l0,0
		h2.9v-0.2c0-0.5-0.1-0.8-0.4-1.1C321.5,104.9,321.1,104.8,320.6,104.8z"/>
</g>
<g class="st5">
	<path class="st7" d="M278.7,123.9c0.4,0,0.7-0.1,1-0.4s0.4-0.5,0.4-0.9h1l0,0c0,0.5-0.2,1-0.7,1.5s-1.1,0.6-1.8,0.6
		c-0.9,0-1.6-0.3-2.1-0.9s-0.7-1.4-0.7-2.3v-0.2c0-0.9,0.2-1.7,0.7-2.3s1.2-0.9,2.1-0.9c0.7,0,1.3,0.2,1.8,0.7s0.7,1,0.7,1.6l0,0h-1
		c0-0.4-0.1-0.7-0.4-1s-0.6-0.4-1-0.4c-0.6,0-1,0.2-1.3,0.7c-0.3,0.4-0.4,1-0.4,1.6v0.2c0,0.6,0.1,1.2,0.4,1.6
		C277.7,123.7,278.1,123.9,278.7,123.9z"/>
	<path class="st7" d="M282.3,121.5c0-0.9,0.3-1.7,0.8-2.3s1.2-0.9,2.1-0.9c0.9,0,1.6,0.3,2.1,0.9s0.8,1.4,0.8,2.3v0.1
		c0,0.9-0.3,1.7-0.8,2.3s-1.2,0.9-2.1,0.9s-1.6-0.3-2.1-0.9s-0.8-1.4-0.8-2.3V121.5z M283.4,121.6c0,0.7,0.1,1.2,0.4,1.7
		c0.3,0.4,0.7,0.7,1.3,0.7c0.6,0,1-0.2,1.3-0.7c0.3-0.4,0.4-1,0.4-1.7v-0.1c0-0.7-0.1-1.2-0.4-1.7c-0.3-0.4-0.7-0.7-1.3-0.7
		c-0.6,0-1,0.2-1.3,0.7c-0.3,0.4-0.4,1-0.4,1.7V121.6z"/>
	<path class="st7" d="M290.4,118.4l0.1,0.9c0.2-0.3,0.5-0.6,0.8-0.8s0.7-0.3,1.1-0.3c0.7,0,1.2,0.2,1.6,0.6s0.6,1,0.6,1.9v4h-1.2v-4
		c0-0.6-0.1-1-0.3-1.2s-0.6-0.4-1-0.4c-0.3,0-0.6,0.1-0.9,0.2s-0.5,0.4-0.6,0.7v4.6h-1.2v-6.3H290.4z"/>
	<path class="st7" d="M299.9,123c0-0.3-0.1-0.5-0.3-0.6s-0.6-0.3-1.1-0.4c-0.8-0.2-1.3-0.4-1.7-0.7c-0.4-0.3-0.6-0.7-0.6-1.2
		c0-0.5,0.2-1,0.7-1.3c0.4-0.4,1-0.5,1.7-0.5c0.7,0,1.3,0.2,1.8,0.6s0.6,0.8,0.6,1.4l0,0h-1.1c0-0.3-0.1-0.5-0.3-0.7
		s-0.5-0.3-0.9-0.3c-0.4,0-0.7,0.1-0.9,0.3s-0.3,0.4-0.3,0.7c0,0.3,0.1,0.4,0.3,0.6s0.5,0.3,1.1,0.4c0.8,0.2,1.4,0.4,1.8,0.7
		s0.6,0.7,0.6,1.2c0,0.6-0.2,1-0.7,1.4s-1,0.5-1.8,0.5c-0.8,0-1.4-0.2-1.9-0.6s-0.7-0.9-0.7-1.4l0,0h1.1c0,0.4,0.2,0.7,0.5,0.9
		c0.3,0.2,0.6,0.3,1,0.3c0.4,0,0.7-0.1,1-0.2S299.9,123.3,299.9,123z"/>
	<path class="st7" d="M302.2,121.5c0-0.9,0.3-1.7,0.8-2.3s1.2-0.9,2.1-0.9c0.9,0,1.6,0.3,2.1,0.9s0.8,1.4,0.8,2.3v0.1
		c0,0.9-0.3,1.7-0.8,2.3s-1.2,0.9-2.1,0.9s-1.6-0.3-2.1-0.9s-0.8-1.4-0.8-2.3V121.5z M303.3,121.6c0,0.7,0.1,1.2,0.4,1.7
		c0.3,0.4,0.7,0.7,1.3,0.7c0.6,0,1-0.2,1.3-0.7c0.3-0.4,0.4-1,0.4-1.7v-0.1c0-0.7-0.1-1.2-0.4-1.7c-0.3-0.4-0.7-0.7-1.3-0.7
		c-0.6,0-1,0.2-1.3,0.7c-0.3,0.4-0.4,1-0.4,1.7V121.6z"/>
	<path class="st7" d="M310.3,118.4l0.1,0.9c0.2-0.3,0.5-0.6,0.8-0.8s0.7-0.3,1.1-0.3c0.7,0,1.2,0.2,1.6,0.6s0.6,1,0.6,1.9v4h-1.2v-4
		c0-0.6-0.1-1-0.3-1.2s-0.6-0.4-1-0.4c-0.3,0-0.6,0.1-0.9,0.2s-0.5,0.4-0.6,0.7v4.6h-1.2v-6.3H310.3z"/>
	<path class="st7" d="M320,124.7c0-0.2-0.1-0.4-0.1-0.5s0-0.3,0-0.4c-0.2,0.3-0.5,0.6-0.8,0.8s-0.7,0.3-1.1,0.3
		c-0.7,0-1.2-0.2-1.5-0.5s-0.5-0.8-0.5-1.4c0-0.6,0.2-1.1,0.7-1.4s1.2-0.5,2-0.5h1.3v-0.6c0-0.4-0.1-0.7-0.3-0.9s-0.5-0.3-1-0.3
		c-0.4,0-0.7,0.1-0.9,0.3s-0.3,0.4-0.3,0.7h-1.1l0,0c0-0.5,0.2-0.9,0.7-1.3s1.1-0.6,1.8-0.6c0.7,0,1.3,0.2,1.7,0.5s0.7,0.9,0.7,1.6
		v3.1c0,0.2,0,0.4,0,0.7s0.1,0.4,0.1,0.6H320z M318.1,123.9c0.4,0,0.8-0.1,1.1-0.3s0.6-0.5,0.7-0.7v-1h-1.3c-0.5,0-0.8,0.1-1.1,0.4
		s-0.4,0.5-0.4,0.8c0,0.3,0.1,0.5,0.3,0.7C317.5,123.8,317.7,123.9,318.1,123.9z"/>
	<path class="st7" d="M323.7,118.4l0.1,0.9c0.2-0.3,0.5-0.6,0.8-0.8s0.7-0.3,1.1-0.3c0.7,0,1.2,0.2,1.6,0.6s0.6,1,0.6,1.9v4h-1.2v-4
		c0-0.6-0.1-1-0.3-1.2s-0.6-0.4-1-0.4c-0.3,0-0.6,0.1-0.9,0.2s-0.5,0.4-0.6,0.7v4.6h-1.2v-6.3H323.7z"/>
	<path class="st7" d="M331,116.8v1.5h1.2v0.9H331v3.8c0,0.3,0.1,0.5,0.2,0.6s0.3,0.2,0.5,0.2c0.1,0,0.1,0,0.2,0s0.2,0,0.2-0.1
		l0.2,0.8c-0.1,0.1-0.2,0.1-0.4,0.2s-0.3,0.1-0.5,0.1c-0.5,0-0.8-0.1-1.1-0.4s-0.4-0.7-0.4-1.3v-3.8h-1v-0.9h1v-1.5H331z"/>
	<path class="st7" d="M337.3,123c0-0.3-0.1-0.5-0.3-0.6s-0.6-0.3-1.1-0.4c-0.8-0.2-1.3-0.4-1.7-0.7c-0.4-0.3-0.6-0.7-0.6-1.2
		c0-0.5,0.2-1,0.7-1.3c0.4-0.4,1-0.5,1.7-0.5c0.7,0,1.3,0.2,1.8,0.6s0.6,0.8,0.6,1.4l0,0h-1.1c0-0.3-0.1-0.5-0.3-0.7
		s-0.5-0.3-0.9-0.3c-0.4,0-0.7,0.1-0.9,0.3s-0.3,0.4-0.3,0.7c0,0.3,0.1,0.4,0.3,0.6s0.5,0.3,1.1,0.4c0.8,0.2,1.4,0.4,1.8,0.7
		s0.6,0.7,0.6,1.2c0,0.6-0.2,1-0.7,1.4s-1,0.5-1.8,0.5c-0.8,0-1.4-0.2-1.9-0.6s-0.7-0.9-0.7-1.4l0,0h1.1c0,0.4,0.2,0.7,0.5,0.9
		c0.3,0.2,0.6,0.3,1,0.3c0.4,0,0.7-0.1,1-0.2S337.3,123.3,337.3,123z"/>
</g>
<g class="st5">
	<path class="st7" d="M394,107.2c0-1,0.2-1.8,0.7-2.5s1-0.9,1.8-0.9c0.4,0,0.7,0.1,1,0.2s0.5,0.3,0.7,0.6v-3.5h1.2v9.1h-0.9
		l-0.1-0.8c-0.2,0.3-0.5,0.5-0.8,0.7s-0.7,0.2-1,0.2c-0.8,0-1.4-0.3-1.8-0.8s-0.7-1.3-0.7-2.2V107.2z M395.2,107.4
		c0,0.6,0.1,1.2,0.4,1.5s0.7,0.6,1.2,0.6c0.3,0,0.6-0.1,0.9-0.2s0.4-0.4,0.6-0.7v-3c-0.1-0.3-0.3-0.5-0.6-0.6s-0.5-0.2-0.9-0.2
		c-0.6,0-1,0.2-1.2,0.7s-0.4,1.1-0.4,1.8V107.4z"/>
	<path class="st7" d="M400.9,107.1c0-0.9,0.3-1.7,0.8-2.3s1.2-0.9,2.1-0.9c0.9,0,1.6,0.3,2.1,0.9s0.8,1.4,0.8,2.3v0.1
		c0,0.9-0.3,1.7-0.8,2.3s-1.2,0.9-2.1,0.9s-1.6-0.3-2.1-0.9s-0.8-1.4-0.8-2.3V107.1z M402,107.2c0,0.7,0.1,1.2,0.4,1.7
		c0.3,0.4,0.7,0.7,1.3,0.7c0.6,0,1-0.2,1.3-0.7c0.3-0.4,0.4-1,0.4-1.7v-0.1c0-0.7-0.1-1.2-0.4-1.7c-0.3-0.4-0.7-0.7-1.3-0.7
		c-0.6,0-1,0.2-1.3,0.7c-0.3,0.4-0.4,1-0.4,1.7V107.2z"/>
	<path class="st7" d="M412,109.4c-0.2,0.3-0.5,0.6-0.8,0.8s-0.7,0.3-1.1,0.3c-0.7,0-1.2-0.2-1.6-0.7s-0.6-1.1-0.6-2.1V104h1.2v3.8
		c0,0.7,0.1,1.1,0.3,1.4s0.5,0.4,0.9,0.4c0.4,0,0.7-0.1,1-0.2s0.5-0.4,0.6-0.7V104h1.2v6.3h-1L412,109.4z"/>
	<path class="st7" d="M420.2,107.4c0,0.9-0.2,1.7-0.7,2.2s-1,0.8-1.8,0.8c-0.4,0-0.8-0.1-1.1-0.2s-0.6-0.4-0.8-0.7l-0.1,0.8h-0.9
		v-9.1h1.2v3.6c0.2-0.3,0.4-0.5,0.7-0.6s0.6-0.2,1-0.2c0.8,0,1.4,0.3,1.8,0.9s0.7,1.4,0.7,2.5V107.4z M419,107.2
		c0-0.7-0.1-1.3-0.4-1.8s-0.7-0.7-1.2-0.7c-0.4,0-0.7,0.1-0.9,0.3s-0.4,0.4-0.6,0.7v2.7c0.1,0.3,0.3,0.6,0.6,0.7s0.5,0.3,0.9,0.3
		c0.5,0,0.9-0.2,1.2-0.6s0.4-0.9,0.4-1.5V107.2z"/>
	<path class="st7" d="M422.8,110.3h-1.2v-9.1h1.2V110.3z"/>
	<path class="st7" d="M427.2,110.4c-0.9,0-1.6-0.3-2.1-0.9s-0.8-1.4-0.8-2.3V107c0-0.9,0.3-1.7,0.8-2.3s1.2-0.9,1.9-0.9
		c0.9,0,1.5,0.3,1.9,0.8s0.7,1.2,0.7,2.1v0.7h-4.1l0,0c0,0.6,0.2,1.1,0.5,1.5s0.7,0.6,1.2,0.6c0.4,0,0.7-0.1,1-0.2s0.5-0.3,0.8-0.5
		l0.5,0.8c-0.2,0.2-0.5,0.4-0.9,0.6C428.2,110.3,427.8,110.4,427.2,110.4z M427.1,104.8c-0.4,0-0.7,0.2-1,0.5s-0.4,0.7-0.5,1.2l0,0
		h2.9v-0.2c0-0.5-0.1-0.8-0.4-1.1C427.9,104.9,427.5,104.8,427.1,104.8z"/>
	<path class="st7" d="M430.7,107.2c0-1,0.2-1.8,0.7-2.5s1-0.9,1.8-0.9c0.4,0,0.7,0.1,1,0.2s0.5,0.3,0.7,0.6v-3.5h1.2v9.1h-0.9
		l-0.1-0.8c-0.2,0.3-0.5,0.5-0.8,0.7s-0.7,0.2-1,0.2c-0.8,0-1.4-0.3-1.8-0.8s-0.7-1.3-0.7-2.2V107.2z M431.9,107.4
		c0,0.6,0.1,1.2,0.4,1.5s0.7,0.6,1.2,0.6c0.3,0,0.6-0.1,0.9-0.2s0.4-0.4,0.6-0.7v-3c-0.1-0.3-0.3-0.5-0.6-0.6s-0.5-0.2-0.9-0.2
		c-0.6,0-1,0.2-1.2,0.7s-0.4,1.1-0.4,1.8V107.4z"/>
</g>
<g class="st5">
	<path class="st7" d="M388.2,123.9c0.4,0,0.7-0.1,1-0.4s0.4-0.5,0.4-0.9h1l0,0c0,0.5-0.2,1-0.7,1.5s-1.1,0.6-1.8,0.6
		c-0.9,0-1.6-0.3-2.1-0.9s-0.7-1.4-0.7-2.3v-0.2c0-0.9,0.2-1.7,0.7-2.3s1.2-0.9,2.1-0.9c0.7,0,1.3,0.2,1.8,0.7s0.7,1,0.7,1.6l0,0h-1
		c0-0.4-0.1-0.7-0.4-1s-0.6-0.4-1-0.4c-0.6,0-1,0.2-1.3,0.7c-0.3,0.4-0.4,1-0.4,1.6v0.2c0,0.6,0.1,1.2,0.4,1.6
		C387.1,123.7,387.6,123.9,388.2,123.9z"/>
	<path class="st7" d="M391.7,121.5c0-0.9,0.3-1.7,0.8-2.3s1.2-0.9,2.1-0.9c0.9,0,1.6,0.3,2.1,0.9s0.8,1.4,0.8,2.3v0.1
		c0,0.9-0.3,1.7-0.8,2.3s-1.2,0.9-2.1,0.9s-1.6-0.3-2.1-0.9s-0.8-1.4-0.8-2.3V121.5z M392.9,121.6c0,0.7,0.1,1.2,0.4,1.7
		c0.3,0.4,0.7,0.7,1.3,0.7c0.6,0,1-0.2,1.3-0.7c0.3-0.4,0.4-1,0.4-1.7v-0.1c0-0.7-0.1-1.2-0.4-1.7c-0.3-0.4-0.7-0.7-1.3-0.7
		c-0.6,0-1,0.2-1.3,0.7c-0.3,0.4-0.4,1-0.4,1.7V121.6z"/>
	<path class="st7" d="M399.8,118.4l0.1,0.9c0.2-0.3,0.5-0.6,0.8-0.8s0.7-0.3,1.1-0.3c0.7,0,1.2,0.2,1.6,0.6s0.6,1,0.6,1.9v4h-1.2v-4
		c0-0.6-0.1-1-0.3-1.2s-0.6-0.4-1-0.4c-0.3,0-0.6,0.1-0.9,0.2s-0.5,0.4-0.6,0.7v4.6h-1.2v-6.3H399.8z"/>
	<path class="st7" d="M409.3,123c0-0.3-0.1-0.5-0.3-0.6s-0.6-0.3-1.1-0.4c-0.8-0.2-1.3-0.4-1.7-0.7c-0.4-0.3-0.6-0.7-0.6-1.2
		c0-0.5,0.2-1,0.7-1.3c0.4-0.4,1-0.5,1.7-0.5c0.7,0,1.3,0.2,1.8,0.6s0.6,0.8,0.6,1.4l0,0h-1.1c0-0.3-0.1-0.5-0.3-0.7
		s-0.5-0.3-0.9-0.3c-0.4,0-0.7,0.1-0.9,0.3s-0.3,0.4-0.3,0.7c0,0.3,0.1,0.4,0.3,0.6s0.5,0.3,1.1,0.4c0.8,0.2,1.4,0.4,1.8,0.7
		s0.6,0.7,0.6,1.2c0,0.6-0.2,1-0.7,1.4s-1,0.5-1.8,0.5c-0.8,0-1.4-0.2-1.9-0.6s-0.7-0.9-0.7-1.4l0,0h1.1c0,0.4,0.2,0.7,0.5,0.9
		c0.3,0.2,0.6,0.3,1,0.3c0.4,0,0.7-0.1,1-0.2S409.3,123.3,409.3,123z"/>
	<path class="st7" d="M411.6,121.5c0-0.9,0.3-1.7,0.8-2.3s1.2-0.9,2.1-0.9c0.9,0,1.6,0.3,2.1,0.9s0.8,1.4,0.8,2.3v0.1
		c0,0.9-0.3,1.7-0.8,2.3s-1.2,0.9-2.1,0.9s-1.6-0.3-2.1-0.9s-0.8-1.4-0.8-2.3V121.5z M412.8,121.6c0,0.7,0.1,1.2,0.4,1.7
		c0.3,0.4,0.7,0.7,1.3,0.7c0.6,0,1-0.2,1.3-0.7c0.3-0.4,0.4-1,0.4-1.7v-0.1c0-0.7-0.1-1.2-0.4-1.7c-0.3-0.4-0.7-0.7-1.3-0.7
		c-0.6,0-1,0.2-1.3,0.7c-0.3,0.4-0.4,1-0.4,1.7V121.6z"/>
	<path class="st7" d="M419.7,118.4l0.1,0.9c0.2-0.3,0.5-0.6,0.8-0.8s0.7-0.3,1.1-0.3c0.7,0,1.2,0.2,1.6,0.6s0.6,1,0.6,1.9v4h-1.2v-4
		c0-0.6-0.1-1-0.3-1.2s-0.6-0.4-1-0.4c-0.3,0-0.6,0.1-0.9,0.2s-0.5,0.4-0.6,0.7v4.6h-1.2v-6.3H419.7z"/>
	<path class="st7" d="M429.4,124.7c0-0.2-0.1-0.4-0.1-0.5s0-0.3,0-0.4c-0.2,0.3-0.5,0.6-0.8,0.8s-0.7,0.3-1.1,0.3
		c-0.7,0-1.2-0.2-1.5-0.5s-0.5-0.8-0.5-1.4c0-0.6,0.2-1.1,0.7-1.4s1.2-0.5,2-0.5h1.3v-0.6c0-0.4-0.1-0.7-0.3-0.9s-0.5-0.3-1-0.3
		c-0.4,0-0.7,0.1-0.9,0.3s-0.3,0.4-0.3,0.7h-1.1l0,0c0-0.5,0.2-0.9,0.7-1.3s1.1-0.6,1.8-0.6c0.7,0,1.3,0.2,1.7,0.5s0.7,0.9,0.7,1.6
		v3.1c0,0.2,0,0.4,0,0.7s0.1,0.4,0.1,0.6H429.4z M427.5,123.9c0.4,0,0.8-0.1,1.1-0.3s0.6-0.5,0.7-0.7v-1H428c-0.5,0-0.8,0.1-1.1,0.4
		s-0.4,0.5-0.4,0.8c0,0.3,0.1,0.5,0.3,0.7C426.9,123.8,427.2,123.9,427.5,123.9z"/>
	<path class="st7" d="M433.2,118.4l0.1,0.9c0.2-0.3,0.5-0.6,0.8-0.8s0.7-0.3,1.1-0.3c0.7,0,1.2,0.2,1.6,0.6s0.6,1,0.6,1.9v4h-1.2v-4
		c0-0.6-0.1-1-0.3-1.2s-0.6-0.4-1-0.4c-0.3,0-0.6,0.1-0.9,0.2s-0.5,0.4-0.6,0.7v4.6h-1.2v-6.3H433.2z"/>
	<path class="st7" d="M440.5,116.8v1.5h1.2v0.9h-1.2v3.8c0,0.3,0.1,0.5,0.2,0.6s0.3,0.2,0.5,0.2c0.1,0,0.1,0,0.2,0s0.2,0,0.2-0.1
		l0.2,0.8c-0.1,0.1-0.2,0.1-0.4,0.2s-0.3,0.1-0.5,0.1c-0.5,0-0.8-0.1-1.1-0.4s-0.4-0.7-0.4-1.3v-3.8h-1v-0.9h1v-1.5H440.5z"/>
	<path class="st7" d="M446.8,123c0-0.3-0.1-0.5-0.3-0.6s-0.6-0.3-1.1-0.4c-0.8-0.2-1.3-0.4-1.7-0.7c-0.4-0.3-0.6-0.7-0.6-1.2
		c0-0.5,0.2-1,0.7-1.3c0.4-0.4,1-0.5,1.7-0.5c0.7,0,1.3,0.2,1.8,0.6s0.6,0.8,0.6,1.4l0,0h-1.1c0-0.3-0.1-0.5-0.3-0.7
		s-0.5-0.3-0.9-0.3c-0.4,0-0.7,0.1-0.9,0.3s-0.3,0.4-0.3,0.7c0,0.3,0.1,0.4,0.3,0.6s0.5,0.3,1.1,0.4c0.8,0.2,1.4,0.4,1.8,0.7
		s0.6,0.7,0.6,1.2c0,0.6-0.2,1-0.7,1.4s-1,0.5-1.8,0.5c-0.8,0-1.4-0.2-1.9-0.6s-0.7-0.9-0.7-1.4l0,0h1.1c0,0.4,0.2,0.7,0.5,0.9
		c0.3,0.2,0.6,0.3,1,0.3c0.4,0,0.7-0.1,1-0.2S446.8,123.3,446.8,123z"/>
</g>
</svg>
