<?xml version="1.0" encoding="utf-8"?>
<!-- Generator: Adobe Illustrator 22.0.0, SVG Export Plug-In . SVG Version: 6.00 Build 0)  -->
<svg version="1.1" id="Layer_1" xmlns="http://www.w3.org/2000/svg" xmlns:xlink="http://www.w3.org/1999/xlink" x="0px" y="0px"
	 viewBox="0 0 536.5 279.5" style="enable-background:new 0 0 536.5 279.5;" xml:space="preserve">
<style type="text/css">
	.st0{enable-background:new    ;}
	.st1{fill:#3AB530;}
	.st2{fill:none;stroke:#D4D4D4;stroke-miterlimit:10;}
	.st3{fill:#949494;}
</style>
<g class="st0">
	<path class="st1" d="M36.8,62.5c0-0.6-1.1-1.3-2.9-1.8c-0.3-0.1-0.5-0.2-0.5-0.3c0-0.2,0.5-0.5,1.3-0.5c1.1,0,2.2,0.3,3.6,0.6
		c0.6,0.1,0.7,0.3,0.7,0.6c0,0.4-0.2,0.9-0.2,1.5v13.7c4,0,2.7-1.1,5.4-1.1c1.6,0,2.2,0.4,2.2,1.1c0,0.8-0.5,1-1.9,1h-5.7v8.9
		c0,6.4-1.2,6.5-1.4,6.5c-0.4,0-0.5-1-0.6-3.6C36.8,89.1,36.8,62.5,36.8,62.5z"/>
	<path class="st1" d="M79.7,63.1c0-0.8-1.5-1.5-3.6-2.4c-0.1,0-0.2-0.1-0.2-0.2c0-0.2,0.5-0.4,1-0.4c1.4,0.3,3.3,0.9,4.1,1.2
		c0.6,0.2,0.7,0.5,0.7,0.8s-0.1,0.6-0.1,0.9v26.5c0,1.9-0.6,3.4-1.2,3.4c-0.4,0-0.7-1.1-0.7-2.1V75c-1.5,0-2.8,0.1-5.5,0.3
		c-2.1,0.2-2.2,0.6-2.7,0.6c-0.7,0-3.5-1.3-3.5-1.7c0-0.1,0.1-0.1,0.2-0.1c0.3,0,0.8,0.1,1.3,0.2c0.8,0.1,1.6,0.1,2.6,0.1
		c1.9,0,4.3-0.2,7.7-0.4V63.1H79.7z"/>
	<path class="st1" d="M111.8,63.1c0-0.8-1.5-1.5-3.6-2.4c-0.2-0.1-0.3-0.2-0.3-0.2c0-0.2,0.6-0.4,1.1-0.4c1.4,0.2,3.3,0.8,4.2,1.2
		c0.6,0.2,0.7,0.5,0.7,0.8s-0.1,0.6-0.1,0.8V72h3.8c1.7,0,1.5-0.9,3.3-0.9c1.7,0.1,2.4,0.4,2.4,1.1c0,0.5-0.3,0.8-1.2,0.8h-8.3v8.6
		h3.8c1.7,0,1.5-0.9,3.3-0.9c1.7,0.1,2.4,0.5,2.4,1.1c0,0.4-0.3,0.8-1.2,0.7h-8.3v7.2c0,1.9-0.6,3.4-1.2,3.4c-0.3,0-0.7-1.1-0.7-2.1
		V63.1H111.8z"/>
	<path class="st1" d="M154.7,71.6c-1.7,0.1-3.1,0.2-5.7,0.3c-2,0.2-2.2,0.6-2.7,0.6s-3.5-1.2-3.5-1.7c0-0.1,0.1-0.1,0.2-0.1
		c0.3,0,0.8,0.1,1.3,0.2c0.8,0.1,1.6,0.1,2.6,0.1c1.9,0,4.3-0.1,7.8-0.3v-7.5c0-0.9-1.4-1.5-3.7-2.4c-0.1,0-0.2-0.1-0.2-0.2
		c0-0.2,0.5-0.4,1.1-0.4c1.4,0.3,3.3,0.9,4.2,1.2c0.6,0.2,0.7,0.5,0.7,0.8s-0.1,0.6-0.1,0.9v26.4c0,1.9-0.6,3.4-1.2,3.4
		c-0.4,0-0.7-1.1-0.7-2.2v-9.9c-1.8,0.1-3.2,0.2-5.7,0.4c-2,0.2-2.2,0.6-2.7,0.6s-3.5-1.2-3.5-1.7c0-0.1,0.1-0.1,0.2-0.1
		c0.3,0,0.8,0.1,1.3,0.2c0.8,0.1,1.6,0.1,2.5,0.1c1.9,0,4.4-0.2,7.9-0.4v-8.3C154.8,71.6,154.7,71.6,154.7,71.6z"/>
</g>
<g>
	<g class="st0">
		<path class="st1" d="M257,75.9c4.4-0.3,3.7-0.9,5.3-0.9c0.4,0,0.9,0,1.6,0.1c1.9,0.3,2.4,0.6,2.4,1.2c0,0.8-0.6,0.8-0.9,0.8
			c-0.9,0-2.5-0.3-5.6-0.3c-7.3,0-12.8,0.2-18.4,0.4c-2.2,0.2-2.5,0.8-3.2,0.8c-0.8,0-4.8-1.9-4.8-2.4c0-0.1,0.1-0.1,0.2-0.1
			s0.3,0,0.6,0.1c2,0.5,5.7,0.7,10.7,0.7c3.4,0,7.3-0.1,11.7-0.3L257,75.9L257,75.9z"/>
		<path class="st1" d="M286.4,63.1c0-0.8-1.7-1.6-3.3-1.9c-0.3-0.1-0.4-0.1-0.4-0.3s0.5-0.5,1.2-0.5c1.2,0,2.9,0.5,3.8,0.7
			c0.6,0.2,0.8,0.4,0.8,0.7s-0.2,0.7-0.2,1.3v24.5c0,5.5-1.2,5.5-1.3,5.5c-0.5,0-0.5-1.2-0.5-3v-27H286.4z"/>
	</g>
</g>
<g>
	<g class="st0">
		<path class="st1" d="M390.1,76.3c2.4-0.1,1.8-0.7,3.6-0.7c1.8,0,3.8,0.5,3.8,1.3c0,0.3-0.4,0.9-1.4,0.9s-2.8-0.4-6.3-0.5
			c-5.2,0-10.4,0.2-16,0.3h-0.2c-3.2,0-3.4,0.7-4.1,0.7s-4.9-1.9-4.9-2.4c0-0.1,0.1-0.2,0.3-0.2c0.1,0,0.3,0,0.5,0.1
			c1.9,0.5,5.7,0.9,15,1V63.5c0-0.8-0.6-1.3-2.1-1.7c-0.2,0-0.2-0.1-0.2-0.1c0-0.2,0.3-0.4,0.7-0.5c1.2,0,3.9,0.3,3.9,1.4
			c0,0.3-0.2,0.7-0.2,1.1l-0.7,13.1l8-0.3L390.1,76.3z"/>
		<path class="st1" d="M424.8,62.7c4.7,0,4.8-0.9,6.9-0.9c0.3,0,0.8,0,1.2,0.1c1.5,0.2,2.1,0.6,2.1,1.3c0,0.5-0.3,0.6-1,0.6
			s-1.8-0.1-3.4-0.2h-11.4V82c0,4.7-1,4.7-1.3,4.7c-0.5,0-0.6-1.6-0.6-4.2V63.6l-6.8,0.3c-2.8,0.2-2.9,0.8-3.5,0.8s-5.2-1.8-5.2-2.5
			c0-0.1,0.1-0.1,0.3-0.1c0.1,0,0.3,0,0.5,0.1c2.9,0.6,5.3,0.8,9.6,0.7L424.8,62.7z"/>
		<path class="st1" d="M464.5,76.3c2.2-0.1,2.6-0.9,4.4-0.9c0.4,0,0.8,0,1.2,0.1c2.2,0.3,2.4,0.7,2.4,1.4c-0.2,0.6-0.4,0.7-1,0.7
			c-0.7,0-2-0.2-4.7-0.3c-0.9,0-2.1,0-3.2,0c-4.6,0-10.6,0.2-15.1,0.3c-3.5,0.1-3.4,0.8-4,0.8c-0.7,0-5.1-1.9-5.1-2.4
			c0-0.1,0.1-0.2,0.3-0.2c0.1,0,0.3,0,0.5,0.1c2,0.5,4.7,0.8,7.7,0.8c0.7,0,1.4,0,2.1,0c-0.6-1.1-0.6-5.7-0.9-8
			c-0.2-1.1-0.5-2.5-1.5-4.1c-0.1-0.1-0.1-0.2-0.1-0.3s0-0.1,0.2-0.1s0.3,0.1,0.6,0.3l2.3,1.5c0.9,0.6,1.1,1,1.1,1.3
			c0,0.4-0.4,0.7-0.4,1.2c0.1,2.7,0.2,4.5,0.2,5.6c0,2-0.2,2.1-0.5,2.6c1.2,0.1,7.2-0.2,8.6-0.2l1.5-12.1c0-0.1,0-0.3,0-0.4
			c0-0.6-0.3-1.4-2.1-2.3v-0.1c0-0.2,0.3-0.3,0.8-0.3c0.3,0,4,0.8,4,1.8c0,0.3-0.3,0.6-0.3,1c-0.6,3.8-1.5,9.1-2.1,12.3h3.1V76.3z"
			/>
		<path class="st1" d="M502.7,62.4c2-0.1,1.3-1,3.5-1c0.3,0,0.7,0,1.1,0.1c2.1,0.2,2.6,0.7,2.6,1.3s-0.5,0.7-1.1,0.7
			c-0.7,0-3.9-0.2-4.7-0.2l-3.9,0.1v19.3c0,1.7-0.6,3.5-1.2,3.5c-0.5,0-0.7-0.6-0.7-2.3V63.4l-9.6,0.3v18.9c0,1.8-0.7,3.5-1.2,3.5
			s-0.8-1.2-0.8-2.5V63.8l-2,0.2c-2.3,0.1-2.3,0.7-2.8,0.7c-1.1,0-4.9-2.1-4.9-2.5c0-0.1,0.1-0.1,0.2-0.1s0.3,0,0.6,0.1
			c2.3,0.5,4.3,0.7,7.2,0.7c0.7,0,1.5,0,2.4,0L502.7,62.4z"/>
	</g>
</g>
<g>
	<g class="st0">
		<path class="st1" d="M45.3,184.9c0-0.6-0.5-1.2-3.6-2.3c-0.1,0-0.1-0.1-0.1-0.2c0-0.2,0.5-0.4,1-0.5c2,0.4,3.2,0.8,4.1,1
			c0.6,0.2,0.8,0.5,0.8,0.7c0,0.3-0.2,0.6-0.2,0.9v26.6c0,1.8-0.6,3.4-1.1,3.4c-0.3,0-0.8-1-0.8-2.1v-13.1h-8v9.7
			c0,1.9-0.6,3.4-1.1,3.4c-0.2,0-0.7-1.2-0.7-2.2v-23.4c0-0.8-0.5-1.2-2.9-2.1c-0.1,0-0.2-0.1-0.2-0.1c0-0.2,0.6-0.5,1-0.5
			c1.3,0.2,2.4,0.6,3.3,0.9c0.6,0.2,0.8,0.5,0.8,0.8s-0.2,0.6-0.2,0.8v11.7h8L45.3,184.9L45.3,184.9z"/>
		<path class="st1" d="M73.1,186.9c0-0.8-0.5-1.2-2.9-2.1c-0.2,0-0.2-0.1-0.2-0.2c0-0.2,0.6-0.4,1-0.4c1.3,0.2,2.4,0.6,3.3,0.9
			c0.6,0.2,0.8,0.5,0.8,0.8s-0.2,0.6-0.2,0.8v5.3h7.9v-7c0-0.6-0.4-1.2-3.6-2.3c-0.1,0-0.2-0.1-0.2-0.2c0-0.2,0.6-0.4,1.1-0.4
			c2,0.4,3.2,0.8,4.1,1c0.6,0.2,0.8,0.5,0.8,0.7c0,0.3-0.2,0.6-0.2,0.9v26.6c0,1.8-0.6,3.4-1.1,3.4c-0.3,0-0.8-1-0.8-2.1v-11.1h-8
			v7.8c0,1.8-0.6,3.3-1.1,3.3c-0.2,0-0.7-1.2-0.7-2.2L73.1,186.9L73.1,186.9z M82.8,193h-8v7.3h8V193z"/>
		<path class="st1" d="M113.5,197.9c-2.3,0.1-3,0.2-3.9,0.3c-2.1,0.2-2.2,0.6-2.7,0.6s-3.5-1.2-3.5-1.8c0,0,0.1-0.1,0.2-0.1
			c0.2,0,0.8,0.1,1.3,0.2c0.8,0.1,1.6,0.1,2.4,0.1c1.8,0,3.8-0.1,6.2-0.4v-9.6c0-0.9-1.2-1.5-3.1-2.4c-0.1,0-0.1-0.1-0.1-0.1
			c0-0.2,0.5-0.5,0.9-0.5c0.3,0,2.8,0.7,3.7,1.1c0.5,0.2,0.7,0.5,0.7,0.8s-0.1,0.6-0.1,0.9v21.7c0,1.8-0.6,3.4-1.1,3.4
			c-0.4,0-0.7-1.1-0.8-2.1L113.5,197.9L113.5,197.9z M121.2,184.9c0-0.8-1.4-1.5-3.6-2.4c-0.1,0-0.2-0.1-0.2-0.2
			c0-0.2,0.5-0.4,0.9-0.4c0.3,0,2.7,0.5,4.2,1.1c0.6,0.2,0.7,0.5,0.7,0.8s-0.1,0.6-0.1,0.9v26.5c0,1.9-0.6,3.4-1.2,3.4
			c-0.4,0-0.7-1.1-0.7-2.1C121.2,212.5,121.2,184.9,121.2,184.9z"/>
		<path class="st1" d="M151.2,193.2c-2.3,0.1-3,0.2-3.9,0.3c-2,0.2-2.2,0.6-2.7,0.6s-3.5-1.2-3.5-1.7c0-0.1,0.1-0.1,0.2-0.1
			c0.3,0,0.8,0.1,1.3,0.2c0.8,0.1,1.5,0.1,2.4,0.1c1.8,0,3.9-0.2,6.2-0.4v-5c0-0.9-1.4-1.6-3.2-2.3c-0.2,0-0.2-0.1-0.2-0.2
			c0-0.2,0.5-0.4,1-0.4c0.9,0.2,2.9,0.8,3.6,1.1c0.6,0.2,0.7,0.5,0.7,0.8s-0.1,0.6-0.1,0.9v21.7c0,1.7-0.6,3.4-1.1,3.4
			c-0.4,0-0.7-1.3-0.7-2.1v-7.4c-0.8,0-2.1,0.1-3.9,0.3c-2.1,0.2-2.2,0.6-2.7,0.6c-0.6,0-3.5-1.3-3.5-1.7c0-0.1,0.1-0.1,0.2-0.1
			c0.3,0,0.8,0.1,1.3,0.2c0.8,0.1,1.5,0.1,2.4,0.1c1.7,0,3.7-0.2,6.2-0.3V193.2z M158.9,184.7c0-0.8-1.5-1.5-3.6-2.4
			c-0.1,0-0.2-0.1-0.2-0.2c0-0.2,0.5-0.4,1-0.4c1.4,0.3,3.4,0.9,4.2,1.2c0.6,0.2,0.7,0.5,0.7,0.9c0,0.3-0.1,0.7-0.1,1v26.4
			c0,1.5-0.6,3.4-1.2,3.4c-0.4,0-0.7-1.1-0.7-2.1L158.9,184.7L158.9,184.7z"/>
	</g>
</g>
<g>
	<g class="st0">
		<path class="st1" d="M235.3,184.9c0-0.9-1.4-1.5-3.7-2.4c-0.1,0-0.1-0.1-0.1-0.1c0-0.2,0.6-0.4,1-0.5c1.5,0.2,3.4,0.9,4.1,1.2
			c0.6,0.2,0.7,0.5,0.7,0.8s-0.1,0.6-0.1,0.9v13.5h2.9c1.2,0,1.1-0.9,3-0.9c1.7,0,2.4,0.6,2.4,1.1c-0.1,0.5-0.4,0.7-1.3,0.7h-7.1
			V211c0,1.9-0.6,3.7-1.2,3.7c-0.4,0-0.7-1.3-0.7-2.4v-10.8c-5.1,1.7-11.3,3.2-16.8,4.1c-0.9,0.1-0.9,0.7-1.6,0.7
			c-0.9,0-3.6-1.5-4.5-2c-0.1-0.1-0.1-0.1-0.1-0.2c0-0.1,0.1-0.2,0.3-0.2c0.1,0,0.3,0,0.5,0c1,0.2,2,0.3,3,0.3c2.3,0,4.6-0.5,7-0.8
			c-0.2-0.4-0.3-1.3-0.3-2.1v-10c0-0.6-0.3-1.4-2.4-1.8c0-0.2,0.3-0.5,1.1-0.6c1.4,0.1,2.2,0.3,2.8,0.6c0.4,0.2,0.5,0.4,0.5,0.7
			s-0.2,0.7-0.2,1v9.2c0,0.6-0.2,2.4-0.6,2.9c2.3-0.3,7.1-1.2,11.1-2.4v-16H235.3z"/>
	</g>
</g>
<g>
	<g class="st0">
		<path class="st1" d="M377.6,206.3c0,1.7-0.5,3.5-1,3.5c-0.4,0-0.7-0.6-0.8-2.3v-14c-0.5,0.1-2.9,0.7-3.4,0.9
			c-1.7,0.3-1.9,0.9-2.6,0.9c-0.3,0-0.6-0.1-1-0.3c-1-0.5-2.1-0.9-3.6-1.8c-0.1-0.1-0.1-0.2-0.1-0.3s0.1-0.1,0.2-0.1s0.2,0,0.4,0.1
			c0.9,0.1,2.3,0.4,3.8,0.4c0.5,0,1,0,1.5-0.1c4.3-0.6,6-1,14.2-2.7c0.2,0,0.4-0.1,0.5-0.1c0.2,0,0.3,0.1,0.3,0.1
			c0,0.1-0.2,0.3-0.6,0.4c-1.8,0.6-4.7,1.4-7.7,2.1L377.6,206.3L377.6,206.3z M389.7,199.1c-1,0.1-2,0.2-3,0.3
			c-1,0.2-1.2,0.6-1.7,0.6s-3.3-1.1-3.3-1.6c0-0.1,0.1-0.1,0.2-0.1c0.3,0,0.8,0.1,1.3,0.2c0.6,0,1.1,0.1,1.7,0.1
			c1.5,0,3.1-0.1,4.9-0.4V185c0-0.9-1.4-1.5-3.7-2.4c-0.1,0-0.1-0.1-0.1-0.1c0-0.2,0.6-0.5,1-0.5c1.5,0.3,3.4,0.9,4.1,1.1
			c0.6,0.2,0.7,0.5,0.7,0.8s-0.1,0.6-0.1,0.9v25.7c0,1.9-0.6,3.7-1.2,3.7c-0.4,0-0.7-1.4-0.7-2.4L389.7,199.1L389.7,199.1z"/>
		<path class="st1" d="M416,205.3c0,1.5-0.5,3.4-1,3.4c-0.3,0-0.6-0.7-0.7-2.3V195c-0.2,0-2.3,0.6-2.8,0.7c-1.5,0.4-1.7,1-2.5,1
			c-0.2,0-0.5-0.1-0.9-0.2l-3.5-1.8c-0.1-0.1-0.1-0.2-0.1-0.2c0-0.1,0.1-0.1,0.3-0.1c0.1,0,0.3,0,0.6,0.1c0.6,0.1,1.2,0.3,2.6,0.3
			c2.6,0,9.8-1.6,13.6-2.5c0.2,0,0.3,0,0.4,0c0.2,0,0.3,0,0.3,0.2c0,0.1-0.3,0.3-0.6,0.5c-1.7,0.6-3.5,1.1-5.6,1.7L416,205.3
			L416,205.3z M425.6,187.1c0-0.9-1.4-1.4-3-2.2c-0.1,0-0.1-0.1-0.1-0.1c0-0.1,0.6-0.4,1-0.5c0.8,0.2,2.7,0.8,3.3,1
			c0.6,0.2,0.7,0.5,0.7,0.8s-0.1,0.6-0.1,0.9v20c0,1.9-0.6,3.6-1,3.6s-0.7-1.3-0.7-2.4v-9.4l-2.6,0.3c-1.3,0.2-1.4,0.6-1.9,0.6
			c-0.2,0-0.5-0.1-0.9-0.3l-1.8-0.8c-0.1-0.1-0.1-0.2-0.1-0.3s0.1-0.2,0.3-0.2c0.3,0,1.8,0.1,2.2,0.1c1.6,0,3-0.1,4.8-0.3
			L425.6,187.1L425.6,187.1z M432,184.8c0-0.8-1.4-1.5-3.7-2.4c-0.1,0-0.1-0.1-0.1-0.1c0-0.2,0.6-0.4,1-0.5c1.5,0.3,3.4,0.9,4.1,1.2
			c0.5,0.2,0.7,0.5,0.7,0.8s-0.1,0.6-0.1,0.9v26.2c0,1.9-0.6,3.7-1.2,3.7c-0.4,0-0.7-1.4-0.7-2.4L432,184.8L432,184.8z"/>
		<path class="st1" d="M457.9,207c0,1.7-0.5,3.5-1,3.5s-0.7-0.6-0.7-2.3v-12.8c-1.7,0.3-3.3,0.6-4.5,0.7c-1.2,0.2-1.4,0.8-2.1,0.8
			s-4.8-1.8-4.8-2.3c0-0.1,0.1-0.2,0.2-0.2c0.2,0,0.4,0.1,0.6,0.1c1,0.3,2.3,0.4,3.9,0.4c1.7,0,3.7-0.1,5.9-0.4
			c4.1-0.6,8.9-1.5,13.5-2.6v-6.7c0-0.8-1.4-1.5-3.7-2.4c-0.1,0-0.1-0.1-0.1-0.1c0-0.2,0.6-0.4,1-0.5c1.5,0.3,3.4,0.9,4.1,1.2
			c0.6,0.2,0.7,0.5,0.7,0.8s-0.1,0.6-0.1,0.9v26.1c0,1.9-0.6,3.7-1.2,3.7c-0.4,0-0.7-1.4-0.7-2.4v-20c-2.7,0.9-7.1,2-11,2.7
			L457.9,207L457.9,207z"/>
		<path class="st1" d="M507.9,185.1c0-0.9-1.7-1.5-3.2-2.1c-0.3-0.1-0.4-0.2-0.4-0.3c0-0.2,0.5-0.4,1.1-0.4c0.5,0,0.9,0.1,3.9,0.8
			c0.6,0.2,0.7,0.4,0.7,0.8c0,0.3-0.1,0.8-0.1,1.4v23c0,4.4-0.2,5.7-0.9,6.5c-0.1,0.1-0.2,0.2-0.3,0.2c-0.5,0-0.6-1.7-0.6-3.9v-12.4
			c-4.7,1.8-10.8,3.5-16.2,4.8c-1.8,0.4-1.6,1.1-2.3,1.1c-0.8,0-2.7-1-4.8-2.1c-0.3-0.2-0.4-0.4-0.4-0.5s0.1-0.2,0.4-0.2
			c0.2,0,0.5,0,0.9,0.1c0.7,0.2,1.6,0.3,2.6,0.3c5.2,0,13.9-2.3,19.9-4.1v-13L507.9,185.1L507.9,185.1z"/>
	</g>
</g>
<g>
	<g class="st0">
		<path d="M96.2,39.8h-1.3v-8H93v-0.9l3.1-0.3L96.2,39.8L96.2,39.8z"/>
	</g>
</g>
<g>
	<g class="st0">
		<path d="M271.1,39.8h-6V39l3-3.4c0.5-0.6,0.9-1.1,1.1-1.4s0.3-0.7,0.3-1.1c0-0.5-0.1-0.8-0.4-1.2c-0.3-0.3-0.6-0.5-1.1-0.5
			c-0.6,0-1.1,0.2-1.4,0.5s-0.5,0.8-0.5,1.4H265l0,0c0-0.8,0.2-1.5,0.8-2c0.6-0.5,1.3-0.8,2.3-0.8c0.8,0,1.5,0.2,2,0.7
			s0.7,1.1,0.7,1.8c0,0.5-0.1,1-0.4,1.5s-0.7,1-1.3,1.6l-2.4,2.6l0,0h4.4V39.8z"/>
	</g>
</g>
<g>
	<g class="st0">
		<path d="M435.6,34.6h1.1c0.6,0,0.9-0.1,1.2-0.4c0.2-0.3,0.3-0.7,0.3-1.2s-0.1-0.9-0.4-1.2s-0.6-0.4-1.2-0.4
			c-0.5,0-0.9,0.1-1.2,0.4c-0.3,0.3-0.4,0.7-0.4,1.1h-1.2l0,0c0-0.7,0.2-1.3,0.8-1.8c0.5-0.5,1.2-0.7,2.1-0.7s1.5,0.2,2,0.7
			s0.8,1.1,0.8,1.9c0,0.4-0.1,0.8-0.3,1.1s-0.6,0.7-1,0.9c0.6,0.2,0.9,0.5,1.2,0.9s0.3,0.8,0.3,1.3c0,0.8-0.3,1.5-0.8,2
			c-0.6,0.5-1.3,0.7-2.1,0.7c-0.8,0-1.5-0.2-2.1-0.7s-0.8-1.1-0.8-1.9l0,0h1.2c0,0.5,0.1,0.9,0.4,1.2s0.7,0.4,1.2,0.4
			s0.9-0.1,1.2-0.4c0.3-0.3,0.5-0.7,0.5-1.3s-0.1-1-0.4-1.3s-0.7-0.4-1.3-0.4h-1.1L435.6,34.6L435.6,34.6z"/>
	</g>
</g>
<g>
	<g class="st0">
		<path d="M97.6,157.6h1.3v1h-1.3v2.1h-1.2v-2.1h-4.2v-0.7l4.1-6.4h1.3C97.6,151.5,97.6,157.6,97.6,157.6z M93.5,157.6h2.8v-4.3l0,0
			l-0.1,0.3L93.5,157.6z"/>
	</g>
</g>
<g>
	<g class="st0">
		<path d="M265.5,156.6l0.5-5.1h4.6v1.1H267l-0.3,2.6c0.2-0.1,0.4-0.3,0.7-0.4c0.2-0.1,0.5-0.1,0.8-0.2c0.9,0,1.5,0.3,2,0.8
			c0.5,0.6,0.7,1.3,0.7,2.3c0,0.9-0.2,1.7-0.7,2.2c-0.5,0.6-1.2,0.8-2.2,0.8c-0.8,0-1.4-0.2-2-0.6s-0.8-1.1-0.7-1.9l0,0h1.1
			c0,0.5,0.1,0.9,0.4,1.2s0.7,0.4,1.1,0.4c0.5,0,0.9-0.2,1.2-0.6s0.4-0.9,0.4-1.5s-0.1-1.1-0.4-1.5s-0.7-0.6-1.2-0.6
			s-0.8,0.1-1.1,0.2c-0.2,0.1-0.4,0.4-0.5,0.7L265.5,156.6z"/>
	</g>
</g>
<g>
	<g class="st0">
		<path d="M436.4,151.4c0.3,0,0.6,0,0.9,0.1s0.6,0.2,0.8,0.3l-0.3,1c-0.2-0.1-0.4-0.2-0.7-0.3s-0.5-0.1-0.8-0.1
			c-0.7,0-1.2,0.3-1.6,0.8s-0.6,1.2-0.6,2.1v0.1c0.3-0.2,0.6-0.4,0.9-0.6c0.3-0.1,0.7-0.2,1.1-0.2c0.8,0,1.5,0.3,2,0.9
			c0.5,0.6,0.7,1.3,0.7,2.2c0,1-0.3,1.7-0.8,2.3s-1.2,0.9-2.1,0.9s-1.7-0.3-2.2-1c-0.6-0.7-0.9-1.6-0.9-2.8v-1.8
			c0-1.2,0.3-2.1,1-2.9S435.4,151.4,436.4,151.4z M436,155.5c-0.4,0-0.8,0.1-1.1,0.3c-0.3,0.2-0.5,0.4-0.7,0.7v0.7
			c0,0.8,0.2,1.5,0.5,2c0.4,0.5,0.8,0.7,1.4,0.7c0.5,0,0.9-0.2,1.2-0.6c0.3-0.4,0.4-1,0.4-1.6s-0.2-1.1-0.5-1.5
			C436.9,155.7,436.5,155.5,436,155.5z"/>
	</g>
</g>
<circle class="st2" cx="96.1" cy="35.5" r="10"/>
<circle class="st2" cx="268.6" cy="35.5" r="10"/>
<circle class="st2" cx="436.3" cy="35.5" r="10"/>
<circle class="st2" cx="96.1" cy="156" r="10"/>
<circle class="st2" cx="268.6" cy="156" r="10"/>
<circle class="st2" cx="436.3" cy="156" r="10"/>
<g class="st0">
	<path class="st3" d="M27.4,114.9v-11h2.3v0.9h-1.3v9.2h1.3v0.9H27.4z"/>
	<path class="st3" d="M38.1,111.7c-0.4,0.3-0.8,0.6-1.1,0.7s-0.7,0.2-1.2,0.2c-0.7,0-1.2-0.2-1.6-0.5s-0.6-0.8-0.6-1.3
		c0-0.3,0.1-0.6,0.2-0.8s0.3-0.5,0.5-0.6s0.5-0.3,0.8-0.3c0.2-0.1,0.5-0.1,0.9-0.2c0.9-0.1,1.5-0.2,1.9-0.4c0-0.1,0-0.2,0-0.3
		c0-0.4-0.1-0.7-0.3-0.9c-0.3-0.2-0.7-0.4-1.2-0.4s-0.9,0.1-1.1,0.3s-0.4,0.5-0.5,0.9l-1-0.1c0.1-0.4,0.2-0.8,0.5-1.1
		s0.5-0.5,0.9-0.6s0.9-0.2,1.4-0.2s1,0.1,1.3,0.2s0.6,0.3,0.7,0.5s0.3,0.4,0.3,0.7c0,0.2,0.1,0.5,0.1,1v1.4c0,1,0,1.6,0.1,1.9
		s0.1,0.5,0.3,0.7h-1.1C38.2,112.3,38.1,112,38.1,111.7z M38,109.4c-0.4,0.2-1,0.3-1.7,0.4c-0.4,0.1-0.7,0.1-0.9,0.2
		s-0.3,0.2-0.4,0.3s-0.1,0.3-0.1,0.5c0,0.3,0.1,0.5,0.3,0.7s0.5,0.3,0.9,0.3s0.8-0.1,1.1-0.3s0.5-0.4,0.7-0.7
		c0.1-0.2,0.2-0.6,0.2-1.1L38,109.4L38,109.4z"/>
	<path class="st3" d="M42.2,106.3l-0.5,1.2h-0.1l-0.5-1.2H42.2z M42.2,112.5H41l0.5-1.2h0.1L42.2,112.5z"/>
	<path class="st3" d="M49.1,114.9h-2.3V114h1.3v-9.2h-1.3v-0.9h2.3V114.9z"/>
</g>
<g>
	<g class="st0">
		<path class="st3" d="M104.7,114.9v-11h2.3v0.9h-1.3v9.2h1.3v0.9H104.7z"/>
		<path class="st3" d="M110,114.9l0.2-0.9c0.2,0.1,0.4,0.1,0.5,0.1c0.2,0,0.4-0.1,0.5-0.2s0.2-0.5,0.2-1.1v-6.5h1.1v6.6
			c0,0.8-0.1,1.3-0.3,1.6c-0.3,0.4-0.7,0.6-1.3,0.6C110.5,115,110.3,115,110,114.9z M111.3,105.1v-1.2h1.1v1.2H111.3z"/>
		<path class="st3" d="M118.1,111.7c-0.4,0.3-0.8,0.6-1.1,0.7s-0.7,0.2-1.2,0.2c-0.7,0-1.2-0.2-1.6-0.5s-0.6-0.8-0.6-1.3
			c0-0.3,0.1-0.6,0.2-0.8s0.3-0.5,0.5-0.6s0.5-0.3,0.8-0.3c0.2-0.1,0.5-0.1,0.9-0.2c0.9-0.1,1.5-0.2,1.9-0.4c0-0.1,0-0.2,0-0.3
			c0-0.4-0.1-0.7-0.3-0.9c-0.3-0.2-0.7-0.4-1.2-0.4s-0.9,0.1-1.1,0.3s-0.4,0.5-0.5,0.9l-1-0.1c0.1-0.4,0.2-0.8,0.5-1.1
			s0.5-0.5,0.9-0.6s0.9-0.2,1.4-0.2s1,0.1,1.3,0.2s0.6,0.3,0.7,0.5s0.3,0.4,0.3,0.7c0,0.2,0.1,0.5,0.1,1v1.4c0,1,0,1.6,0.1,1.9
			s0.1,0.5,0.3,0.7h-1.1C118.2,112.3,118.1,112,118.1,111.7z M118,109.4c-0.4,0.2-1,0.3-1.7,0.4c-0.4,0.1-0.7,0.1-0.9,0.2
			s-0.3,0.2-0.4,0.3s-0.1,0.3-0.1,0.5c0,0.3,0.1,0.5,0.3,0.7s0.5,0.3,0.9,0.3s0.8-0.1,1.1-0.3s0.5-0.4,0.7-0.7
			c0.1-0.2,0.2-0.6,0.2-1.1L118,109.4L118,109.4z"/>
		<path class="st3" d="M125.8,114.9h-2.3V114h1.3v-9.2h-1.3v-0.9h2.3V114.9z"/>
	</g>
</g>
<g>
	<g class="st0">
		<path class="st3" d="M68.7,114.9v-11H71v0.9h-1.3v9.2H71v0.9H68.7z"/>
		<path class="st3" d="M80.1,109.4c0,1-0.2,1.7-0.7,2.3c-0.5,0.6-1.2,0.9-2.1,0.9c-0.7,0-1.3-0.2-1.7-0.6s-0.7-1-0.9-1.7l1-0.1
			c0.1,1,0.7,1.6,1.6,1.6c1.2,0,1.7-0.8,1.7-2.4s-0.6-2.4-1.8-2.4c-0.8,0-1.2,0.4-1.4,1.3l-1-0.2c0.3-1.3,1.1-2,2.5-2
			c0.6,0,1.1,0.1,1.5,0.4c0.5,0.3,0.8,0.6,1,1.1C80,108.1,80.1,108.7,80.1,109.4z"/>
		<path class="st3" d="M82.8,106.3l-0.5,1.2h-0.1l-0.5-1.2H82.8z M82.8,112.5h-1.2l0.5-1.2h0.1L82.8,112.5z"/>
		<path class="st3" d="M89.8,114.9h-2.3V114h1.3v-9.2h-1.3v-0.9h2.3V114.9z"/>
	</g>
</g>
<g>
	<g class="st0">
		<path class="st3" d="M144,114.9v-11h2.3v0.9H145v9.2h1.3v0.9H144z"/>
		<path class="st3" d="M149.3,114.9l0.2-0.9c0.2,0.1,0.4,0.1,0.5,0.1c0.2,0,0.4-0.1,0.5-0.2s0.2-0.5,0.2-1.1v-6.5h1.1v6.6
			c0,0.8-0.1,1.3-0.3,1.6c-0.3,0.4-0.7,0.6-1.3,0.6C149.9,115,149.6,115,149.3,114.9z M150.7,105.1v-1.2h1.1v1.2H150.7z"/>
		<path class="st3" d="M158.1,109.4c0,1-0.2,1.7-0.7,2.3c-0.5,0.6-1.2,0.9-2.1,0.9c-0.7,0-1.3-0.2-1.7-0.6s-0.7-1-0.9-1.7l1-0.1
			c0.1,1,0.7,1.6,1.6,1.6c1.2,0,1.7-0.8,1.7-2.4s-0.6-2.4-1.8-2.4c-0.8,0-1.2,0.4-1.4,1.3l-1-0.2c0.3-1.3,1.1-2,2.5-2
			c0.6,0,1.1,0.1,1.5,0.4c0.5,0.3,0.8,0.6,1,1.1C158,108.1,158.1,108.7,158.1,109.4z"/>
		<path class="st3" d="M164.4,114.9h-2.3V114h1.3v-9.2h-1.3v-0.9h2.3V114.9z"/>
	</g>
</g>
<g>
	<g class="st0">
		<path class="st3" d="M236.7,114.9v-11h2.3v0.9h-1.3v9.2h1.3v0.9H236.7z"/>
		<path class="st3" d="M251.8,112.5h-0.9v-0.9c-0.4,0.7-1.1,1-1.9,1c-0.9,0-1.5-0.4-1.8-1.1c-0.5,0.7-1.1,1.1-1.9,1.1
			c-1.3,0-1.9-0.7-1.9-2.1v-4.3h1v3.9c0,0.7,0.2,1.2,0.5,1.4c0.2,0.1,0.4,0.2,0.6,0.2c0.5,0,0.9-0.2,1.2-0.5
			c0.2-0.3,0.3-0.7,0.3-1.3v-3.6h1.1v4c0,0.9,0.4,1.4,1.1,1.4c0.7,0,1.1-0.3,1.4-0.9c0.1-0.3,0.2-0.7,0.2-1.3v-3.2h1.1v6.2
			C251.9,112.5,251.8,112.5,251.8,112.5z"/>
		<path class="st3" d="M254.8,106.3l-0.5,1.2h-0.1l-0.5-1.2H254.8z M254.8,112.5h-1.2l0.5-1.2h0.1L254.8,112.5z"/>
		<path class="st3" d="M261.8,114.9h-2.3V114h1.3v-9.2h-1.3v-0.9h2.3V114.9z"/>
	</g>
</g>
<g>
	<g class="st0">
		<path class="st3" d="M279.4,114.9v-11h2.3v0.9h-1.3v9.2h1.3v0.9H279.4z"/>
		<path class="st3" d="M286,105.1v-1.2h1.1v1.2H286z M286,112.5v-6.2h1.1v6.2H286z"/>
		<path class="st3" d="M290.1,106.3l-0.5,1.2h-0.1l-0.5-1.2H290.1z M290.1,112.5h-1.2l0.5-1.2h0.1L290.1,112.5z"/>
		<path class="st3" d="M297.1,114.9h-2.3V114h1.3v-9.2h-1.3v-0.9h2.3V114.9z"/>
	</g>
</g>
<g>
	<g class="st0">
		<path class="st3" d="M368.4,114.9v-11h2.3v0.9h-1.3v9.2h1.3v0.9H368.4z"/>
		<path class="st3" d="M374.6,109.4c0-1.2,0.3-2,1-2.6c0.5-0.5,1.2-0.7,2-0.7c0.9,0,1.6,0.3,2.1,0.8s0.8,1.3,0.8,2.3
			c0,0.8-0.1,1.4-0.4,1.9s-0.6,0.8-1,1.1s-1,0.4-1.5,0.4c-0.9,0-1.6-0.3-2.1-0.8S374.6,110.4,374.6,109.4z M375.7,109.4
			c0,0.8,0.2,1.4,0.5,1.8s0.8,0.6,1.3,0.6s1-0.2,1.3-0.6s0.5-1,0.5-1.8s-0.2-1.4-0.5-1.7s-0.8-0.6-1.3-0.6s-1,0.2-1.3,0.6
			S375.7,108.6,375.7,109.4z"/>
		<path class="st3" d="M383.2,106.3l-0.5,1.2h-0.1l-0.5-1.2H383.2z M383.2,112.5H382l0.5-1.2h0.1L383.2,112.5z"/>
		<path class="st3" d="M390.1,114.9h-2.3V114h1.3v-9.2h-1.3v-0.9h2.3V114.9z"/>
	</g>
</g>
<g>
	<g class="st0">
		<path class="st3" d="M444.5,114.9v-11h2.3v0.9h-1.3v9.2h1.3v0.9H444.5z"/>
		<path class="st3" d="M449.8,114.9l0.2-0.9c0.2,0.1,0.4,0.1,0.5,0.1c0.2,0,0.4-0.1,0.5-0.2s0.2-0.5,0.2-1.1v-6.5h1.1v6.6
			c0,0.8-0.1,1.3-0.3,1.6c-0.3,0.4-0.7,0.6-1.3,0.6C450.3,115,450,115,449.8,114.9z M451,105.1v-1.2h1.1v1.2H451z"/>
		<path class="st3" d="M453.4,109.4c0-1.2,0.3-2,1-2.6c0.5-0.5,1.2-0.7,2-0.7c0.9,0,1.6,0.3,2.1,0.8s0.8,1.3,0.8,2.3
			c0,0.8-0.1,1.4-0.4,1.9s-0.6,0.8-1,1.1s-1,0.4-1.5,0.4c-0.9,0-1.6-0.3-2.1-0.8S453.4,110.4,453.4,109.4z M454.5,109.4
			c0,0.8,0.2,1.4,0.5,1.8s0.8,0.6,1.3,0.6s1-0.2,1.3-0.6s0.5-1,0.5-1.8s-0.2-1.4-0.5-1.7s-0.8-0.6-1.3-0.6s-1,0.2-1.3,0.6
			S454.5,108.6,454.5,109.4z"/>
		<path class="st3" d="M465.5,114.9h-2.3V114h1.3v-9.2h-1.3v-0.9h2.3V114.9z"/>
	</g>
</g>
<g>
	<g class="st0">
		<path class="st3" d="M406.3,114.9v-11h2.3v0.9h-1.3v9.2h1.3v0.9H406.3z"/>
		<path class="st3" d="M417,112.5v-0.9c-0.5,0.7-1.1,1.1-2,1.1c-0.4,0-0.7-0.1-1-0.2s-0.6-0.3-0.7-0.5s-0.3-0.5-0.3-0.8
			c0-0.2-0.1-0.5-0.1-1v-3.9h1.1v3.5c0,0.6,0,0.9,0.1,1.1c0.1,0.3,0.2,0.5,0.4,0.7s0.5,0.2,0.8,0.2s0.6-0.1,0.9-0.2s0.5-0.4,0.6-0.7
			s0.2-0.7,0.2-1.2v-3.3h1.1v6.2L417,112.5L417,112.5z"/>
		<path class="st3" d="M421.1,106.3l-0.5,1.2h-0.1l-0.5-1.2H421.1z M421.1,112.5h-1.2l0.5-1.2h0.1L421.1,112.5z"/>
		<path class="st3" d="M428,114.9h-2.3V114h1.3v-9.2h-1.3v-0.9h2.3V114.9z"/>
	</g>
</g>
<g>
	<g class="st0">
		<path class="st3" d="M484.7,114.9v-11h2.3v0.9h-1.3v9.2h1.3v0.9H484.7z"/>
		<path class="st3" d="M490,114.9l0.2-0.9c0.2,0.1,0.4,0.1,0.5,0.1c0.2,0,0.4-0.1,0.5-0.2s0.2-0.5,0.2-1.1v-6.5h1.1v6.6
			c0,0.8-0.1,1.3-0.3,1.6c-0.3,0.4-0.7,0.6-1.3,0.6C490.5,115,490.3,115,490,114.9z M491.3,105.1v-1.2h1.1v1.2H491.3z"/>
		<path class="st3" d="M498.1,112.5v-0.9c-0.5,0.7-1.1,1.1-2,1.1c-0.4,0-0.7-0.1-1-0.2s-0.6-0.3-0.7-0.5s-0.3-0.5-0.3-0.8
			c0-0.2-0.1-0.5-0.1-1v-3.9h1.1v3.5c0,0.6,0,0.9,0.1,1.1c0.1,0.3,0.2,0.5,0.4,0.7s0.5,0.2,0.8,0.2s0.6-0.1,0.9-0.2s0.5-0.4,0.6-0.7
			s0.2-0.7,0.2-1.2v-3.3h1.1v6.2L498.1,112.5L498.1,112.5z"/>
		<path class="st3" d="M505.8,114.9h-2.3V114h1.3v-9.2h-1.3v-0.9h2.3V114.9z"/>
	</g>
</g>
<g>
	<g class="st0">
		<path class="st3" d="M29.9,248.9v-11h2.3v0.9H31v9.2h1.3v0.9L29.9,248.9L29.9,248.9z"/>
		<path class="st3" d="M41,244.7c-0.2,1.3-1,1.9-2.5,1.9c-0.7,0-1.2-0.1-1.6-0.4c-0.5-0.3-0.7-0.8-0.7-1.4c0-0.7,0.3-1.2,0.9-1.6
			c-0.5-0.3-0.7-0.7-0.7-1.2c0-0.6,0.2-1,0.7-1.4c0.4-0.3,0.9-0.5,1.5-0.5c1.2,0,1.9,0.6,2.3,1.8l-1,0.2c-0.2-0.7-0.7-1-1.2-1
			c-0.3,0-0.5,0.1-0.7,0.2s-0.3,0.4-0.3,0.7c0,0.2,0.1,0.4,0.2,0.6s0.3,0.3,0.5,0.3s0.5,0,0.9,0.1v0.8c-0.1,0-0.2,0-0.2,0
			c-0.4,0-0.7,0-0.8,0c-0.3,0.1-0.5,0.2-0.6,0.4s-0.2,0.4-0.2,0.6c0,0.3,0.1,0.6,0.4,0.8c0.2,0.2,0.5,0.3,0.9,0.3s0.7-0.1,1-0.4
			c0.3-0.2,0.4-0.5,0.5-0.9L41,244.7z"/>
		<path class="st3" d="M43.6,240.3l-0.5,1.2H43l-0.5-1.2H43.6z M43.6,246.5h-1.2l0.5-1.2H43L43.6,246.5z"/>
		<path class="st3" d="M50.5,248.9h-2.3V248h1.3v-9.2h-1.3v-0.9h2.3V248.9z"/>
	</g>
</g>
<g>
	<g class="st0">
		<path class="st3" d="M67.6,248.9v-11h2.3v0.9h-1.3v9.2h1.3v0.9L67.6,248.9L67.6,248.9z"/>
		<path class="st3" d="M72.9,248.9l0.2-0.9c0.2,0.1,0.4,0.1,0.5,0.1c0.2,0,0.4-0.1,0.5-0.2s0.2-0.5,0.2-1.1v-6.5h1.1v6.6
			c0,0.8-0.1,1.3-0.3,1.6c-0.3,0.4-0.7,0.6-1.3,0.6C73.5,249,73.2,249,72.9,248.9z M74.3,239.1v-1.2h1.1v1.2H74.3z"/>
		<path class="st3" d="M81.3,244.7c-0.2,1.3-1,1.9-2.5,1.9c-0.7,0-1.2-0.1-1.6-0.4c-0.5-0.3-0.7-0.8-0.7-1.4c0-0.7,0.3-1.2,0.9-1.6
			c-0.5-0.3-0.7-0.7-0.7-1.2c0-0.6,0.2-1,0.7-1.4c0.4-0.3,0.9-0.5,1.5-0.5c1.2,0,1.9,0.6,2.3,1.8l-1,0.2c-0.2-0.7-0.7-1-1.2-1
			c-0.3,0-0.5,0.1-0.7,0.2S78,241.7,78,242c0,0.2,0.1,0.4,0.2,0.6s0.3,0.3,0.5,0.3s0.5,0,0.9,0.1v0.8c-0.1,0-0.2,0-0.2,0
			c-0.4,0-0.7,0-0.8,0c-0.3,0.1-0.5,0.2-0.6,0.4s-0.2,0.4-0.2,0.6c0,0.3,0.1,0.6,0.4,0.8c0.2,0.2,0.5,0.3,0.9,0.3s0.7-0.1,1-0.4
			c0.3-0.2,0.4-0.5,0.5-0.9L81.3,244.7z"/>
		<path class="st3" d="M83.9,240.3l-0.5,1.2h-0.1l-0.5-1.2H83.9z M83.9,246.5h-1.2l0.5-1.2h0.1L83.9,246.5z"/>
		<path class="st3" d="M90.9,248.9h-2.3V248h1.3v-9.2h-1.3v-0.9h2.3V248.9z"/>
	</g>
</g>
<g>
	<g class="st0">
		<path class="st3" d="M107.4,248.9v-11h2.3v0.9h-1.3v9.2h1.3v0.9L107.4,248.9L107.4,248.9z"/>
		<path class="st3" d="M118.3,244.5l1.1,0.1c-0.2,0.6-0.5,1.1-1,1.5s-1.1,0.5-1.8,0.5c-0.9,0-1.6-0.3-2.2-0.8s-0.8-1.3-0.8-2.4
			c0-1,0.3-1.9,0.8-2.4s1.2-0.9,2.1-0.9c0.8,0,1.5,0.3,2,0.8s0.8,1.4,0.8,2.4c0,0.1,0,0.2,0,0.3h-4.6c0,0.7,0.2,1.2,0.6,1.6
			s0.8,0.5,1.3,0.5c0.4,0,0.7-0.1,1-0.3S118.1,244.9,118.3,244.5z M114.8,242.8h3.5c0-0.5-0.2-0.9-0.4-1.2c-0.3-0.4-0.8-0.6-1.3-0.6
			s-0.9,0.2-1.2,0.5S114.8,242.2,114.8,242.8z"/>
		<path class="st3" d="M122.2,240.3l-0.5,1.2h-0.1l-0.5-1.2H122.2z M122.2,246.5H121l0.5-1.2h0.1L122.2,246.5z"/>
		<path class="st3" d="M129.1,248.9h-2.3V248h1.3v-9.2h-1.3v-0.9h2.3V248.9z"/>
	</g>
</g>
<g>
	<g class="st0">
		<path class="st3" d="M146,248.9v-11h2.3v0.9H147v9.2h1.3v0.9L146,248.9L146,248.9z"/>
		<path class="st3" d="M151.3,248.9l0.2-0.9c0.2,0.1,0.4,0.1,0.5,0.1c0.2,0,0.4-0.1,0.5-0.2s0.2-0.5,0.2-1.1v-6.5h1.1v6.6
			c0,0.8-0.1,1.3-0.3,1.6c-0.3,0.4-0.7,0.6-1.3,0.6C151.9,249,151.6,249,151.3,248.9z M152.7,239.1v-1.2h1.1v1.2H152.7z"/>
		<path class="st3" d="M160.1,243.4c0,1-0.2,1.7-0.7,2.3s-1.2,0.9-2.1,0.9c-0.7,0-1.3-0.2-1.7-0.6s-0.7-1-0.9-1.7l1-0.1
			c0.1,1,0.7,1.6,1.6,1.6c1.2,0,1.7-0.8,1.7-2.4s-0.6-2.4-1.8-2.4c-0.8,0-1.2,0.4-1.4,1.3l-1-0.2c0.3-1.3,1.1-2,2.5-2
			c0.6,0,1.1,0.1,1.5,0.4c0.5,0.3,0.8,0.6,1,1.1C160,242.1,160.1,242.7,160.1,243.4z"/>
		<path class="st3" d="M166.4,248.9h-2.3V248h1.3v-9.2h-1.3v-0.9h2.3V248.9z"/>
	</g>
</g>
<g>
	<g class="st0">
		<path class="st3" d="M217.6,248.9v-11h2.3v0.9h-1.3v9.2h1.3v0.9L217.6,248.9L217.6,248.9z"/>
		<path class="st3" d="M225.4,246.5l-1.9-6.2h1.1l1,3.6l0.4,1.3c0-0.1,0.1-0.5,0.3-1.3l1-3.6h1.1l0.9,3.6l0.3,1.2l0.4-1.2l1.1-3.6h1
			l-1.9,6.2H229l-1-3.7l-0.2-1.1l-1.3,4.8H225.4L225.4,246.5z"/>
		<path class="st3" d="M237,245.7c-0.4,0.3-0.8,0.6-1.1,0.7s-0.7,0.2-1.2,0.2c-0.7,0-1.2-0.2-1.6-0.5s-0.6-0.8-0.6-1.3
			c0-0.3,0.1-0.6,0.2-0.8s0.3-0.5,0.5-0.6s0.5-0.3,0.8-0.3c0.2-0.1,0.5-0.1,0.9-0.2c0.9-0.1,1.5-0.2,1.9-0.4c0-0.1,0-0.2,0-0.3
			c0-0.4-0.1-0.7-0.3-0.9c-0.3-0.2-0.7-0.4-1.2-0.4s-0.9,0.1-1.1,0.3s-0.4,0.5-0.5,0.9l-1-0.1c0.1-0.4,0.2-0.8,0.5-1.1
			s0.5-0.5,0.9-0.6s0.9-0.2,1.4-0.2s1,0.1,1.3,0.2s0.6,0.3,0.7,0.5s0.3,0.4,0.3,0.7c0,0.2,0.1,0.5,0.1,1v1.4c0,1,0,1.6,0.1,1.9
			s0.1,0.5,0.3,0.7h-1.1C237.1,246.3,237,246,237,245.7z M236.9,243.4c-0.4,0.2-1,0.3-1.7,0.4c-0.4,0.1-0.7,0.1-0.9,0.2
			s-0.3,0.2-0.4,0.3s-0.1,0.3-0.1,0.5c0,0.3,0.1,0.5,0.3,0.7s0.5,0.3,0.9,0.3s0.8-0.1,1.1-0.3s0.5-0.4,0.7-0.7
			c0.1-0.2,0.2-0.6,0.2-1.1v-0.3L236.9,243.4L236.9,243.4z"/>
		<path class="st3" d="M241.1,240.3l-0.5,1.2h-0.1l-0.5-1.2H241.1z M241.1,246.5h-1.2l0.5-1.2h0.1L241.1,246.5z"/>
		<path class="st3" d="M248,248.9h-2.3V248h1.3v-9.2h-1.3v-0.9h2.3V248.9z"/>
		<path class="st3" d="M259.6,248.9v-11h2.3v0.9h-1.3v9.2h1.3v0.9L259.6,248.9L259.6,248.9z"/>
		<path class="st3" d="M267.4,246.5l-1.9-6.2h1.1l1,3.6l0.4,1.3c0-0.1,0.1-0.5,0.3-1.3l1-3.6h1.1l0.9,3.6l0.3,1.2l0.4-1.2l1.1-3.6h1
			l-1.9,6.2H271l-1-3.7l-0.2-1.1l-1.3,4.8H267.4L267.4,246.5z"/>
		<path class="st3" d="M279.3,244.7c-0.2,1.3-1,1.9-2.5,1.9c-0.7,0-1.2-0.1-1.6-0.4c-0.5-0.3-0.7-0.8-0.7-1.4c0-0.7,0.3-1.2,0.9-1.6
			c-0.5-0.3-0.7-0.7-0.7-1.2c0-0.6,0.2-1,0.7-1.4c0.4-0.3,0.9-0.5,1.5-0.5c1.2,0,1.9,0.6,2.3,1.8l-1,0.2c-0.2-0.7-0.7-1-1.2-1
			c-0.3,0-0.5,0.1-0.7,0.2s-0.3,0.4-0.3,0.7c0,0.2,0.1,0.4,0.2,0.6s0.3,0.3,0.5,0.3s0.5,0,0.9,0.1v0.8c-0.1,0-0.2,0-0.2,0
			c-0.4,0-0.7,0-0.8,0c-0.3,0.1-0.5,0.2-0.6,0.4s-0.2,0.4-0.2,0.6c0,0.3,0.1,0.6,0.4,0.8c0.2,0.2,0.5,0.3,0.9,0.3s0.7-0.1,1-0.4
			c0.3-0.2,0.4-0.5,0.5-0.9L279.3,244.7z"/>
		<path class="st3" d="M281.9,240.3l-0.5,1.2h-0.1l-0.5-1.2H281.9z M281.9,246.5h-1.2l0.5-1.2h0.1L281.9,246.5z"/>
		<path class="st3" d="M288.9,248.9h-2.3V248h1.3v-9.2h-1.3v-0.9h2.3V248.9z"/>
		<path class="st3" d="M300.5,248.9v-11h2.3v0.9h-1.3v9.2h1.3v0.9L300.5,248.9L300.5,248.9z"/>
		<path class="st3" d="M308.2,246.5l-1.9-6.2h1.1l1,3.6l0.4,1.3c0-0.1,0.1-0.5,0.3-1.3l1-3.6h1.1l0.9,3.6l0.3,1.2l0.4-1.2l1.1-3.6h1
			l-1.9,6.2h-1.1l-1-3.7l-0.2-1.1l-1.3,4.8H308.2L308.2,246.5z"/>
		<path class="st3" d="M320,244.5l1.1,0.1c-0.2,0.6-0.5,1.1-1,1.5s-1.1,0.5-1.8,0.5c-0.9,0-1.6-0.3-2.2-0.8s-0.8-1.3-0.8-2.4
			c0-1,0.3-1.9,0.8-2.4s1.2-0.9,2.1-0.9c0.8,0,1.5,0.3,2,0.8s0.8,1.4,0.8,2.4c0,0.1,0,0.2,0,0.3h-4.6c0,0.7,0.2,1.2,0.6,1.6
			s0.8,0.5,1.3,0.5c0.4,0,0.7-0.1,1-0.3S319.9,244.9,320,244.5z M316.6,242.8h3.5c0-0.5-0.2-0.9-0.4-1.2c-0.3-0.4-0.8-0.6-1.3-0.6
			s-0.9,0.2-1.2,0.5S316.6,242.2,316.6,242.8z"/>
		<path class="st3" d="M323.9,240.3l-0.5,1.2h-0.1l-0.5-1.2H323.9z M323.9,246.5h-1.2l0.5-1.2h0.1L323.9,246.5z"/>
		<path class="st3" d="M330.9,248.9h-2.3V248h1.3v-9.2h-1.3v-0.9h2.3V248.9z"/>
	</g>
</g>
<g class="st0">
	<path class="st1" d="M274,186.9c0-0.8-0.4-1.2-2.9-2.1c-0.1,0-0.1-0.1-0.1-0.1c0-0.2,0.6-0.5,0.9-0.5c1.3,0.2,2.4,0.6,3.3,0.9
		c0.6,0.2,0.8,0.5,0.8,0.8s-0.2,0.6-0.2,0.8V198h6v-13.4c0-0.6-0.5-1.2-3.6-2.3c-0.1,0-0.1-0.1-0.1-0.1c0-0.2,0.5-0.5,1-0.5
		c2,0.4,3.2,0.8,4.1,1.1c0.6,0.2,0.8,0.5,0.8,0.7c0,0.3-0.2,0.6-0.2,0.9v26.8c0,1.8-0.6,3.4-1.1,3.4c-0.3,0-0.8-1-0.8-2.1v-13.4h-6
		v9.7c0,1.9-0.6,3.4-1,3.4c-0.3,0-0.7-1.2-0.7-2.1v-9.3c-4.9,1.9-9.5,3.3-12.3,3.9c-1.5,0.4-1.7,0.9-2.3,0.9c-0.8,0-4.9-1.5-4.9-2.1
		c0-0.1,0.1-0.1,0.3-0.1s0.3,0,0.5,0.1c1,0.2,1.8,0.2,2.7,0.2c1.4,0,2.9-0.2,5.2-0.6c-0.1-0.2-0.2-0.7-0.3-1.7v-9.2
		c0-0.8-0.2-1.4-2.4-1.9l0,0c0-0.2,0.4-0.5,0.9-0.6c1.6,0.1,2.4,0.3,3,0.5c0.4,0.2,0.5,0.4,0.5,0.6c0,0.3-0.2,0.7-0.2,1.2v8.3
		c0,1.3-0.1,2.2-0.5,2.6c2.7-0.7,7.4-2.1,9.8-2.9v-13.1L274,186.9L274,186.9z"/>
</g>
<g class="st0">
	<path class="st1" d="M322.6,184.9c0-0.9-1.4-1.5-3.7-2.4c-0.1,0-0.1-0.1-0.1-0.1c0-0.2,0.6-0.4,1-0.5c1.5,0.3,3.4,0.9,4.1,1.2
		c0.6,0.2,0.7,0.5,0.7,0.8s-0.1,0.6-0.1,0.9V211c0,1.9-0.6,3.7-1.2,3.7c-0.4,0-0.7-1.3-0.7-2.4v-11.6c-6.5,2.3-12.4,4-18.3,5.2
		c-1.1,0.4-1.2,0.8-1.7,0.8s-0.9-0.2-4.1-2c-0.1-0.1-0.1-0.2-0.1-0.3s0.1-0.1,0.3-0.1c0.1,0,0.3,0,0.6,0.1c0.6,0.2,1.3,0.2,2.2,0.2
		c2.2,0,5.1-0.5,7.8-1c-0.2-0.2-0.3-1.4-0.3-2.2v-10c0-0.6-0.3-1.4-2.4-1.8c0-0.2,0.3-0.6,1.1-0.6c1.4,0.1,2.3,0.3,2.9,0.6
		c0.4,0.2,0.5,0.4,0.5,0.7s-0.1,0.7-0.1,1v9.1c0.1,1.3-0.2,2.3-0.5,2.9c2.5-0.6,7-1.5,12.2-3.3L322.6,184.9L322.6,184.9z"/>
</g>
<g>
	<path class="st3" d="M365.7,249v-11h2.3v0.9h-1.3v9.2h1.3v0.9L365.7,249L365.7,249z"/>
	<path class="st3" d="M373.5,246.6l-1.9-6.2h1.1l1,3.6l0.4,1.3c0-0.1,0.1-0.5,0.3-1.3l1-3.6h1.1l0.9,3.6l0.3,1.2l0.4-1.2l1.1-3.6h1
		l-1.9,6.2h-1.1l-1-3.7l-0.2-1.1l-1.3,4.8H373.5z"/>
	<path class="st3" d="M385.8,243.5c0,1-0.2,1.7-0.7,2.3s-1.2,0.9-2.1,0.9c-0.7,0-1.3-0.2-1.7-0.6s-0.7-1-0.9-1.7l1-0.1
		c0.1,1,0.7,1.6,1.6,1.6c1.2,0,1.7-0.8,1.7-2.4c0-1.6-0.6-2.4-1.8-2.4c-0.8,0-1.2,0.4-1.4,1.3l-1-0.2c0.3-1.3,1.1-2,2.5-2
		c0.6,0,1.1,0.1,1.5,0.4c0.5,0.3,0.8,0.6,1,1.1C385.7,242.3,385.8,242.8,385.8,243.5z"/>
	<path class="st3" d="M388.5,240.4l-0.5,1.2h-0.1l-0.5-1.2H388.5z M388.5,246.6h-1.2l0.5-1.2h0.1L388.5,246.6z"/>
	<path class="st3" d="M395.5,249h-2.3v-0.9h1.3v-9.2h-1.3V238h2.3V249z"/>
	<path class="st3" d="M407.1,249v-11h2.3v0.9h-1.3v9.2h1.3v0.9L407.1,249L407.1,249z"/>
	<path class="st3" d="M414.8,246.6l-1.9-6.2h1.1l1,3.6l0.4,1.3c0-0.1,0.1-0.5,0.3-1.3l1-3.6h1.1l0.9,3.6l0.3,1.2l0.4-1.2l1.1-3.6h1
		l-1.9,6.2h-1.1l-1-3.7l-0.2-1.1l-1.3,4.8H414.8z"/>
	<path class="st3" d="M426.6,244.6l1.1,0.1c-0.2,0.6-0.5,1.1-1,1.5s-1.1,0.5-1.8,0.5c-0.9,0-1.6-0.3-2.2-0.8s-0.8-1.3-0.8-2.4
		c0-1,0.3-1.9,0.8-2.4s1.2-0.9,2.1-0.9c0.8,0,1.5,0.3,2,0.8s0.8,1.4,0.8,2.4c0,0.1,0,0.2,0,0.3H423c0,0.7,0.2,1.2,0.6,1.6
		s0.8,0.5,1.3,0.5c0.4,0,0.7-0.1,1-0.3S426.5,245,426.6,244.6z M423.2,242.9h3.5c0-0.5-0.2-0.9-0.4-1.2c-0.3-0.4-0.8-0.6-1.3-0.6
		s-0.9,0.2-1.2,0.5S423.2,242.3,423.2,242.9z"/>
	<path class="st3" d="M430.5,240.4l-0.5,1.2h-0.1l-0.5-1.2H430.5z M430.5,246.6h-1.2l0.5-1.2h0.1L430.5,246.6z"/>
	<path class="st3" d="M437.5,249h-2.3v-0.9h1.3v-9.2h-1.3V238h2.3V249z"/>
	<path class="st3" d="M449.1,249v-11h2.3v0.9h-1.3v9.2h1.3v0.9L449.1,249L449.1,249z"/>
	<path class="st3" d="M456.9,246.6l-1.9-6.2h1.1l1,3.6l0.4,1.3c0-0.1,0.1-0.5,0.3-1.3l1-3.6h1.1l0.9,3.6l0.3,1.2l0.4-1.2l1.1-3.6h1
		l-1.9,6.2h-1.1l-1-3.7l-0.2-1.1l-1.3,4.8H456.9z"/>
	<path class="st3" d="M464.4,239.2V238h1.1v1.2H464.4z M464.4,246.6v-6.2h1.1v6.2H464.4z"/>
	<path class="st3" d="M468.5,240.4l-0.5,1.2h-0.1l-0.5-1.2H468.5z M468.5,246.6h-1.2l0.5-1.2h0.1L468.5,246.6z"/>
	<path class="st3" d="M475.5,249h-2.3v-0.9h1.3v-9.2h-1.3V238h2.3V249z"/>
	<path class="st3" d="M487.1,249v-11h2.3v0.9h-1.3v9.2h1.3v0.9L487.1,249L487.1,249z"/>
	<path class="st3" d="M502.1,246.6h-0.9v-0.9c-0.4,0.7-1.1,1-1.9,1c-0.9,0-1.5-0.4-1.8-1.1c-0.5,0.7-1.1,1.1-1.9,1.1
		c-1.3,0-1.9-0.7-1.9-2.1v-4.3h1v3.9c0,0.7,0.2,1.2,0.5,1.4c0.2,0.1,0.4,0.2,0.6,0.2c0.5,0,0.9-0.2,1.2-0.5c0.2-0.3,0.3-0.7,0.3-1.3
		v-3.6h1.1v4c0,0.9,0.4,1.4,1.1,1.4s1.1-0.3,1.4-0.9c0.1-0.3,0.2-0.7,0.2-1.3v-3.2h1.1v6.2H502.1z"/>
	<path class="st3" d="M503.7,239.2V238h1.1v1.2H503.7z M503.7,246.6v-6.2h1.1v6.2H503.7z"/>
	<path class="st3" d="M507.9,240.4l-0.5,1.2h-0.1l-0.5-1.2H507.9z M507.9,246.6h-1.2l0.5-1.2h0.1L507.9,246.6z"/>
	<path class="st3" d="M514.8,249h-2.3v-0.9h1.3v-9.2h-1.3V238h2.3V249z"/>
</g>
</svg>
