<?xml version="1.0" encoding="utf-8"?>
<!-- Generator: Adobe Illustrator 22.0.0, SVG Export Plug-In . SVG Version: 6.00 Build 0)  -->
<svg version="1.1" id="Layer_1" xmlns="http://www.w3.org/2000/svg" xmlns:xlink="http://www.w3.org/1999/xlink" x="0px" y="0px"
	 viewBox="0 0 536.8 378" style="enable-background:new 0 0 536.8 378;" xml:space="preserve">
<style type="text/css">
	.st0{enable-background:new    ;}
	.st1{fill:#457CAD;}
	.st2{fill:#949494;}
	.st3{fill:none;stroke:#D4D4D4;stroke-miterlimit:10;}
</style>
<g>
	<g class="st0">
		<path class="st1" d="M99.2,296.7c-0.2,0-0.4,0-0.5,0.1c-0.1,0-0.2,0.1-0.3,0.1c-0.2,0.1-0.5,0.1-0.7,0.1c-0.4-0.1-1-0.4-1.9-0.9
			c-0.5-0.3-0.8-0.5-0.7-0.7c0.1-0.1,0.5-0.2,1.3,0c0.6,0.1,1.8,0.1,3.5,0.1c1.9,0,3.7-0.1,5.5-0.3c0.1,0,0.2,0,0.3-0.1
			c0,0,0.1,0,0.2-0.1c0.1,0,0.2-0.1,0.3-0.1c0.2,0,0.5,0,1,0.1c0.7,0.1,1.1,0.2,1.2,0.4c0.1,0.1,0,0.3-0.1,0.6
			c-0.1,0.1-0.1,0.2-0.1,0.3c0,0.1,0,0.2,0,0.4c0,5.3,0,8.8-0.1,10.5c0,1.8-0.2,3-0.4,3.7c-0.4,1.3-0.8,2-1.2,2.1
			c-0.4,0.1-0.6-0.6-0.6-2v-14.9L99.2,296.7z M119.1,296.1c-0.3,0-0.9,0-1.7,0.1l-3,0.2c-0.2,0-0.3,0-0.4,0.1
			c-0.1,0-0.2,0.1-0.3,0.1c-0.3,0.1-0.5,0.2-0.8,0.1c-0.3,0-0.9-0.2-1.5-0.6c-0.7-0.4-1-0.6-1-0.8c0-0.1,0.5-0.2,1.2-0.1
			c0.6,0.1,2,0.1,4.1,0s3.6-0.2,4.6-0.3c0,0,0.1,0,0.1-0.1c0,0,0,0,0.1-0.1s0.2-0.1,0.3-0.1c0.2,0,0.6,0,1.2,0.1
			c0.7,0.1,1.1,0.2,1.2,0.3c0.1,0.1,0.1,0.2-0.1,0.5c0,0.1-0.1,0.2-0.1,0.2c0,0.1-0.1,0.2-0.1,0.3c0,5.2,0,8.5-0.1,10
			c0,2.1-0.1,3.6-0.3,4.8c-0.2,1.4-0.6,2.1-1.1,2.3c-0.5,0.1-0.8-0.5-0.8-1.8V296C120.2,296,119.7,296.1,119.1,296.1z"/>
	</g>
</g>
<g>
	<g class="st0">
		<path class="st1" d="M46.6,51.2c-1.3,0-3.5,0.1-6.5,0.2l-4.7,0.1c-0.4,0-0.7,0-1,0.1c-0.2,0-0.4,0.1-0.6,0.2
			C33.4,52,33,52.1,32.6,52c-0.6-0.1-1.5-0.5-2.7-1.1c-0.5-0.3-0.8-0.5-0.7-0.7c0-0.2,0.4-0.2,1-0.1c1.3,0.2,3.5,0.3,6.6,0.3
			c1.8,0,4.9-0.1,9.2-0.2l3.5-0.1c0.2,0,0.3,0,0.5-0.1c0.1,0,0.2-0.1,0.3-0.1c0.2-0.1,0.4-0.2,0.6-0.2c0.3,0,0.6,0,1.1,0
			c0.9,0,1.5,0.2,1.6,0.4c0.1,0.1,0.1,0.3,0,0.7c-0.1,0.1-0.1,0.3-0.1,0.3c0,0.1,0,0.3,0,0.4v6.7c0,2.4,0,4.1-0.1,5.2
			c-0.1,1.3-0.2,2.5-0.5,3.6c-0.3,0.9-0.6,1.5-1.1,1.6s-0.7-0.3-0.7-1.3V51.1C50.3,51.1,48.8,51.2,46.6,51.2z"/>
	</g>
</g>
<g>
	<g class="st0">
		<path class="st1" d="M321.1,53c-0.4-0.2-1-0.5-1.8-0.8c-0.5-0.1-0.8-0.2-0.9-0.4c0-0.2,0.3-0.4,1-0.5c0.8,0,1.6,0.1,2.3,0.2
			c0.8,0.1,1.6,0.3,2.2,0.4c1.1,0,3.6,0,7.5-0.1c4.2-0.1,7.1-0.2,8.5-0.2c0.2,0,0.4-0.1,0.6-0.1c0.1,0,0.2-0.1,0.3-0.1
			c0.1-0.1,0.3-0.1,0.4-0.1c0.3,0,0.8-0.1,1.4,0c1.1,0,1.7,0.1,1.9,0.4c0.1,0.2,0,0.5-0.3,0.9l-0.3,0.6c-0.4,1.6-0.8,3.5-1.3,5.6
			s-0.9,4.2-1.4,6.5c0.9,0.1,1.4,0.3,1.5,0.7c0.1,0.4-0.2,0.6-0.9,0.6L324.6,67c-0.3,1.2-0.7,1.9-1.2,2c-0.4,0.1-0.6-0.3-0.7-1.2
			l-0.4-5.3l-0.6-8.3C321.7,53.6,321.5,53.2,321.1,53z M324.5,65.8l2.3-0.1c2.6,0,4.7,0,6.1-0.1c2.4-0.1,4.1-0.1,4.9-0.1l1.2-0.2
			l0.9-0.1c0.3-2.4,0.6-4.9,0.8-7.4c0.2-2.4,0.3-4.1,0.3-5.2l-16.3,0.3l-0.3,0.1c-0.1,0-0.2,0.1-0.3,0.1c0,0.1-0.1,0.2-0.1,0.4
			L324.5,65.8z"/>
	</g>
</g>
<g>
	<g class="st0">
		<path class="st1" d="M87.5,172.7c-2.8,0.1-4.9,0.2-6.3,0.3c-2.4,0.1-4.1,0.2-5.2,0.3c-0.3,0-0.6,0.1-0.8,0.2
			c-0.1,0-0.3,0.1-0.4,0.2c-0.3,0.2-0.6,0.2-0.9,0.1c-0.5-0.1-1.6-0.5-3.3-1.2c-0.5-0.3-0.7-0.5-0.6-0.6s0.5-0.1,1.2-0.1
			c1.5,0.2,4.4,0.2,8.7,0.1c2.8-0.1,6.1-0.2,9.8-0.3c0.2,0,0.4-0.1,0.6-0.1c0.1,0,0.2,0,0.3-0.1c0.2-0.1,0.3-0.1,0.5-0.1
			c0.3,0,0.8-0.1,1.4-0.1c0.9,0,1.4,0.1,1.6,0.3c0.1,0.1,0.1,0.4,0,0.8c-0.1,0.1-0.1,0.3-0.1,0.3c0,0.1-0.1,0.2-0.1,0.4
			c0,4.2,0,7.3-0.1,9.4c-0.1,3.1-0.3,5.1-0.5,6.1c-0.3,0.9-0.6,1.5-1,1.6s-0.6-0.3-0.7-1.3v-9.6c-3.5,0.7-6.4,1.2-8.6,1.6
			c-3.5,0.6-6.5,1-8.9,1.3c-0.2,0-0.4,0-0.5,0.1c-0.1,0-0.2,0.1-0.3,0.1c-0.3,0.1-0.6,0.1-0.9,0.1c-0.5-0.1-1.4-0.5-2.7-1.1
			c-0.7-0.4-1-0.6-0.9-0.7c0.1-0.1,0.5-0.1,1.3-0.1c2.7,0.2,4.7,0.2,5.9,0c8.3-0.8,13.5-1.4,15.7-1.8v-6.2L87.5,172.7z"/>
	</g>
</g>
<g>
	<g class="st0">
		<path class="st1" d="M191.1,173.3c-0.4-0.3-1.1-0.5-1.9-0.8c-0.5-0.1-0.8-0.3-0.9-0.5c0-0.2,0.4-0.4,1.3-0.6c0.7,0,1.6,0,2.7,0.2
			c0.9,0.2,1.7,0.4,2.3,0.6c1.6,0,3.6-0.1,5.9-0.1c2.6-0.1,5-0.1,7.1-0.2c0.3-0.1,0.6-0.2,0.9-0.3c0.1-0.1,0.3-0.2,0.6-0.3
			c0.3-0.2,0.7-0.3,0.9-0.4c0.5-0.1,1.2-0.1,2-0.1c0.7,0,1.2,0.1,1.7,0.3c0.4,0.2,0.6,0.4,0.7,0.7c0,0.2,0,0.5-0.2,0.7
			s-0.5,0.3-0.9,0.3l-12.3,0.3l-6.1,0.2l-0.3,0.1c-0.1,0-0.2,0.1-0.2,0.1c0,0.1,0,0.2,0,0.4v5.7l3.5-0.1c2,0,3.5,0,4.7-0.1
			c1.9,0,3.6-0.1,5.2-0.1c0.3,0,0.5-0.1,0.7-0.2c0.1,0,0.2-0.1,0.3-0.2c0.2-0.1,0.5-0.3,0.8-0.3c0.4-0.1,1.1-0.1,2.1-0.1
			c0.5,0,1,0.1,1.3,0.3c0.2,0.1,0.4,0.3,0.4,0.6c0,0.2-0.1,0.4-0.4,0.6c-0.2,0.2-0.6,0.3-0.9,0.3c-0.7,0-2,0.1-3.9,0.1
			c-1.1,0-3.1,0.1-5.8,0.1l-7.9,0.2v5.9c0,0.4,0.1,0.8,0.3,0.9c0.2,0.2,0.6,0.3,1.2,0.3h12.6c0.5,0,0.9,0,1.2-0.1
			c0.2,0,0.4-0.1,0.6-0.3c0.3-0.2,0.7-0.4,1-0.4c0.6-0.1,1.5-0.2,2.7-0.1c0.5,0,1,0.1,1.3,0.3c0.2,0.2,0.4,0.4,0.4,0.7
			c0,0.2-0.2,0.5-0.4,0.7s-0.6,0.3-1,0.3h-18.8c-1.1,0-2-0.2-2.6-0.7c-0.5-0.4-0.8-1-0.9-1.9l-0.1-11.9
			C191.9,174,191.6,173.6,191.1,173.3z"/>
	</g>
</g>
<g>
	<g class="st0">
		<path class="st1" d="M147.4,177.1c-0.2-0.2-0.5-0.5-1-0.9c-0.4-0.2-0.6-0.4-0.6-0.6c0.1-0.2,0.6-0.3,1.5-0.2
			c0.5,0.1,1.1,0.3,1.7,0.5c0.6,0.2,1.1,0.4,1.4,0.6c0.3,0.2,0.5,0.4,0.5,0.6c0,0.1-0.1,0.3-0.3,0.7l-0.3,0.8c-0.4,1.4-1,3-1.6,4.8
			c-0.6,1.6-1.1,2.9-1.5,3.9c0.6,0,1.3,0,2,0s1.3-0.1,1.6-0.1c0.2,0,0.4-0.1,0.6-0.2c0.1,0,0.2-0.1,0.4-0.2c0.4-0.2,0.7-0.3,1.1-0.4
			c0.6-0.1,1.5-0.2,2.7-0.1c0.6,0,1.1,0.1,1.4,0.3c0.3,0.2,0.4,0.4,0.4,0.7s-0.2,0.5-0.5,0.7s-0.7,0.3-1.2,0.3
			c-4.5,0-8.1,0-10.9,0.1c-3.8,0.1-7.4,0.3-10.8,0.5c-0.2,0-0.4,0.1-0.6,0.1c-0.1,0-0.2,0.1-0.4,0.2c-0.3,0.1-0.6,0.2-1,0.1
			c-0.4-0.1-1.3-0.6-2.6-1.3c-0.4-0.4-0.6-0.6-0.6-0.8s0.4-0.2,1.1,0c1.5,0.3,3.8,0.4,7,0.4c2.6,0,5.7-0.1,9.2-0.3
			c0.2-0.6,0.5-1.6,0.9-3.1c0.4-1.8,0.7-3.7,1-5.8C147.8,177.9,147.7,177.4,147.4,177.1z M149.3,172.2c0.2-0.1,0.4-0.2,0.7-0.3
			c0.3-0.2,0.7-0.4,1-0.4c0.5-0.1,1.4-0.2,2.4-0.2c0.7,0,1.2,0.2,1.6,0.4c0.4,0.2,0.6,0.5,0.6,0.8s-0.1,0.5-0.4,0.7
			s-0.7,0.3-1.2,0.3c-2.4,0-5.4,0-8.9,0.1c-3.3,0.1-6.2,0.3-8.8,0.5c-0.2,0-0.5,0.1-0.6,0.1s-0.3,0.1-0.4,0.2
			c-0.3,0.2-0.7,0.2-1,0.1c-0.5-0.1-1.5-0.6-2.9-1.4c-0.4-0.3-0.6-0.6-0.6-0.7c0.1-0.1,0.5-0.1,1.2,0c1.9,0.3,4.4,0.4,7.5,0.4
			c2.6,0,5.4-0.2,8.3-0.4h0.4C148.5,172.4,148.9,172.3,149.3,172.2z M138.6,186.5c-0.5,0.1-0.9-0.3-1-1.3l-0.1-0.4
			c-0.2-1.1-0.4-2-0.6-2.8c-0.4-1.2-1-2.6-1.8-4.1c-0.3-0.4-0.3-0.8-0.2-0.9c0.1-0.1,0.4,0,0.9,0.3c1.4,1.3,2.3,2.4,2.9,3.3
			c0.6,1.1,1,2.4,1,3.9C139.4,185.7,139.1,186.3,138.6,186.5z"/>
	</g>
</g>
<g>
	<g class="st0">
		<path class="st1" d="M272.7,174.5c0.2,0,0.5-0.2,0.8-0.3c0.3-0.2,0.6-0.3,0.9-0.3c0.5-0.1,1.2-0.1,2-0.1s1.4,0.1,1.9,0.3
			c0.4,0.2,0.6,0.4,0.7,0.7c0,0.2-0.1,0.5-0.4,0.7s-0.6,0.3-1.1,0.3c-1.2-0.1-4.1,0-8.9,0.1c-4.5,0.1-8.4,0.2-11.7,0.4
			c-0.2,0-0.5,0.1-0.7,0.1c-0.1,0-0.3,0.1-0.5,0.2c-0.5,0.2-0.9,0.3-1.3,0.2c-0.6-0.1-1.7-0.6-3.3-1.3c-0.6-0.4-0.9-0.6-0.8-0.7
			c0.1-0.1,0.5-0.2,1.2,0c1.9,0.3,4.5,0.4,7.8,0.4c2.4,0,6.2,0,11.3-0.2h0.5C271.7,174.7,272.3,174.6,272.7,174.5z M264.3,178.2
			c0.2-0.2,0.3-0.5,0.2-0.8c-0.3-0.4-0.4-0.6-0.2-0.7c0.2-0.1,0.6,0,1.1,0.3s0.8,0.6,0.8,0.9c0,0.1,0,0.3-0.2,0.6l-0.1,0.3
			c2.4,0.2,4.2,1,5.5,2.4c1.1,1.2,1.7,2.6,1.6,4.3c-0.1,1.6-0.8,2.9-2.2,4c-1.4,1.2-3.3,1.8-5.6,1.8c-2.3,0-4.1-0.6-5.5-1.7
			c-1.3-1.1-2-2.4-2.2-4s0.2-3,1.2-4.2c1-1.3,2.6-2.2,4.6-2.5h0.2C263.8,178.5,264.1,178.4,264.3,178.2z M261.7,171.5
			c-0.6-0.3-1.3-0.8-2.2-1.4c-0.4-0.3-0.5-0.5-0.5-0.7s0.4-0.2,1.2,0c0.9,0.2,2.1,0.3,3.7,0.4c1.3,0.1,3,0.2,5,0.2
			c0.4,0,0.8,0.1,1.1,0.3c0.3,0.2,0.4,0.4,0.4,0.6c0,0.2-0.2,0.4-0.6,0.6c-0.4,0.2-1,0.3-1.7,0.3H263
			C262.5,171.9,262.1,171.7,261.7,171.5z M260.8,181.2c-0.9,0.9-1.4,2-1.4,3.4c0,1.3,0.5,2.4,1.4,3.3c1,1,2.4,1.6,4.2,1.6
			c1.8,0,3.2-0.5,4.2-1.6c0.9-0.9,1.4-2,1.4-3.3s-0.5-2.5-1.4-3.4c-1-1-2.4-1.5-4.2-1.5C263.3,179.7,261.9,180.2,260.8,181.2z"/>
	</g>
</g>
<g>
	<g class="st0">
		<path class="st2" d="M24.5,102.4v-11h2.3v0.9h-1.3v9.2h1.3v0.9H24.5z"/>
		<path class="st2" d="M30.9,100.5l1,0.2c0,0.3,0.2,0.5,0.4,0.7c0.3,0.2,0.6,0.3,1.1,0.3s0.9-0.1,1.1-0.3s0.4-0.5,0.5-0.8
			c0.1-0.2,0.1-0.7,0.1-1.4c-0.5,0.5-1,0.8-1.7,0.8c-0.9,0-1.5-0.3-2-0.9s-0.7-1.4-0.7-2.2c0-0.6,0.1-1.1,0.3-1.6s0.5-0.9,0.9-1.2
			s0.9-0.4,1.4-0.4c0.7,0,1.3,0.3,1.8,0.9v-0.8h1v5.4c0,1-0.1,1.7-0.3,2.1s-0.5,0.7-0.9,1s-1,0.4-1.6,0.4c-0.7,0-1.3-0.2-1.8-0.5
			S30.9,101.2,30.9,100.5z M31.8,96.8c0,0.8,0.2,1.4,0.5,1.8s0.7,0.6,1.2,0.6s0.9-0.2,1.2-0.6s0.5-1,0.5-1.8s-0.2-1.3-0.5-1.7
			s-0.7-0.6-1.2-0.6s-0.9,0.2-1.2,0.6S31.8,96,31.8,96.8z"/>
		<path class="st2" d="M42.9,102.4h-2.3v-0.9h1.3v-9.2h-1.3v-0.9h2.3V102.4z"/>
		<path class="st2" d="M47.8,102.4v-11h2.3v0.9h-1.3v9.2h1.3v0.9H47.8z"/>
		<path class="st2" d="M54.5,100v-8.6h1.1v4.9l2.5-2.5h1.4L57,96.1l2.6,3.9h-1.3l-2.1-3.2l-0.7,0.7v2.5H54.5z"/>
		<path class="st2" d="M65.6,102.4h-2.3v-0.9h1.3v-9.2h-1.3v-0.9h2.3V102.4z"/>
	</g>
</g>
<g>
	<g class="st0">
		<path class="st2" d="M72.8,218.4v-11h2.3v0.9h-1.3v9.2h1.3v0.9L72.8,218.4L72.8,218.4z"/>
		<path class="st2" d="M79.5,216v-8.6h1.1v4.9l2.5-2.5h1.4l-2.4,2.3l2.6,3.9h-1.3l-2.1-3.2l-0.7,0.7v2.5L79.5,216L79.5,216z"/>
		<path class="st2" d="M88.7,213.2H88v-2.7c0-0.7-0.3-1-0.9-1c-0.5,0-0.8,0.2-1,0.6c-0.1,0.2-0.1,0.4-0.1,0.8v2.3h-0.7v-5.8H86v2.1
			c0.3-0.4,0.8-0.6,1.3-0.6c0.7,0,1.1,0.2,1.3,0.7c0.1,0.2,0.1,0.5,0.1,0.9C88.7,210.5,88.7,213.2,88.7,213.2z"/>
		<path class="st2" d="M95.2,218.4h-2.3v-0.9h1.3v-9.2h-1.3v-0.9h2.3V218.4z"/>
	</g>
</g>
<g>
	<g class="st0">
		<path class="st2" d="M192.2,218.4v-11h2.3v0.9h-1.3v9.2h1.3v0.9L192.2,218.4L192.2,218.4z"/>
		<path class="st2" d="M201.1,215.1l0.2,0.9c-0.3,0.1-0.6,0.1-0.8,0.1c-0.4,0-0.7-0.1-0.9-0.2s-0.4-0.3-0.4-0.5s-0.1-0.6-0.1-1.2
			v-3.6h-0.8v-0.8h0.8v-1.5l1-0.6v2.2h1.1v0.8h-1.1v3.6c0,0.3,0,0.5,0.1,0.6s0.1,0.2,0.2,0.2s0.2,0.1,0.4,0.1
			C200.8,215.1,200.9,215.1,201.1,215.1z"/>
		<path class="st2" d="M205.4,213.2h-0.7v-2.7c0-0.7-0.3-1-0.9-1c-0.5,0-0.8,0.2-1,0.6c-0.1,0.2-0.1,0.4-0.1,0.8v2.3H202v-5.8h0.7
			v2.1c0.3-0.4,0.8-0.6,1.3-0.6c0.7,0,1.1,0.2,1.3,0.7c0.1,0.2,0.1,0.5,0.1,0.9L205.4,213.2L205.4,213.2z"/>
		<path class="st2" d="M211.9,218.4h-2.3v-0.9h1.3v-9.2h-1.3v-0.9h2.3V218.4z"/>
	</g>
</g>
<g>
	<g class="st0">
		<path class="st2" d="M132.5,218.4v-11h2.3v0.9h-1.3v9.2h1.3v0.9L132.5,218.4L132.5,218.4z"/>
		<path class="st2" d="M139.2,218.4v-8.6h1v0.8c0.2-0.3,0.5-0.6,0.8-0.7s0.6-0.2,1-0.2c0.5,0,1,0.1,1.4,0.4s0.7,0.7,0.9,1.2
			s0.3,1,0.3,1.6s-0.1,1.2-0.3,1.7s-0.6,0.9-1,1.2s-0.9,0.4-1.4,0.4c-0.4,0-0.7-0.1-0.9-0.2s-0.5-0.3-0.7-0.6v3L139.2,218.4
			L139.2,218.4z M140.1,212.9c0,0.8,0.2,1.4,0.5,1.8s0.7,0.6,1.2,0.6s0.9-0.2,1.2-0.6s0.5-1,0.5-1.8s-0.2-1.4-0.5-1.8
			s-0.7-0.6-1.2-0.6c-0.4,0-0.8,0.2-1.2,0.6S140.1,212.1,140.1,212.9z"/>
		<path class="st2" d="M149.1,213.2h-0.7v-2.7c0-0.7-0.3-1-0.9-1c-0.5,0-0.8,0.2-1,0.6c-0.1,0.2-0.1,0.4-0.1,0.8v2.3h-0.7v-5.8h0.7
			v2.1c0.3-0.4,0.8-0.6,1.3-0.6c0.7,0,1.1,0.2,1.3,0.7c0.1,0.2,0.1,0.5,0.1,0.9L149.1,213.2L149.1,213.2z"/>
		<path class="st2" d="M155.5,218.4h-2.3v-0.9h1.3v-9.2h-1.3v-0.9h2.3V218.4z"/>
	</g>
</g>
<g>
	<g class="st0">
		<path class="st2" d="M256.8,218.4v-11h2.3v0.9h-1.3v9.2h1.3v0.9L256.8,218.4L256.8,218.4z"/>
		<path class="st2" d="M263.5,216v-8.6h1.1v3.1c0.5-0.6,1.1-0.9,1.9-0.9c0.5,0,0.9,0.1,1.2,0.3s0.6,0.4,0.7,0.8s0.2,0.8,0.2,1.4v3.9
			h-1.1v-3.9c0-0.5-0.1-0.9-0.3-1.2s-0.6-0.4-1-0.4c-0.3,0-0.6,0.1-0.9,0.2s-0.5,0.4-0.6,0.7s-0.2,0.7-0.2,1.1v3.4L263.5,216
			L263.5,216z"/>
		<path class="st2" d="M275.2,218.4h-2.3v-0.9h1.3v-9.2h-1.3v-0.9h2.3V218.4z"/>
	</g>
</g>
<g>
	<g class="st0">
		<path class="st2" d="M103.8,343.4v-11h2.3v0.9h-1.3v9.2h1.3v0.9H103.8z"/>
		<path class="st2" d="M110.5,341v-8.6h1.1v4.9l2.5-2.5h1.4l-2.4,2.3l2.6,3.9h-1.3l-2.1-3.2l-0.7,0.7v2.5L110.5,341L110.5,341z"/>
		<path class="st2" d="M116.4,333.5v-1.2h1.1v1c0,0.5-0.1,0.9-0.2,1.1c-0.2,0.3-0.4,0.6-0.8,0.7l-0.3-0.4c0.2-0.1,0.4-0.2,0.5-0.4
			s0.2-0.4,0.2-0.8L116.4,333.5L116.4,333.5z"/>
		<path class="st2" d="M123.8,343.4h-2.3v-0.9h1.3v-9.2h-1.3v-0.9h2.3V343.4z"/>
	</g>
</g>
<g>
	<g class="st0">
		<path class="st2" d="M178.1,343.4v-11h2.3v0.9h-1.3v9.2h1.3v0.9H178.1z"/>
		<path class="st2" d="M187.1,340.1l0.2,0.9c-0.3,0.1-0.6,0.1-0.8,0.1c-0.4,0-0.7-0.1-0.9-0.2s-0.4-0.3-0.4-0.5s-0.1-0.6-0.1-1.2
			v-3.6h-0.8v-0.8h0.8v-1.5l1-0.6v2.2h1.1v0.8H186v3.6c0,0.3,0,0.5,0.1,0.6s0.1,0.2,0.2,0.2s0.2,0.1,0.4,0.1
			C186.7,340.1,186.9,340.1,187.1,340.1z"/>
		<path class="st2" d="M188.1,333.5v-1.2h1.1v1c0,0.5-0.1,0.9-0.2,1.1c-0.2,0.3-0.4,0.6-0.8,0.7l-0.3-0.4c0.2-0.1,0.4-0.2,0.5-0.4
			s0.2-0.4,0.2-0.8L188.1,333.5L188.1,333.5z"/>
		<path class="st2" d="M195.4,343.4h-2.3v-0.9h1.3v-9.2h-1.3v-0.9h2.3V343.4z"/>
	</g>
</g>
<g>
	<g class="st0">
		<path class="st2" d="M254.5,343.4v-11h2.3v0.9h-1.3v9.2h1.3v0.9H254.5z"/>
		<path class="st2" d="M261.1,343.4v-8.6h1v0.8c0.2-0.3,0.5-0.6,0.8-0.7s0.6-0.2,1-0.2c0.5,0,1,0.1,1.4,0.4s0.7,0.7,0.9,1.2
			s0.3,1,0.3,1.6s-0.1,1.2-0.3,1.7s-0.6,0.9-1,1.2s-0.9,0.4-1.4,0.4c-0.4,0-0.7-0.1-0.9-0.2s-0.5-0.3-0.7-0.6v3L261.1,343.4
			L261.1,343.4z M262.1,337.9c0,0.8,0.2,1.4,0.5,1.8s0.7,0.6,1.2,0.6s0.9-0.2,1.2-0.6s0.5-1,0.5-1.8s-0.2-1.4-0.5-1.8
			s-0.7-0.6-1.2-0.6c-0.4,0-0.8,0.2-1.2,0.6S262.1,337.1,262.1,337.9z"/>
		<path class="st2" d="M267.7,333.5v-1.2h1.1v1c0,0.5-0.1,0.9-0.2,1.1c-0.2,0.3-0.4,0.6-0.8,0.7l-0.3-0.4c0.2-0.1,0.4-0.2,0.5-0.4
			s0.2-0.4,0.2-0.8L267.7,333.5L267.7,333.5z"/>
		<path class="st2" d="M275.1,343.4h-2.3v-0.9h1.3v-9.2h-1.3v-0.9h2.3V343.4z"/>
	</g>
</g>
<g>
	<g class="st0">
		<path class="st2" d="M332.8,343.4v-11h2.3v0.9h-1.3v9.2h1.3v0.9H332.8z"/>
		<path class="st2" d="M339,339.1l1-0.2c0.1,0.4,0.2,0.7,0.5,1s0.6,0.3,1.1,0.3s0.8-0.1,1.1-0.3s0.4-0.4,0.4-0.7
			c0-0.2-0.1-0.4-0.3-0.6c-0.1-0.1-0.5-0.2-1.1-0.4c-0.8-0.2-1.3-0.4-1.6-0.5s-0.5-0.3-0.7-0.6s-0.2-0.5-0.2-0.8s0.1-0.5,0.2-0.8
			s0.3-0.4,0.5-0.6c0.2-0.1,0.4-0.2,0.7-0.3s0.6-0.1,0.9-0.1c0.5,0,0.9,0.1,1.3,0.2s0.6,0.3,0.8,0.6s0.3,0.6,0.4,1l-1,0.1
			c0-0.3-0.2-0.6-0.4-0.8s-0.5-0.3-1-0.3s-0.8,0.1-1,0.2s-0.3,0.3-0.3,0.6c0,0.1,0,0.3,0.1,0.4s0.2,0.2,0.4,0.3
			c0.1,0,0.4,0.1,0.9,0.3c0.7,0.2,1.3,0.4,1.6,0.5s0.5,0.3,0.7,0.6s0.3,0.5,0.3,0.9s-0.1,0.7-0.3,1s-0.5,0.6-0.9,0.7
			s-0.8,0.3-1.3,0.3c-0.8,0-1.4-0.2-1.8-0.5S339.2,339.8,339,339.1z"/>
		<path class="st2" d="M345.4,333.5v-1.2h1.1v1c0,0.5-0.1,0.9-0.2,1.1c-0.2,0.3-0.4,0.6-0.8,0.7l-0.3-0.4c0.2-0.1,0.4-0.2,0.5-0.4
			s0.2-0.4,0.2-0.8L345.4,333.5L345.4,333.5z"/>
		<path class="st2" d="M352.8,343.4h-2.3v-0.9h1.3v-9.2h-1.3v-0.9h2.3V343.4z"/>
	</g>
</g>
<g>
	<g class="st0">
		<path class="st2" d="M408.1,343.4v-11h2.3v0.9h-1.3v9.2h1.3v0.9H408.1z"/>
		<path class="st2" d="M417.1,340.1l0.2,0.9c-0.3,0.1-0.6,0.1-0.8,0.1c-0.4,0-0.7-0.1-0.9-0.2s-0.4-0.3-0.4-0.5s-0.1-0.6-0.1-1.2
			v-3.6h-0.8v-0.8h0.8v-1.5l1-0.6v2.2h1.1v0.8H416v3.6c0,0.3,0,0.5,0.1,0.6s0.1,0.2,0.2,0.2s0.2,0.1,0.4,0.1
			C416.7,340.1,416.9,340.1,417.1,340.1z"/>
		<path class="st2" d="M420.8,332.4l-0.2,0.9c-0.2,0-0.4-0.1-0.6-0.1c-0.3,0-0.6,0.1-0.7,0.2s-0.2,0.4-0.2,0.8v7.1
			c0,0.7-0.1,1.2-0.3,1.5c-0.2,0.4-0.7,0.7-1.3,0.7c-0.3,0-0.6,0-0.8-0.1l0.2-0.9c0.2,0.1,0.4,0.1,0.5,0.1c0.3,0,0.5-0.2,0.6-0.5
			c0-0.1,0.1-0.4,0.1-0.8v-7.2c0-0.6,0.1-1.1,0.4-1.4s0.7-0.5,1.3-0.5C420.1,332.3,420.5,332.3,420.8,332.4z"/>
		<path class="st2" d="M424.1,333.5v-1.2h1.1v1c0,0.5-0.1,0.9-0.2,1.1c-0.2,0.3-0.4,0.6-0.8,0.7l-0.3-0.4c0.2-0.1,0.4-0.2,0.5-0.4
			s0.2-0.4,0.2-0.8L424.1,333.5L424.1,333.5z"/>
		<path class="st2" d="M431.4,343.4h-2.3v-0.9h1.3v-9.2h-1.3v-0.9h2.3V343.4z"/>
	</g>
</g>
<g>
	<g class="st0">
		<path class="st2" d="M93.8,102.4v-11h2.3v0.9h-1.3v9.2h1.3v0.9H93.8z"/>
		<path class="st2" d="M100.5,100v-6.2h0.9v0.9c0.5-0.7,1.1-1,2-1c0.4,0,0.7,0.1,1,0.2s0.5,0.3,0.7,0.5s0.3,0.5,0.3,0.8
			c0,0.2,0.1,0.5,0.1,1v3.8h-1.1v-3.8c0-0.4,0-0.8-0.1-1s-0.2-0.4-0.4-0.5s-0.5-0.2-0.7-0.2c-0.4,0-0.8,0.1-1.2,0.4
			s-0.5,0.8-0.5,1.6v3.4L100.5,100L100.5,100z"/>
		<path class="st2" d="M112.2,102.4h-2.3v-0.9h1.3v-9.2h-1.3v-0.9h2.3V102.4z"/>
	</g>
</g>
<g>
	<g class="st0">
		<path class="st2" d="M152.5,102.4v-11h2.3v0.9h-1.3v9.2h1.3v0.9H152.5z"/>
		<path class="st2" d="M161.4,99.1l0.2,0.9c-0.3,0.1-0.6,0.1-0.8,0.1c-0.4,0-0.7-0.1-0.9-0.2s-0.4-0.3-0.4-0.5s-0.1-0.6-0.1-1.2
			v-3.6h-0.8v-0.8h0.8v-1.5l1-0.6v2.2h1.1v0.8h-1.1v3.6c0,0.3,0,0.5,0.1,0.6s0.1,0.2,0.2,0.2s0.2,0.1,0.4,0.1
			C161.1,99.1,161.2,99.1,161.4,99.1z"/>
		<path class="st2" d="M167.6,102.4h-2.3v-0.9h1.3v-9.2h-1.3v-0.9h2.3V102.4z"/>
	</g>
</g>
<g>
	<g class="st0">
		<path class="st2" d="M206.5,102.4v-11h2.3v0.9h-1.3v9.2h1.3v0.9H206.5z"/>
		<path class="st2" d="M213.1,100v-6.2h0.9v0.9c0.2-0.4,0.5-0.7,0.7-0.9s0.4-0.2,0.7-0.2c0.4,0,0.7,0.1,1.1,0.3l-0.4,1
			c-0.3-0.2-0.5-0.2-0.8-0.2c-0.2,0-0.4,0.1-0.6,0.2s-0.3,0.3-0.4,0.6c-0.1,0.4-0.2,0.8-0.2,1.2v3.3C214.1,100,213.1,100,213.1,100z
			"/>
		<path class="st2" d="M222.2,102.4h-2.3v-0.9h1.3v-9.2h-1.3v-0.9h2.3V102.4z"/>
		<path class="st2" d="M227.1,102.4v-11h2.3v0.9h-1.3v9.2h1.3v0.9H227.1z"/>
		<path class="st2" d="M233.8,100v-8.6h1.1v8.6H233.8z"/>
		<path class="st2" d="M241.6,102.4h-2.3v-0.9h1.3v-9.2h-1.3v-0.9h2.3V102.4z"/>
	</g>
</g>
<g>
	<g class="st0">
		<path class="st2" d="M322.1,102.4v-11h2.3v0.9h-1.3v9.2h1.3v0.9H322.1z"/>
		<path class="st2" d="M328.8,100v-6.2h0.9v0.9c0.2-0.3,0.5-0.5,0.8-0.7s0.7-0.3,1.1-0.3c0.5,0,0.8,0.1,1.1,0.3s0.5,0.5,0.6,0.8
			c0.5-0.7,1.1-1.1,1.9-1.1c0.6,0,1.1,0.2,1.4,0.5s0.5,0.9,0.5,1.6v4.3h-1v-3.9c0-0.4,0-0.7-0.1-0.9s-0.2-0.3-0.4-0.4
			s-0.4-0.2-0.6-0.2c-0.4,0-0.8,0.1-1.1,0.4s-0.4,0.8-0.4,1.4v3.6h-1.1v-4c0-0.5-0.1-0.8-0.3-1.1s-0.5-0.4-0.8-0.4s-0.6,0.1-0.8,0.2
			s-0.4,0.4-0.5,0.7s-0.2,0.7-0.2,1.3v3.2C329.8,100,328.8,100,328.8,100z"/>
		<path class="st2" d="M343.9,102.4h-2.3v-0.9h1.3v-9.2h-1.3v-0.9h2.3V102.4z"/>
	</g>
</g>
<g>
	<g class="st0">
		<path class="st2" d="M379.8,102.4v-11h2.3v0.9h-1.3v9.2h1.3v0.9H379.8z"/>
		<path class="st2" d="M386.5,102.4v-8.6h1v0.8c0.2-0.3,0.5-0.6,0.8-0.7s0.6-0.2,1-0.2c0.5,0,1,0.1,1.4,0.4s0.7,0.7,0.9,1.2
			s0.3,1,0.3,1.6s-0.1,1.2-0.3,1.7s-0.6,0.9-1,1.2s-0.9,0.4-1.4,0.4c-0.4,0-0.7-0.1-0.9-0.2s-0.5-0.3-0.7-0.6v3
			C387.6,102.4,386.5,102.4,386.5,102.4z M387.4,96.9c0,0.8,0.2,1.4,0.5,1.8s0.7,0.6,1.2,0.6s0.9-0.2,1.2-0.6s0.5-1,0.5-1.8
			s-0.2-1.4-0.5-1.8s-0.7-0.6-1.2-0.6c-0.4,0-0.8,0.2-1.2,0.6S387.4,96.1,387.4,96.9z"/>
		<path class="st2" d="M398.2,102.4h-2.3v-0.9h1.3v-9.2h-1.3v-0.9h2.3V102.4z"/>
	</g>
</g>
<g>
	<g class="st0">
		<path class="st2" d="M433.1,102.4v-11h2.3v0.9h-1.3v9.2h1.3v0.9H433.1z"/>
		<path class="st2" d="M439.4,98.1l1-0.2c0.1,0.4,0.2,0.7,0.5,1s0.6,0.3,1.1,0.3s0.8-0.1,1.1-0.3s0.4-0.4,0.4-0.7
			c0-0.2-0.1-0.4-0.3-0.6c-0.1-0.1-0.5-0.2-1.1-0.4c-0.8-0.2-1.3-0.4-1.6-0.5s-0.5-0.3-0.7-0.6s-0.2-0.5-0.2-0.8s0.1-0.5,0.2-0.8
			s0.3-0.4,0.5-0.6c0.2-0.1,0.4-0.2,0.7-0.3s0.6-0.1,0.9-0.1c0.5,0,0.9,0.1,1.3,0.2s0.6,0.3,0.8,0.6s0.3,0.6,0.4,1l-1,0.1
			c0-0.3-0.2-0.6-0.4-0.8s-0.5-0.3-1-0.3s-0.8,0.1-1,0.2s-0.3,0.3-0.3,0.6c0,0.1,0,0.3,0.1,0.4s0.2,0.2,0.4,0.3
			c0.1,0,0.4,0.1,0.9,0.3c0.7,0.2,1.3,0.4,1.6,0.5s0.5,0.3,0.7,0.6s0.3,0.5,0.3,0.9s-0.1,0.7-0.3,1s-0.5,0.6-0.9,0.7
			s-0.8,0.3-1.3,0.3c-0.8,0-1.4-0.2-1.8-0.5S439.5,98.8,439.4,98.1z"/>
		<path class="st2" d="M450.9,102.4h-2.3v-0.9h1.3v-9.2h-1.3v-0.9h2.3V102.4z"/>
	</g>
</g>
<g>
	<g class="st0">
		<path class="st2" d="M488.8,102.4v-11h2.3v0.9h-1.3v9.2h1.3v0.9H488.8z"/>
		<path class="st2" d="M500.5,96.2v4.2c0,0.8-0.1,1.3-0.3,1.7s-0.6,0.5-1.2,0.5c-0.3,0-0.6,0-0.8-0.1l0.2-0.9
			c0.2,0.1,0.4,0.1,0.5,0.1c0.3,0,0.4-0.1,0.5-0.3s0.1-0.5,0.1-1v-4.1c0-0.6-0.1-1-0.3-1.3s-0.5-0.4-1-0.4s-0.8,0.1-1.2,0.4
			s-0.5,0.8-0.5,1.6v3.4h-1.1v-6.2h0.9v0.9c0.5-0.7,1.1-1,2-1c0.5,0,0.9,0.1,1.3,0.3s0.6,0.5,0.7,0.8S500.5,95.6,500.5,96.2z"/>
		<path class="st2" d="M507.2,102.4h-2.3v-0.9h1.3v-9.2h-1.3v-0.9h2.3V102.4z"/>
	</g>
</g>
<g>
	<g class="st0">
		<path class="st2" d="M365.1,218.4v-11h2.3v0.9h-1.3v9.2h1.3v0.9L365.1,218.4L365.1,218.4z"/>
		<path class="st2" d="M374.1,215.1l0.2,0.9c-0.3,0.1-0.6,0.1-0.8,0.1c-0.4,0-0.7-0.1-0.9-0.2s-0.4-0.3-0.4-0.5s-0.1-0.6-0.1-1.2
			v-3.6h-0.8v-0.8h0.8v-1.5l1-0.6v2.2h1.1v0.8H373v3.6c0,0.3,0,0.5,0.1,0.6s0.1,0.2,0.2,0.2s0.2,0.1,0.4,0.1
			C373.7,215.1,373.9,215.1,374.1,215.1z"/>
		<path class="st2" d="M377.8,207.4l-0.2,0.9c-0.2,0-0.4-0.1-0.6-0.1c-0.3,0-0.6,0.1-0.7,0.2s-0.2,0.4-0.2,0.8v7.1
			c0,0.7-0.1,1.2-0.3,1.5c-0.2,0.4-0.7,0.7-1.3,0.7c-0.3,0-0.6,0-0.8-0.1l0.2-0.9c0.2,0.1,0.4,0.1,0.5,0.1c0.3,0,0.5-0.2,0.6-0.5
			c0-0.1,0.1-0.4,0.1-0.8v-7.2c0-0.6,0.1-1.1,0.4-1.4c0.3-0.3,0.7-0.5,1.3-0.5C377.1,207.3,377.5,207.3,377.8,207.4z"/>
		<path class="st2" d="M382.9,218.4h-2.3v-0.9h1.3v-9.2h-1.3v-0.9h2.3V218.4z"/>
	</g>
</g>
<g>
	<g class="st0">
		<path class="st2" d="M428.2,218.4v-11h2.3v0.9h-1.3v9.2h1.3v0.9L428.2,218.4L428.2,218.4z"/>
		<path class="st2" d="M437.1,215.1l0.2,0.9c-0.3,0.1-0.6,0.1-0.8,0.1c-0.4,0-0.7-0.1-0.9-0.2s-0.4-0.3-0.4-0.5s-0.1-0.6-0.1-1.2
			v-3.6h-0.8v-0.8h0.8v-1.5l1-0.6v2.2h1.1v0.8h-1.1v3.6c0,0.3,0,0.5,0.1,0.6s0.1,0.2,0.2,0.2s0.2,0.1,0.4,0.1
			C436.8,215.1,436.9,215.1,437.1,215.1z"/>
		<path class="st2" d="M443.2,211.6l-1,0.2c-0.2-0.8-0.7-1.3-1.4-1.3c-1.2,0-1.8,0.8-1.8,2.4c0,0.5,0.1,0.9,0.3,1.3
			c0.7-0.8,1.5-1.2,2.2-1.2c1.1,0,1.6,0.5,1.6,1.5c0,0.5-0.2,1-0.7,1.3c-0.4,0.3-0.9,0.4-1.6,0.4c-0.6,0-1.2-0.1-1.6-0.4
			c-0.1,0.2-0.3,0.5-0.6,0.9l-0.7-0.6c0.1-0.2,0.3-0.5,0.6-0.9c-0.4-0.6-0.6-1.3-0.6-2.2c0-1.4,0.5-2.4,1.4-2.9
			c0.5-0.3,0.9-0.4,1.5-0.4C442.1,209.6,442.9,210.3,443.2,211.6z M442.1,214.5c0-0.4-0.2-0.6-0.7-0.6s-1.1,0.4-1.7,1.1
			c0.3,0.2,0.6,0.3,1,0.3s0.7-0.1,0.9-0.2S442.1,214.7,442.1,214.5z"/>
		<path class="st2" d="M447.4,213.2h-0.7v-2.7c0-0.7-0.3-1-0.9-1c-0.5,0-0.8,0.2-1,0.6c-0.1,0.2-0.1,0.4-0.1,0.8v2.3H444v-5.8h0.7
			v2.1c0.3-0.4,0.8-0.6,1.3-0.6c0.7,0,1.1,0.2,1.3,0.7c0.1,0.2,0.1,0.5,0.1,0.9V213.2z"/>
		<path class="st2" d="M453.9,218.4h-2.3v-0.9h1.3v-9.2h-1.3v-0.9h2.3V218.4z"/>
	</g>
</g>
<g class="st0">
	<path class="st1" d="M90,52.7c-0.3-0.2-1-0.4-2-0.7c-0.5-0.1-0.7-0.3-0.7-0.4c0-0.2,0.4-0.4,1.2-0.5c0.8,0,1.5,0,2.3,0.1
		c0.6,0,1.2,0.1,1.6,0.2c0.4,0.1,0.7,0.2,0.7,0.4c0.1,0.1,0.1,0.4,0,0.7V53v11.2c0,0.4,0.2,0.7,0.5,0.9c0.2,0.2,0.7,0.3,1.4,0.3
		l12.1-0.1c0.5,0,1-0.1,1.3-0.3c0.2,0,0.5-0.1,0.7-0.3c0.3-0.2,0.7-0.3,1-0.4c0.5-0.1,1.4-0.1,2.5-0.1c0.5,0,1,0.1,1.3,0.4
		c0.3,0.2,0.5,0.4,0.6,0.7c0,0.2,0,0.5-0.2,0.7s-0.4,0.3-0.8,0.3H95.2c-1.6,0-2.7-0.3-3.3-0.7c-0.7-0.5-1.1-1.5-1.2-2.9v-9.1
		C90.7,53.3,90.4,53,90,52.7z"/>
</g>
<g class="st0">
	<path class="st1" d="M146.7,53.1c-0.5-0.3-1.1-0.5-1.8-0.7c-0.5-0.1-0.8-0.2-0.8-0.4s0.4-0.4,1.3-0.6c0.8,0,1.6,0.1,2.6,0.2
		c0.8,0.1,1.4,0.2,2,0.3c2.2,0,4.2,0,6,0c1.9,0,4.5,0,7.9,0c0.3,0,0.6-0.1,0.8-0.1c0.1,0,0.3-0.1,0.5-0.2c0.4-0.2,0.8-0.3,1.1-0.4
		C167,51,167.9,51,169,51c0.5,0,0.9,0.1,1.2,0.3s0.5,0.4,0.5,0.6c0,0.2,0,0.4-0.2,0.6c-0.2,0.2-0.5,0.3-0.9,0.3h-10.8h-8.3l-0.3,0.1
		c-0.1,0-0.2,0.1-0.2,0.1s-0.1,0.2-0.1,0.3v11.2c0,0.5,0.1,0.8,0.3,1s0.7,0.4,1.3,0.4c2.9,0,5.2,0,6.9,0c1.6,0,3.5,0,5.7-0.1
		c0.4,0,0.8-0.1,1-0.2c0.2,0,0.4-0.1,0.6-0.3c0.3-0.2,0.7-0.3,1-0.4c0.5-0.1,1.3-0.1,2.4-0.1c0.6,0,1.2,0.1,1.6,0.3
		c0.3,0.2,0.5,0.4,0.6,0.7c0,0.2-0.1,0.5-0.3,0.7s-0.6,0.3-1,0.4h-19c-1.2,0-2.2-0.3-2.7-0.8c-0.5-0.4-0.8-1-0.8-1.8V53.9
		C147.5,53.6,147.2,53.3,146.7,53.1z"/>
</g>
<g class="st0">
	<path class="st1" d="M214.2,59.7c-0.4-0.2-1-0.4-1.8-0.5c-0.4-0.1-0.6-0.2-0.6-0.4s0.4-0.4,1.3-0.5c0.8,0,1.6,0,2.4,0.1
		c0.7,0.1,1.5,0.2,2.3,0.4c1.4,0,3.5,0,6.2-0.1c3.1,0,5.3-0.1,6.8-0.1c0.3,0,0.6-0.1,0.9-0.1c0.1,0,0.4-0.1,0.7-0.1l0.9-0.2
		c0-0.4,0.1-1.4,0.2-2.8c0.1-1.2,0.2-2.4,0.3-3.7c-1.1,0-2.6,0.1-4.3,0.1c-1.1,0-3,0.1-5.7,0.1l-5.5,0.1c-0.3,0-0.6,0-0.9,0.1
		c-0.1,0-0.3,0.1-0.5,0.2c-0.3,0.2-0.7,0.2-1,0.1c-0.5-0.1-1.5-0.5-2.9-1.2c-0.4-0.2-0.6-0.4-0.6-0.6c0-0.2,0.3-0.2,0.9-0.1
		c2,0.2,4.9,0.3,8.8,0.3c3.1,0,6.4-0.1,10-0.2c0.2,0,0.3,0,0.5-0.1c0.1,0,0.2-0.1,0.4-0.1c0.3-0.1,0.6-0.2,0.9-0.2
		c0.4,0,1.1,0,1.9,0c0.8,0.1,1.2,0.2,1.2,0.5c0,0.2-0.1,0.5-0.5,0.9l-0.4,0.6l-0.2,0.6l-1.3,5c0.8,0,1.3,0.2,1.5,0.6
		c0.2,0.4-0.1,0.6-0.9,0.6h-3.1c-2.6,0.1-4.7,0.1-6.2,0.1c-2.5,0-5,0.1-7.5,0.1l-0.4,0.1c-0.1,0-0.2,0-0.3,0.1c0,0.1-0.1,0.2,0,0.4
		v5.9c0,0.3,0.1,0.5,0.2,0.6c0.1,0.1,0.4,0.2,0.9,0.2c3.4,0,5.8,0,7.3,0c2.4,0,4.5,0,6.1,0c0.4,0,0.7-0.1,0.9-0.2
		c0.1,0,0.3-0.1,0.5-0.3c0.3-0.2,0.7-0.4,1-0.4c0.6-0.1,1.6-0.1,2.8,0c0.5,0,1,0.1,1.2,0.3c0.2,0.2,0.4,0.4,0.4,0.6
		s-0.1,0.4-0.3,0.6s-0.5,0.3-0.9,0.3h-19.2c-1,0-1.8-0.2-2.4-0.5c-0.6-0.3-0.9-0.9-1-1.7l-0.1-5.1C215.1,60.2,214.7,60,214.2,59.7z"
		/>
</g>
<g class="st0">
	<path class="st1" d="M378.1,52.4c-0.4-0.2-1-0.3-1.7-0.5c-0.5-0.1-0.8-0.2-0.7-0.4c0.1-0.2,0.5-0.4,1.2-0.5c0.7,0,1.4,0,2.2,0.1
		c0.6,0.1,1.3,0.2,2,0.4c0.4,0.1,0.6,0.3,0.7,0.5c0,0.1,0,0.3,0,0.7l-0.1,0.7v3.8l14-0.3V52c0-0.3-0.3-0.7-0.8-1
		c-0.4-0.3-1-0.6-1.9-0.9c-0.5-0.2-0.7-0.3-0.6-0.5s0.5-0.3,1.3-0.3c0.6,0,1.2,0.1,1.9,0.3c0.7,0.1,1.3,0.3,2,0.5
		c0.3,0.1,0.5,0.3,0.6,0.5c0,0.1,0,0.4,0,0.7l-0.1,0.6V64l0,0c0,1.2-0.1,2.1-0.2,2.6c-0.1,0.8-0.4,1.4-0.7,1.9
		c-0.3,0.3-0.6,0.5-0.9,0.3c-0.3-0.1-0.5-0.6-0.6-1.3L381.5,68c-0.2,0.6-0.5,1.2-0.7,1.5s-0.4,0.5-0.6,0.6c-0.3,0.1-0.5,0-0.7-0.4
		c-0.1-0.3-0.1-0.8-0.1-1.5l-0.1-14.8C379.1,53.1,378.7,52.7,378.1,52.4z M381.7,66.9l14-0.4v-8.6l-14,0.3V66.9z"/>
</g>
<g class="st0">
	<path class="st1" d="M441.3,51.3c-0.3-0.2-0.8-0.5-1.6-1l-0.4-0.3c-0.4-0.2-0.6-0.4-0.6-0.6c0-0.2,0.5-0.3,1.3-0.3
		c0.7,0.2,1.4,0.4,2,0.7c0.5,0.2,1.3,0.7,2.3,1.3c0.2,0.2,0.4,0.5,0.3,0.7c0,0.2-0.1,0.4-0.3,0.7l-0.1,0.2c-0.3,0.5-0.6,1-0.9,1.5
		c-0.2,0.3-0.4,0.7-0.7,1.1l4,3.6l1.3,1.2c0.4,0.3,0.8,0.6,1.2,0.8c0.2,0.1,0.6,0.3,1.1,0.5c0.8,0.3,1.4,0.6,1.8,0.9
		c0.8,0.5,1.6,1.3,2.4,2.4c0.4,0.5,0.7,1,0.9,1.5c0.1,0.4,0.2,0.8,0.1,1.2c0,0.3-0.2,0.5-0.5,0.5s-0.6-0.2-1-0.6l-5.6-5.2
		c-1.5-1.4-2.6-2.4-3.3-3.1c-1.2-1.1-2.2-2.1-3-2.8c-2,3.1-4.3,5.8-6.8,8.1c-2.3,2-4.5,3.6-6.8,4.7c-0.7,0.3-1.1,0.3-1.2,0.2
		c-0.1-0.1,0.2-0.4,0.9-0.9c2.8-1.7,5.5-4.1,8.1-7.4c2.3-2.9,4.1-5.8,5.3-8.7C441.9,52,441.7,51.7,441.3,51.3z"/>
</g>
<g class="st0">
	<path class="st1" d="M497.6,50.6c0-0.4-0.1-0.8-0.4-1.1c-0.3-0.2-0.4-0.5-0.3-0.6c0.1-0.2,0.4-0.2,1,0c1,0.3,1.6,0.7,1.8,0.9
		c0.1,0.2,0.1,0.4-0.1,0.8c-0.1,0.1-0.1,0.2-0.2,0.3c0,0.1-0.1,0.3-0.1,0.4c3,0.4,5.3,1.5,6.9,3.4c1.5,1.7,2.1,3.7,1.9,5.9
		s-1.1,4.1-2.8,5.6c-1.9,1.7-4.3,2.5-7.2,2.5c-3,0-5.5-0.9-7.3-2.6c-1.7-1.6-2.6-3.5-2.7-5.8s0.6-4.3,2-5.9c1.7-1.9,4-3,7-3.3
		C497.4,51.3,497.5,51,497.6,50.6z M491.9,54.8c-1.3,1.4-2,3-2,5s0.7,3.6,2,5c1.5,1.5,3.5,2.3,6.1,2.3c2.5,0,4.5-0.8,6-2.3
		c1.3-1.4,2-3,2-5s-0.7-3.6-2-5c-1.5-1.5-3.5-2.3-6-2.3C495.5,52.6,493.4,53.3,491.9,54.8z"/>
</g>
<g class="st0">
	<path class="st1" d="M172.2,296.6c-0.3-0.2-0.8-0.4-1.5-0.6l0,0c-0.4-0.1-0.6-0.3-0.6-0.5s0.3-0.3,0.9-0.4c0.9,0,1.6,0,2.3,0.1
		c0.6,0.1,1,0.2,1.3,0.4h3.7c0.4,0,0.7-0.1,1-0.2c0.1-0.1,0.3-0.2,0.5-0.3c0.2-0.1,0.5-0.2,0.7-0.3c0.3-0.1,0.8-0.1,1.5-0.1
		c0.5,0,0.9,0,1.3,0.2c0.3,0.1,0.5,0.3,0.5,0.6c0,0.2-0.1,0.4-0.3,0.6s-0.6,0.3-1,0.3l-6.7,0.3l-0.3,0.1c-0.1,0-0.2,0.1-0.2,0.1
		c0,0.1-0.1,0.2-0.1,0.4v11.8c0,0.4,0.1,0.6,0.2,0.7c0.2,0.1,0.6,0.1,1.2,0c0.8-0.2,2.2-0.7,4.2-1.4c2.1-0.8,3.5-1.3,4.2-1.7
		c0.5-0.2,0.9-0.3,0.9-0.1c0,0.2-0.2,0.4-0.6,0.7c-1.2,0.8-3,1.8-5.4,2.9c-2.5,1.2-4.3,1.8-5.3,2c-0.4,0-0.8-0.2-1.1-0.8
		c-0.3-0.5-0.4-1-0.4-1.5v-12.2C172.9,297.2,172.6,296.8,172.2,296.6z M186.4,295.9c-0.4-0.2-0.8-0.4-1.2-0.6
		c-0.4-0.1-0.6-0.3-0.5-0.5s0.5-0.3,1.3-0.3c0.7,0.1,1.4,0.2,2.1,0.4c0.6,0.2,1.1,0.4,1.5,0.6l3.6-0.1c0.4,0,0.8-0.1,1-0.3
		c0.1-0.1,0.3-0.2,0.5-0.3c0.2-0.2,0.5-0.3,0.7-0.4c0.4-0.1,1.1-0.2,2-0.2c0.5,0,0.9,0,1.3,0.2c0.3,0.2,0.5,0.4,0.5,0.7
		c0,0.2-0.1,0.5-0.3,0.6c-0.3,0.2-0.7,0.3-1.3,0.4c-1,0.1-2.1,0.1-3.3,0.2c-1.4,0.1-2.7,0.1-3.9,0.1l-0.3,0.1
		c-0.2,0-0.3,0.1-0.3,0.1c-0.1,0.1-0.1,0.3-0.1,0.5v11.7c0,0.4,0.1,0.8,0.2,0.9c0.2,0.2,0.5,0.4,1.1,0.4h4.2c0.5,0,0.9-0.1,1.2-0.2
		c0.1,0,0.3-0.1,0.5-0.3c0.2-0.1,0.5-0.3,0.7-0.3c0.4-0.1,1.1-0.1,2-0.1c0.5,0,0.9,0.1,1.2,0.3c0.3,0.2,0.4,0.4,0.4,0.7
		c0,0.2-0.1,0.5-0.4,0.6c-0.3,0.2-0.6,0.3-1.1,0.3h-9.9c-0.7,0-1.3-0.2-1.7-0.7c-0.5-0.5-0.8-1.2-0.8-2v-11.5
		C187,296.5,186.8,296.2,186.4,295.9z"/>
</g>
<g class="st0">
	<path class="st1" d="M251.5,297.3c-0.3-0.2-0.8-0.4-1.4-0.7c-0.5-0.1-0.7-0.3-0.6-0.5c0.1-0.2,0.5-0.3,1.1-0.4
		c1.7,0.2,2.7,0.4,3.2,0.6c0.3,0.1,0.4,0.4,0.4,0.7v0.3v4.4l6.6-0.1v-4.7c0-0.2-0.2-0.5-0.4-0.7c-0.2-0.2-0.6-0.4-1.2-0.7
		c-0.4-0.2-0.6-0.3-0.5-0.5s0.4-0.3,1.1-0.3c1.5,0.2,2.5,0.5,2.9,0.7c0.3,0.1,0.4,0.4,0.3,0.8v0.4v10.8c0,1.7,0,2.9-0.1,3.7
		c-0.1,0.9-0.3,1.6-0.6,2.1c-0.3,0.4-0.5,0.6-0.8,0.3c-0.3-0.2-0.5-0.8-0.6-1.7l-6.6,0.2c-0.1,0.5-0.3,0.9-0.4,1.2
		c-0.1,0.3-0.3,0.5-0.5,0.8c-0.3,0.2-0.6,0.2-0.7,0c-0.2-0.3-0.3-1.1-0.3-2.4l-0.1-13.4C252.1,297.8,251.9,297.5,251.5,297.3z
		 M254.2,310.9l6.6-0.2v-8.1l-6.6,0.1L254.2,310.9L254.2,310.9z M267.4,295.8c-0.2-0.2-0.6-0.4-1.2-0.7c-0.5-0.3-0.8-0.5-0.7-0.6
		c0.1-0.1,0.4-0.2,1-0.2c1.6,0.2,2.6,0.4,3,0.6c0.3,0.1,0.4,0.4,0.4,0.8v0.3v5.2l6.8-0.2v-5c0-0.4-0.2-0.7-0.5-1
		c-0.2-0.2-0.6-0.5-1.2-0.7c-0.5-0.2-0.7-0.4-0.7-0.6s0.4-0.3,1.2-0.3c1.6,0.3,2.6,0.6,3,0.9c0.3,0.2,0.4,0.5,0.3,0.9v0.3v9.7
		c0,2.2-0.1,3.8-0.2,4.8c-0.1,0.8-0.3,1.5-0.5,2.1c-0.4,0.5-0.7,0.7-0.9,0.6c-0.3-0.1-0.4-0.6-0.4-1.4l-6.8,0.2
		c-0.1,0.2-0.2,0.5-0.4,0.7c-0.1,0.2-0.3,0.5-0.5,0.7c-0.4,0.3-0.7,0.4-0.9,0.1c-0.2-0.3-0.3-1-0.3-2.3l-0.1-14.2
		C267.7,296.2,267.6,296,267.4,295.8z M269.9,310.4l6.8-0.2V302l-6.8,0.2V310.4z"/>
</g>
<g class="st0">
	<path class="st1" d="M336.1,295.6c-0.3-0.4-0.8-0.7-1.3-1c-0.3-0.1-0.4-0.3-0.4-0.4c0.1-0.1,0.4-0.2,1-0.2c0.3,0,0.8,0.1,1.5,0.4
		c0.5,0.2,1.1,0.6,1.9,1c0.3,0.1,0.4,0.4,0.3,0.9c-0.1,0.3-0.5,1-1.2,2.2l-1,1.9c0.5,0.6,1,1.1,1.5,1.5c0.3,0.2,0.7,0.4,1.2,0.7
		c0.6,0.2,1,0.5,1.3,0.7c0.4,0.4,0.8,1.1,1.2,2.1c0.2,0.6,0.2,1.1-0.2,1.4c-0.4,0.3-0.8,0.2-1.3-0.5l-4-5c-1.5,2.2-2.8,3.9-3.9,5
		c-1.3,1.4-2.7,2.5-4.3,3.5c-0.6,0.3-1,0.4-1.2,0.3s0-0.3,0.5-0.7c1.9-1.5,3.5-3.3,5-5.4c1.4-2,2.7-4.4,3.8-7.1
		C336.6,296.5,336.5,296.1,336.1,295.6z M348.6,295.2c-0.3-0.4-0.7-0.8-1.3-1.2c-0.3-0.2-0.5-0.4-0.4-0.5s0.4-0.2,1-0.1
		c0.3,0,0.7,0.1,1.2,0.4c0.3,0.1,0.6,0.3,1.1,0.6l0.4,0.2c0.6,0.3,0.9,0.5,1,0.7c0,0.1,0,0.4-0.1,0.7l-0.1,0.3l-2.7,5l3.3,3.7
		c0.2,0.3,0.5,0.5,0.7,0.7c0.2,0.1,0.4,0.2,0.7,0.4c0.5,0.2,0.8,0.5,1.1,0.7c0.4,0.4,0.9,1.2,1.4,2.2c0.3,0.6,0.5,1.1,0.5,1.6
		c0,0.4,0,0.7-0.2,0.9c-0.2,0.2-0.4,0.2-0.7,0.1c-0.3-0.1-0.6-0.4-0.9-0.9c-0.6-0.9-1.5-2.2-2.7-3.8c-0.7-0.9-1.6-2.2-2.9-3.8
		l-0.7-0.9c-1.2,2-2.7,3.9-4.4,5.8c-1.9,2.1-3.7,3.6-5.3,4.5c-0.6,0.3-0.9,0.4-0.9,0.2c0-0.2,0.2-0.5,0.7-0.8c1.8-1.4,3.6-3.4,5.5-6
		c2.2-3.1,3.9-6.4,5.1-9.8C348.9,295.9,348.8,295.6,348.6,295.2z"/>
</g>
<g class="st0">
	<path class="st1" d="M415.1,294.7c0.1-0.1,0.3-0.2,0.6-0.3c0.3-0.2,0.6-0.3,0.9-0.4c0.5-0.1,1.2-0.1,2.3-0.1c0.4,0,0.8,0.1,1,0.3
		c0.2,0.2,0.4,0.4,0.4,0.6s-0.1,0.4-0.3,0.6c-0.2,0.2-0.5,0.3-0.9,0.3c-1.1,0-2.2,0-3.1,0.1c-1.3,0-2.3,0.1-3.2,0.2
		c0.4,0.3,0.8,0.6,1.1,0.9c0.3,0.2,0.6,0.5,1,0.9c0.3,0.3,0.3,0.6,0.1,1c-0.1,0.3-0.7,1-1.6,2.2v0.1l0.6,0.7
		c0.2,0.3,0.4,0.6,0.6,0.8c0.2,0.3,0.5,0.6,0.7,0.8c0.1,0.1,0.3,0.3,0.5,0.4c0.1,0.1,0.3,0.2,0.5,0.4c0.6,0.4,1,0.8,1.3,1.1
		c0.5,0.6,0.9,1.3,1.2,2.2s0.2,1.4-0.3,1.7c-0.5,0.2-1-0.1-1.6-1l-0.5-0.8c-0.7-1.2-1.3-2.1-1.7-2.7c-0.7-1.1-1.3-2-1.9-2.7
		c-0.9,1.2-2,2.5-3.3,3.7c-1.8,1.7-3.7,3.2-5.7,4.3c-0.6,0.3-1,0.4-1.1,0.3s0.1-0.4,0.7-0.9c2-1.5,3.8-3.3,5.5-5.3s2.9-3.9,3.7-5.7
		c0.1-0.2,0-0.5-0.1-0.9s-0.4-0.8-0.7-1.2c-0.5,0-0.9,0-1.2,0c-0.4,0-0.8,0.1-1.2,0.2c-0.1,0-0.3,0-0.4,0.1c-0.1,0-0.2,0.1-0.3,0.1
		c-0.3,0.1-0.5,0.2-0.8,0.1c-0.4-0.1-1.1-0.4-2.1-1c-0.5-0.3-0.7-0.6-0.6-0.7c0-0.2,0.4-0.2,1,0c0.9,0.2,2,0.3,3.4,0.3
		s2.7,0,4.1-0.2l0.3-0.1C414.5,294.9,414.8,294.8,415.1,294.7z M429.2,294.7c0.1,0,0.3-0.1,0.6-0.3c0.3-0.2,0.6-0.3,0.9-0.4
		c0.5-0.1,1.2-0.1,2.2-0.1c0.4,0,0.8,0.1,1,0.3c0.2,0.1,0.4,0.3,0.4,0.6c0,0.2-0.1,0.4-0.3,0.6c-0.2,0.2-0.5,0.3-0.9,0.3
		c-0.9,0-2,0-3.2,0c-1.3,0-2.5,0.1-3.8,0.2l1,0.7c0.3,0.2,0.5,0.4,0.7,0.5c0.2,0.2,0.4,0.3,0.6,0.5s0.3,0.4,0.2,0.7
		c0,0.2-0.3,0.7-0.7,1.4l-1,1.9c0.6,0.6,1.2,1.4,1.9,2.2c0.4,0.5,0.9,1.2,1.6,1.9c0.1,0.1,0.2,0.3,0.4,0.4c0.1,0.1,0.3,0.2,0.5,0.4
		c0.7,0.5,1.2,0.9,1.5,1.3c0.5,0.7,1,1.6,1.3,2.7c0.3,0.9,0.2,1.5-0.1,1.8c-0.3,0.3-0.8,0-1.4-0.9l-1.2-1.8
		c-0.9-1.4-1.6-2.5-2.2-3.3c-1-1.5-1.9-2.8-2.7-4.1c-1.1,2.1-2.5,4-4.2,5.9c-1.8,1.9-3.8,3.6-6,5.1c-0.5,0.3-0.9,0.5-1,0.3
		c-0.1-0.1,0.1-0.4,0.6-0.9c2.3-2,4.2-4.1,5.8-6.2c1.8-2.4,3.3-5.1,4.4-8.1c0.1-0.3,0.1-0.6,0-1.1c-0.1-0.6-0.4-1.1-0.8-1.5
		c-0.2,0-0.3,0-0.5,0.1c-0.1,0-0.2,0.1-0.4,0.2c-0.4,0.2-0.7,0.2-1,0.2c-0.5-0.1-1.2-0.4-2.1-0.9c-0.5-0.3-0.7-0.5-0.6-0.7
		c0-0.2,0.4-0.2,1,0c0.8,0.2,1.7,0.3,2.7,0.3c0.8,0,2.1-0.1,3.9-0.2C428.6,294.8,428.9,294.8,429.2,294.7z"/>
</g>
<g>
	<g class="st0">
		<path class="st1" d="M378.3,171.7c0.2,0,0.5-0.1,0.9-0.3c0.4-0.1,0.7-0.2,1-0.3c0.5-0.1,1.2-0.1,2.1,0c0.6,0,1.1,0.2,1.5,0.4
			c0.3,0.1,0.6,0.3,0.6,0.6c0,0.2,0,0.4-0.2,0.6c-0.2,0.2-0.4,0.3-0.8,0.3h-9.7c0.9,0.8,1.3,1.4,1.3,1.9c0,0.4-0.4,1.1-1.1,2.1
			l-0.2,0.3l1.3,1.2c0.8,0.8,1.3,1.3,1.7,1.7c0.6,0.6,1.2,1.1,1.8,1.4c0.3,0.2,0.6,0.4,1,0.6c0.2,0.1,0.5,0.3,0.9,0.4
			c0.8,0.3,1.4,0.7,1.9,1c0.7,0.5,1.5,1.3,2.3,2.3c0.5,0.7,0.9,1.2,1,1.7c0.1,0.4,0.1,0.7-0.1,0.9c-0.1,0.1-0.4,0.2-0.7,0.1
			c-0.3,0-0.5-0.2-0.7-0.4c-0.7-0.6-1.5-1.3-2.5-2.3c-0.6-0.6-1.5-1.4-2.8-2.6c-1.3-1.3-2.3-2.2-3-2.8c-1.1-1-2-1.8-2.8-2.5
			c-2,2.5-4.1,4.8-6.3,6.7c-2.4,2-4.7,3.4-6.8,4.3c-0.8,0.3-1.2,0.4-1.2,0.2s0.3-0.5,1.2-0.9c2.2-1.2,4.4-3,6.6-5.3
			c2.6-2.7,4.5-5.4,5.6-8.1c0.2-0.5,0.2-1,0-1.4s-0.4-0.6-0.7-0.6l-4.5,0.2c-0.3,0-0.6,0-0.9,0.1c-0.2,0-0.4,0.1-0.6,0.2
			c-0.4,0.2-0.7,0.2-1,0.2c-0.5,0-1.2-0.3-2.1-0.8c-0.8-0.4-1.2-0.7-1.2-0.9s0.5-0.3,1.5-0.1c1.7,0.1,3.8,0.2,6.3,0.2
			c2.3,0,4.9-0.1,7.8-0.3C377.5,171.8,377.9,171.7,378.3,171.7z"/>
	</g>
</g>
<g class="st0">
	<path class="st1" d="M447,175.4c0.1,0,0.3-0.1,0.6-0.3c0.4-0.2,0.7-0.3,1.1-0.4c0.6-0.1,1.4-0.1,2.6,0c0.5,0,1,0.1,1.3,0.3
		s0.4,0.4,0.4,0.6c0,0.2-0.1,0.4-0.4,0.6c-0.3,0.2-0.6,0.3-1.1,0.3c-1.1,0-2.3-0.1-3.6,0c-0.8,0-2.1,0-3.8,0.1l-2.2,0.1
		c1.1,1.1,1.8,1.9,1.9,2.3c0.1,0.3-0.1,0.7-0.6,1.3l-0.4,0.5c0.4,0.3,1.2,0.8,2.4,1.6c1.2,0.7,2.2,1.3,3.1,1.8
		c0.2,0.1,0.4,0.2,0.7,0.2c0.1,0,0.3,0.1,0.6,0.1c0.6,0.1,1.2,0.2,1.6,0.4c0.7,0.4,1.6,1.1,2.6,2c0.8,0.8,1,1.4,0.7,1.8
		c-0.3,0.4-0.9,0.3-1.6-0.1c-1.4-0.9-3.1-2-5.1-3.3c-2.1-1.4-4-2.7-5.6-3.9c-2.3,2.2-4.5,4-6.6,5.3c-2.3,1.5-4.7,2.5-7.2,3
		c-0.7,0.1-1.1,0.1-1.2,0c-0.1-0.2,0.2-0.4,0.9-0.6c2.5-0.8,4.9-2.1,7.2-3.8c2.3-1.7,4.3-3.7,6-6c0.2-0.3,0.3-0.7,0.1-1
		c-0.1-0.2-0.3-0.6-0.6-1.1l-0.2-0.3L439,177l-4.3,0.3c-0.2,0-0.4,0-0.6,0.1c-0.1,0-0.2,0.1-0.4,0.1c-0.5,0.1-0.9,0.2-1.2,0.1
		c-0.5-0.1-1.4-0.4-2.4-1c-0.5-0.3-0.8-0.6-0.8-0.8s0.3-0.2,1,0c1,0.2,3.3,0.3,7,0.3c3.1,0,6.2-0.2,9.1-0.4
		C446.5,175.5,446.8,175.4,447,175.4z M438.2,171.3c-0.4-0.2-0.9-0.5-1.3-0.9s-0.6-0.6-0.6-0.7c0-0.1,0.4-0.1,0.9,0
		c0.9,0.1,2.4,0.2,4.3,0.3s3.4,0.1,4.5,0.1c0.3,0,0.5,0.1,0.7,0.3c0.1,0.1,0.2,0.3,0.2,0.5s-0.2,0.4-0.4,0.5
		c-0.3,0.1-0.6,0.2-1.1,0.2l-5.6,0.1C439.2,171.6,438.7,171.5,438.2,171.3z"/>
</g>
<g>
	<g class="st0">
		<path d="M132.6,31.9h-1.3v-8h-1.9V23l3.1-0.3L132.6,31.9L132.6,31.9z"/>
	</g>
</g>
<circle class="st3" cx="131.5" cy="27.5" r="10"/>
<g>
	<g class="st0">
		<path d="M170.7,143.7h1.1c0.6,0,0.9-0.1,1.2-0.4c0.2-0.3,0.3-0.7,0.3-1.2s-0.1-0.9-0.4-1.2c-0.3-0.3-0.6-0.4-1.2-0.4
			c-0.5,0-0.9,0.1-1.2,0.4c-0.3,0.3-0.4,0.7-0.4,1.1H169l0,0c0-0.7,0.2-1.3,0.8-1.8c0.5-0.5,1.2-0.7,2.1-0.7c0.9,0,1.5,0.2,2,0.7
			s0.8,1.1,0.8,1.9c0,0.4-0.1,0.8-0.3,1.1c-0.2,0.4-0.6,0.7-1,0.9c0.6,0.2,0.9,0.5,1.2,0.9c0.2,0.4,0.3,0.8,0.3,1.3
			c0,0.8-0.3,1.5-0.8,2c-0.6,0.5-1.3,0.7-2.1,0.7s-1.5-0.2-2.1-0.7s-0.8-1.1-0.8-1.9l0,0h1.2c0,0.5,0.1,0.9,0.4,1.2
			c0.3,0.3,0.7,0.4,1.2,0.4s0.9-0.1,1.2-0.4c0.3-0.3,0.5-0.7,0.5-1.3s-0.1-1-0.4-1.3c-0.3-0.3-0.7-0.4-1.3-0.4h-1.1L170.7,143.7
			L170.7,143.7z"/>
	</g>
</g>
<circle class="st3" cx="171.5" cy="144.5" r="10"/>
<g>
	<g class="st0">
		<path d="M262.4,260.7l0.5-5.1h4.6v1.1H264l-0.3,2.6c0.2-0.1,0.4-0.3,0.7-0.4c0.2-0.1,0.5-0.1,0.8-0.2c0.9,0,1.5,0.3,2,0.8
			c0.5,0.6,0.7,1.3,0.7,2.3c0,0.9-0.2,1.7-0.7,2.2c-0.5,0.6-1.2,0.8-2.2,0.8c-0.8,0-1.4-0.2-2-0.6s-0.8-1.1-0.7-1.9l0,0h1.1
			c0,0.5,0.1,0.9,0.4,1.2c0.3,0.3,0.7,0.4,1.1,0.4c0.5,0,0.9-0.2,1.2-0.6s0.4-0.9,0.4-1.5s-0.1-1.1-0.4-1.5s-0.7-0.6-1.2-0.6
			s-0.8,0.1-1.1,0.2c-0.2,0.1-0.4,0.4-0.5,0.7L262.4,260.7z"/>
	</g>
</g>
<circle class="st3" cx="265.5" cy="260.5" r="10"/>
<g>
	<g class="st0">
		<path d="M412,145.8h1.3v1H412v2.1h-1.2v-2.1h-4.2v-0.7l4.1-6.4h1.3L412,145.8L412,145.8z M408,145.8h2.8v-4.3l0,0l-0.1,0.3
			L408,145.8z"/>
	</g>
</g>
<circle class="st3" cx="409.5" cy="144.5" r="10"/>
<g>
	<g class="st0">
		<path d="M415,31.9h-6V31l3-3.4c0.5-0.6,0.9-1.1,1.1-1.4c0.2-0.4,0.3-0.7,0.3-1.1c0-0.5-0.1-0.8-0.4-1.2c-0.3-0.3-0.6-0.5-1.1-0.5
			c-0.6,0-1.1,0.2-1.4,0.5s-0.5,0.8-0.5,1.4h-1.2l0,0c0-0.8,0.2-1.5,0.8-2c0.6-0.5,1.3-0.8,2.3-0.8c0.8,0,1.5,0.2,2,0.7
			s0.7,1.1,0.7,1.8c0,0.5-0.1,1-0.4,1.5s-0.7,1-1.3,1.6l-2.4,2.6l0,0h4.4v1.2H415z"/>
	</g>
</g>
<circle class="st3" cx="411.5" cy="27.5" r="10"/>
</svg>
